<svg width="36" height="36" viewBox="0 0 36 36" fill="none" xmlns="http://www.w3.org/2000/svg">
<path d="M1.2 36.0002H34.8C35.4627 36.0002 36 35.4629 36 34.8002V3.00017C36 2.6688 35.7314 2.40017 35.4 2.40017C35.0686 2.40017 34.8 2.6688 34.8 3.00017V4.20017H33.6C33.6 2.67017 33.648 2.28017 32.91 1.09217C32.7961 0.913992 32.6958 0.727461 32.61 0.534173C32.4706 0.21073 32.1522 0.00120645 31.8 0.00120645C31.4478 0.00120645 31.1294 0.21073 30.99 0.534173C30.9006 0.723743 30.8004 0.908044 30.69 1.08617C29.946 2.28017 30 2.65217 30 4.20017H28.8V3.00017C28.8 2.6688 28.5314 2.40017 28.2 2.40017C27.8686 2.40017 27.6 2.6688 27.6 3.00017V13.2002H26.4C26.5088 12.4854 26.2016 11.7709 25.608 11.3582C25.375 11.1633 25.185 10.9222 25.05 10.6502C24.9395 10.442 24.7472 10.2894 24.5195 10.2291C24.2917 10.1687 24.0491 10.2061 23.85 10.3322C22.566 8.33417 21.126 8.27417 19.41 5.04017C19.2309 4.7169 18.9443 4.46645 18.6 4.33217V3.49217C19.4265 3.19995 19.9223 2.35477 19.7741 1.49073C19.6258 0.626694 18.8767 -0.00488281 18 -0.00488281C17.1233 -0.00488281 16.3742 0.626694 16.2259 1.49073C16.0777 2.35477 16.5735 3.19995 17.4 3.49217V4.33217C16.2 4.81817 16.83 5.74817 13.974 8.34017C13.2897 8.92286 12.6846 9.59254 12.174 10.3322C11.9749 10.2061 11.7323 10.1687 11.5045 10.2291C11.2768 10.2894 11.0845 10.442 10.974 10.6502C10.841 10.9218 10.6506 11.1613 10.416 11.3522C9.8146 11.7628 9.4983 12.4791 9.6 13.2002H8.4V3.00017C8.4 2.6688 8.13137 2.40017 7.8 2.40017C7.46863 2.40017 7.2 2.6688 7.2 3.00017V4.20017H6C6 2.67017 6.048 2.28017 5.31 1.09217C5.19609 0.913992 5.09581 0.727461 5.01 0.534173C4.87063 0.21073 4.55219 0.00120645 4.2 0.00120645C3.84781 0.00120645 3.52937 0.21073 3.39 0.534173C3.30061 0.723743 3.20044 0.908044 3.09 1.08617C2.346 2.28017 2.4 2.65217 2.4 4.20017H1.2V3.00017C1.2 2.6688 0.931371 2.40017 0.6 2.40017C0.268629 2.40017 0 2.6688 0 3.00017V34.8002C0 35.4629 0.537258 36.0002 1.2 36.0002ZM34.8 19.2002H1.2V18.0002H34.8V19.2002ZM31.2 22.8002H32.4V24.6002H31.2V22.8002ZM32.4 21.6002H26.4V20.4002H32.4V21.6002ZM26.4 22.8002H27.6V24.6002H26.4V22.8002ZM19.8 21.7802V22.2002H16.2V21.7802L17.124 20.4002H18.876L19.8 21.7802ZM19.8 26.4002H16.2V23.4002H19.8V26.4002ZM8.4 22.8002H9.6V24.6002H8.4V22.8002ZM9.6 21.6002H3.6V20.4002H9.6V21.6002ZM3.6 22.8002H4.8V24.6002H3.6V22.8002ZM1.2 34.8002V28.2002H2.4V34.8002H1.2ZM12.6 28.2002V34.8002H3.6V28.2002H12.6ZM16.2 34.8002C16.2 32.5322 15.996 31.9922 18 30.2462C20.004 32.0042 19.8 32.5742 19.8 34.8002H16.2ZM22.2 28.2002V34.8002H21C21 32.4002 21.192 31.4402 18.798 29.3462C18.3431 28.9411 17.6569 28.9411 17.202 29.3462C14.868 31.3862 15 32.2922 15 34.8002H13.8V28.2002C13.8 27.5374 13.2627 27.0002 12.6 27.0002H1.2V20.4002H2.4V25.2002C2.4 25.5315 2.66863 25.8002 3 25.8002H5.4C5.73137 25.8002 6 25.5315 6 25.2002V22.8002H7.2V25.2002C7.2 25.5315 7.46863 25.8002 7.8 25.8002H10.2C10.5314 25.8002 10.8 25.5315 10.8 25.2002V20.4002H15.678C15.246 21.0542 15 21.3182 15 21.7802V26.4002C15 27.0629 15.5373 27.6002 16.2 27.6002H19.8C20.4627 27.6002 21 27.0629 21 26.4002V22.8002C21 21.2462 21.102 21.6002 20.322 20.4002H25.2V25.2002C25.2 25.5315 25.4686 25.8002 25.8 25.8002H28.2C28.5314 25.8002 28.8 25.5315 28.8 25.2002V22.8002H30V25.2002C30 25.5315 30.2686 25.8002 30.6 25.8002H33C33.3314 25.8002 33.6 25.5315 33.6 25.2002V20.4002H34.8V27.0002H23.4C22.7373 27.0002 22.2 27.5374 22.2 28.2002ZM23.4 28.2002H32.4V34.8002H23.4V28.2002ZM33.6 34.8002V28.2002H34.8V34.8002H33.6ZM34.8 10.2002H33.6C33.6 8.44217 33.774 7.92617 32.4 6.80417C32.0638 6.53325 31.5842 6.53325 31.248 6.80417C29.85 7.92617 30.048 8.44817 30.048 10.2002H28.8V5.40017H34.8V10.2002ZM32.4 10.2002H31.2V8.90417C31.2 8.59817 31.242 8.36417 31.8 7.88417C32.358 8.36417 32.4 8.59817 32.4 8.90417V10.2002ZM31.8 1.57217C32.4 2.59217 32.4 2.40017 32.4 4.20017H31.2C31.2 2.40017 31.2 2.64017 31.8 1.57217ZM24.804 12.2462C25.254 12.6542 25.2 12.6482 25.2 13.2002H23.4V12.8282C23.4 12.4442 23.904 12.2282 24.288 11.7242C24.33 11.6642 24.192 11.6882 24.804 12.2462ZM18 1.20017C18.3314 1.20017 18.6 1.4688 18.6 1.80017C18.6 2.13154 18.3314 2.40017 18 2.40017C17.6686 2.40017 17.4 2.13154 17.4 1.80017C17.4 1.4688 17.6686 1.20017 18 1.20017ZM14.784 9.22817C15.9734 8.23577 16.9473 7.01069 17.646 5.62817C17.7093 5.48953 17.8476 5.40047 18 5.40017C18.444 5.40017 18.264 5.74817 19.512 7.46417C20.634 9.00017 22.308 9.86417 23.034 11.3162C22.4152 11.7302 22.0905 12.4638 22.2 13.2002H20.4C20.4 12.3782 20.4 12.0002 19.452 11.3222C19.175 11.1365 18.9416 10.8929 18.768 10.6082C18.5947 10.3544 18.3073 10.2027 18 10.2027C17.6927 10.2027 17.4053 10.3544 17.232 10.6082C17.0583 10.8912 16.8248 11.1328 16.548 11.3162C15.636 12.0002 15.6 12.3482 15.6 13.2002H13.8C13.908 12.464 13.5836 11.7312 12.966 11.3162C13.4406 10.5159 14.0566 9.80839 14.784 9.22817ZM18.726 12.2822C19.326 12.7142 19.2 12.7022 19.2 13.2002H16.8V12.8282C16.8 12.4802 17.454 12.2822 18 11.5922C18.2056 11.8576 18.4504 12.0903 18.726 12.2822ZM10.8 12.8282C10.8 12.4442 11.304 12.2282 11.688 11.7242C12.06 12.2342 12.576 12.4442 12.576 12.8222V13.2002H10.8V12.8282ZM28.2 14.4002C28.5314 14.4002 28.8 14.1315 28.8 13.8002V11.4002H34.8V16.8002H1.2V11.4002H7.2V13.8002C7.2 14.1315 7.46863 14.4002 7.8 14.4002H28.2ZM4.8 10.2002H3.6V8.90417C3.6 8.59817 3.642 8.36417 4.2 7.88417C4.758 8.36417 4.8 8.59817 4.8 8.90417V10.2002ZM7.2 10.2002H6C6 8.44217 6.174 7.92617 4.8 6.80417C4.46379 6.53325 3.98421 6.53325 3.648 6.80417C2.226 7.92617 2.4 8.44817 2.4 10.2002H1.2V5.40017H7.2V10.2002ZM4.2 1.57217C4.8 2.59217 4.8 2.40017 4.8 4.20017H3.6C3.6 2.40017 3.6 2.64017 4.2 1.57217Z" fill="#687086"/>
</svg>
