<svg width="375" height="302" viewBox="0 0 375 302" fill="none" xmlns="http://www.w3.org/2000/svg">
<mask id="mask0" mask-type="alpha" maskUnits="userSpaceOnUse" x="0" y="0" width="375" height="302">
<path d="M0 0H375V302H0V0Z" fill="#EBF0F3"/>
</mask>
<g mask="url(#mask0)">
<g clip-path="url(#clip0)">
<path d="M117.003 286.347C117.003 285.951 117.003 285.752 117.203 285.356C117.402 284.959 117.602 284.761 117.802 284.562C118.201 284.166 118.999 283.769 119.598 283.769C119.797 283.769 119.997 283.769 119.997 283.769C120.196 283.769 120.396 283.769 120.396 283.967C120.596 283.967 120.795 284.166 120.795 284.166C120.995 284.166 120.995 284.364 121.194 284.364C121.394 284.562 121.394 284.562 121.593 284.761C121.593 284.959 121.793 284.959 121.793 285.157C121.793 285.356 121.993 285.554 121.993 285.554C122.192 286.347 121.993 287.141 121.394 287.736C121.194 287.934 121.194 287.934 120.995 288.132C120.795 288.132 120.795 288.331 120.596 288.331C120.396 288.331 120.396 288.529 120.197 288.529C119.997 288.529 119.797 288.529 119.797 288.529C119.199 288.529 118.6 288.331 118.001 287.736C117.802 287.537 117.602 287.339 117.403 286.942C117.003 286.942 117.003 286.546 117.003 286.347Z" fill="white" fill-opacity="0.8"/>
<path d="M-33.0746 283.774C-31.6776 283.774 -30.6797 284.964 -30.6797 286.154C-30.6796 287.543 -31.877 288.534 -33.0744 288.534C-34.4714 288.534 -35.4693 287.344 -35.4694 286.154C-35.669 284.965 -34.4716 283.775 -33.0746 283.774ZM-2.54016 283.773C-1.14317 283.773 -0.145258 284.963 -0.145215 286.153C-0.145165 287.541 -1.34256 288.533 -2.53999 288.533C-3.93699 288.533 -4.93488 287.343 -4.93493 286.153C-5.13454 284.963 -3.93716 283.773 -2.54016 283.773ZM27.9943 283.772C29.3913 283.772 30.3892 284.962 30.3892 286.152C30.3893 287.54 29.1919 288.532 27.9945 288.532C26.5975 288.532 25.5995 287.342 25.5995 286.152C25.3999 284.962 26.5973 283.772 27.9943 283.772ZM58.5287 283.771C59.9257 283.771 60.9236 284.961 60.9237 286.151C60.9237 287.539 59.7263 288.531 58.5289 288.531C57.1319 288.531 56.134 287.341 56.1339 286.151C55.9343 284.961 57.1317 283.771 58.5287 283.771ZM89.0632 283.77C90.4602 283.77 91.4581 284.96 91.4581 286.15C91.4581 287.538 90.2608 288.53 89.0633 288.53C87.6663 288.53 86.6684 287.34 86.6684 286.15C86.4688 284.96 87.6662 283.77 89.0632 283.77Z" fill="white" fill-opacity="0.8"/>
<path d="M117.005 254.618C117.005 254.023 117.205 253.428 117.803 252.833C118.003 252.635 118.202 252.635 118.602 252.436C118.801 252.238 119.2 252.238 119.4 252.238C119.599 252.238 119.799 252.238 119.999 252.238C120.198 252.238 120.398 252.238 120.398 252.436C120.597 252.436 120.797 252.634 120.797 252.634C120.996 252.833 120.996 252.833 121.196 253.031C122.194 254.023 122.194 255.609 121.196 256.601C120.797 256.998 119.999 257.394 119.4 257.394C119.001 257.394 118.801 257.394 118.402 257.196C118.203 256.799 118.003 256.601 117.803 256.403C117.404 256.204 117.404 256.006 117.205 255.609C117.005 255.411 117.005 255.014 117.005 254.618Z" fill="white" fill-opacity="0.8"/>
<path d="M-33.0736 252.242C-31.6766 252.242 -30.6787 253.432 -30.6787 254.622C-30.6786 256.01 -31.876 257.002 -33.0735 257.002C-34.4704 257.002 -35.4684 255.812 -35.4684 254.622C-35.668 253.432 -34.4706 252.242 -33.0736 252.242ZM-2.53919 252.241C-1.14219 252.241 -0.14429 253.431 -0.144246 254.621C-0.144196 256.009 -1.34159 257.001 -2.53902 257.001C-3.93602 257.001 -4.93391 255.811 -4.93396 254.621C-5.13357 253.431 -3.9362 252.241 -2.53919 252.241ZM27.9953 252.24C29.3923 252.24 30.3901 253.43 30.3902 254.62C30.3902 256.008 29.1929 257 27.9954 257C26.5984 257 25.6005 255.81 25.6005 254.62C25.4009 253.43 26.5983 252.24 27.9953 252.24ZM58.5297 252.239C59.9267 252.239 60.9246 253.429 60.9246 254.619C60.9247 256.007 59.7273 256.999 58.5299 256.999C57.1329 256.999 56.135 255.809 56.1349 254.619C55.9353 253.429 57.1327 252.239 58.5297 252.239ZM89.0641 252.238C90.4611 252.238 91.459 253.428 91.4591 254.618C91.4591 256.006 90.2617 256.998 89.0643 256.998C87.6673 256.998 86.6694 255.808 86.6694 254.618C86.4697 253.428 87.6671 252.238 89.0641 252.238Z" fill="white" fill-opacity="0.8"/>
</g>
<g clip-path="url(#clip1)">
<path d="M117.008 255.178C117.008 254.584 117.207 253.79 117.806 253.394C118.205 252.997 119.003 252.6 119.602 252.6C120.201 252.6 120.999 252.798 121.398 253.393C122.396 254.385 122.396 255.972 121.398 256.963C120.999 257.36 120.201 257.757 119.602 257.757C119.003 257.757 118.405 257.558 117.806 256.963C117.207 256.567 117.008 255.972 117.008 255.178Z" fill="white" fill-opacity="0.8"/>
<path d="M-33.0688 252.805C-31.6718 252.805 -30.6739 253.995 -30.6738 255.185C-30.6738 256.573 -31.8712 257.565 -33.0686 257.565C-34.4656 257.565 -35.4635 256.375 -35.4636 255.185C-35.6632 253.797 -34.4658 252.805 -33.0688 252.805ZM-2.53434 252.804C-1.13734 252.804 -0.139438 253.994 -0.139395 255.184C-0.139345 256.572 -1.33674 257.564 -2.53417 257.564C-3.93117 257.564 -4.92907 256.374 -4.92911 255.184C-5.12873 253.796 -3.93134 252.804 -2.53434 252.804ZM28.0001 252.803C29.3971 252.803 30.395 253.993 30.3951 255.183C30.3951 256.571 29.1977 257.563 28.0003 257.563C26.6033 257.563 25.6054 256.373 25.6053 255.183C25.4057 253.795 26.6031 252.803 28.0001 252.803ZM58.5346 252.802C59.9316 252.802 60.9295 253.992 60.9295 255.182C60.9296 256.57 59.7322 257.562 58.5347 257.562C57.1377 257.562 56.1398 256.372 56.1398 255.182C55.9402 253.794 57.1376 252.802 58.5346 252.802ZM89.069 252.801C90.466 252.801 91.4639 253.991 91.464 255.181C91.464 256.569 90.2666 257.561 89.0692 257.561C87.6722 257.561 86.6743 256.371 86.6742 255.181C86.4746 253.793 87.672 252.801 89.069 252.801Z" fill="white" fill-opacity="0.8"/>
<path d="M117.004 223.645C117.004 223.249 117.004 223.05 117.204 222.654C117.403 222.257 117.603 222.059 117.802 221.86C118.201 221.464 119 221.067 119.598 221.067C120.197 221.067 120.995 221.265 121.394 221.86C121.594 222.059 121.594 222.059 121.794 222.257C121.794 222.455 121.993 222.455 121.993 222.653C121.993 222.852 122.193 223.05 122.193 223.05C122.392 223.843 122.193 224.637 121.594 225.232C121.395 225.232 121.395 225.43 121.195 225.628C120.995 225.628 120.995 225.827 120.796 225.827C120.596 225.827 120.596 225.827 120.397 226.025C120.197 226.025 119.998 226.025 119.998 226.025C119.598 226.025 119.399 226.025 119 225.827C118.201 225.827 118.002 225.628 117.802 225.43C117.603 225.232 117.403 224.835 117.204 224.637C117.004 224.24 117.004 224.042 117.004 223.645Z" fill="white" fill-opacity="0.8"/>
<path d="M-33.0737 221.274C-31.6767 221.274 -30.6788 222.464 -30.6787 223.654C-30.6787 225.042 -31.876 226.034 -33.0735 226.034C-34.4705 226.034 -35.4684 224.844 -35.4684 223.654C-35.6681 222.266 -34.4706 221.274 -33.0737 221.274ZM-2.53922 221.273C-1.14221 221.273 -0.144313 222.463 -0.14427 223.653C-0.14422 225.041 -1.34161 226.033 -2.53904 226.033C-3.93605 226.033 -4.93394 224.843 -4.93398 223.653C-5.1336 222.265 -3.93622 221.273 -2.53922 221.273ZM27.9952 221.272C29.3922 221.272 30.3901 222.462 30.3902 223.652C30.3902 225.04 29.1928 226.032 27.9954 226.032C26.5984 226.032 25.6005 224.842 25.6005 223.652C25.4008 222.264 26.5982 221.272 27.9952 221.272ZM58.5297 221.271C59.9267 221.271 60.9246 222.461 60.9246 223.651C60.9247 225.039 59.7273 226.03 58.5299 226.03C57.1329 226.031 56.1349 224.841 56.1349 223.651C55.9353 222.262 57.1327 221.271 58.5297 221.271ZM89.0641 221.27C90.4611 221.27 91.459 222.459 91.4591 223.649C91.4591 225.038 90.2617 226.029 89.0643 226.029C87.6673 226.029 86.6694 224.84 86.6694 223.65C86.4697 222.261 87.6671 221.27 89.0641 221.27Z" fill="white" fill-opacity="0.8"/>
<path d="M117.004 192.111C117.004 191.714 117.004 191.516 117.204 191.119C117.403 190.722 117.603 190.524 117.803 190.326C118.202 189.929 119 189.532 119.599 189.532C119.798 189.532 119.998 189.532 119.998 189.532C120.197 189.532 120.397 189.532 120.397 189.731C120.597 189.731 120.796 189.929 120.796 189.929C120.996 189.929 120.996 190.127 121.195 190.127C121.395 190.326 121.395 190.326 121.594 190.524C121.594 190.722 121.794 190.722 121.794 190.92C121.794 191.119 121.994 191.317 121.994 191.317C122.193 192.11 121.994 192.904 121.395 193.499C121.195 193.697 121.195 193.697 120.996 193.895C120.796 193.895 120.796 194.094 120.597 194.094C120.397 194.094 120.397 194.292 120.198 194.292C119.998 194.292 119.798 194.292 119.798 194.292C119.2 194.292 118.601 194.094 118.002 193.499C117.803 193.301 117.603 193.102 117.403 192.706C117.004 192.706 117.004 192.309 117.004 192.111Z" fill="white" fill-opacity="0.8"/>
<path d="M-33.0736 189.538C-31.6766 189.538 -30.6787 190.728 -30.6787 191.918C-30.6786 193.306 -31.876 194.297 -33.0734 194.297C-34.4704 194.298 -35.4684 193.108 -35.4684 191.918C-35.668 190.728 -34.4706 189.538 -33.0736 189.538ZM-2.53918 189.537C-1.14219 189.537 -0.144282 190.726 -0.144239 191.916C-0.144189 193.305 -1.34159 194.296 -2.53901 194.296C-3.93602 194.296 -4.93391 193.107 -4.93395 191.917C-5.13356 190.727 -3.93619 189.537 -2.53918 189.537ZM27.9953 189.536C29.3923 189.535 30.3901 190.725 30.3902 191.915C30.3902 193.304 29.1929 194.295 27.9954 194.295C26.5984 194.295 25.6005 193.105 25.6005 191.915C25.4009 190.726 26.5983 189.536 27.9953 189.536ZM58.5297 189.534C59.9267 189.534 60.9246 190.724 60.9246 191.914C60.9247 193.302 59.7273 194.294 58.5299 194.294C57.1329 194.294 56.135 193.104 56.1349 191.914C55.9353 190.724 57.1327 189.534 58.5297 189.534ZM89.0641 189.533C90.4611 189.533 91.459 190.723 91.4591 191.913C91.4591 193.301 90.2617 194.293 89.0643 194.293C87.6673 194.293 86.6694 193.103 86.6694 191.913C86.4697 190.723 87.6671 189.533 89.0641 189.533Z" fill="white" fill-opacity="0.8"/>
<path d="M117.006 160.381C117.006 159.786 117.206 159.191 117.804 158.596C118.004 158.398 118.203 158.398 118.602 158.199C118.802 158.001 119.201 158.001 119.401 158.001C119.6 158.001 119.8 158.001 119.999 158.001C120.199 158.001 120.399 158.001 120.399 158.199C120.598 158.199 120.798 158.398 120.798 158.398C120.997 158.596 120.997 158.596 121.197 158.794C122.195 159.786 122.195 161.372 121.197 162.364C120.798 162.761 120 163.157 119.401 163.157C119.002 163.157 118.802 163.157 118.403 162.959C118.204 162.563 118.004 162.364 117.804 162.166C117.405 161.968 117.405 161.769 117.206 161.373C117.006 161.174 117.006 160.778 117.006 160.381Z" fill="white" fill-opacity="0.8"/>
<path d="M-33.0726 158.005C-31.6756 158.005 -30.6778 159.195 -30.6777 160.385C-30.6777 161.774 -31.875 162.765 -33.0725 162.765C-34.4695 162.765 -35.4674 161.575 -35.4674 160.385C-35.667 159.196 -34.4696 158.006 -33.0726 158.005ZM-2.53822 158.004C-1.14121 158.004 -0.143313 159.194 -0.14327 160.384C-0.14322 161.772 -1.34062 162.764 -2.53804 162.764C-3.93505 162.764 -4.93294 161.574 -4.93298 160.384C-5.13259 159.194 -3.93522 158.004 -2.53822 158.004ZM27.9962 158.003C29.3932 158.003 30.3911 159.193 30.3912 160.383C30.3912 161.771 29.1938 162.763 27.9964 162.763C26.5994 162.763 25.6015 161.573 25.6015 160.383C25.4018 159.193 26.5992 158.003 27.9962 158.003ZM58.5307 158.002C59.9277 158.002 60.9256 159.192 60.9256 160.382C60.9257 161.77 59.7283 162.762 58.5308 162.762C57.1338 162.762 56.1359 161.572 56.1359 160.382C55.9363 159.192 57.1337 158.002 58.5307 158.002ZM89.0651 158.001C90.4621 158.001 91.46 159.191 91.46 160.381C91.4601 161.769 90.2627 162.761 89.0653 162.761C87.6683 162.761 86.6704 161.571 86.6703 160.381C86.4707 159.191 87.6681 158.001 89.0651 158.001Z" fill="white" fill-opacity="0.8"/>
</g>
<g clip-path="url(#clip2)">
<path d="M285.931 139.042C287.328 139.042 288.326 140.232 288.326 141.422C288.326 142.81 287.129 143.802 285.931 143.802C284.534 143.802 283.536 142.612 283.536 141.422C283.337 140.034 284.534 139.042 285.931 139.042ZM316.466 139.041C317.863 139.041 318.861 140.231 318.861 141.421C318.861 142.809 317.663 143.801 316.466 143.801C315.069 143.801 314.071 142.611 314.071 141.421C313.871 140.033 315.069 139.041 316.466 139.041ZM347 139.04C348.397 139.04 349.395 140.23 349.395 141.42C349.395 142.808 348.198 143.8 347 143.8C345.603 143.8 344.605 142.61 344.605 141.42C344.406 140.032 345.603 139.04 347 139.04ZM377.535 139.039C378.932 139.039 379.929 140.229 379.93 141.419C379.93 142.807 378.732 143.798 377.535 143.799C376.138 143.799 375.14 142.609 375.14 141.419C374.94 140.03 376.138 139.039 377.535 139.039ZM408.069 139.038C409.466 139.038 410.464 140.228 410.464 141.417C410.464 142.806 409.267 143.797 408.069 143.797C406.672 143.797 405.674 142.608 405.674 141.418C405.475 140.029 406.672 139.038 408.069 139.038Z" fill="white" fill-opacity="0.8"/>
<path d="M253.002 141.421C253.002 140.826 253.202 140.032 253.801 139.636C254 139.437 254.399 139.239 254.599 139.041C254.998 138.842 255.198 138.842 255.597 138.842C256.195 138.842 256.794 139.041 257.393 139.636C257.992 140.231 258.191 141.024 257.992 141.817C257.992 142.015 257.992 142.214 257.792 142.214C257.792 142.412 257.593 142.412 257.593 142.61C257.593 142.809 257.393 142.809 257.193 143.007C256.794 143.404 256.196 143.8 255.397 143.8C254.998 143.8 254.799 143.8 254.399 143.602C254.2 143.404 253.801 143.206 253.601 143.007C253.202 142.809 253.002 142.214 253.002 141.421Z" fill="white" fill-opacity="0.8"/>
<path d="M285.926 107.511C287.323 107.511 288.321 108.701 288.321 109.891C288.321 111.279 287.124 112.271 285.927 112.271C284.53 112.271 283.532 111.081 283.532 109.891C283.332 108.503 284.529 107.511 285.926 107.511ZM316.461 107.51C317.858 107.51 318.856 108.7 318.856 109.89C318.856 111.278 317.658 112.269 316.461 112.269C315.064 112.27 314.066 111.08 314.066 109.89C313.866 108.501 315.064 107.51 316.461 107.51ZM346.995 107.509C348.392 107.509 349.39 108.698 349.39 109.888C349.39 111.277 348.193 112.268 346.995 112.268C345.598 112.268 344.601 111.079 344.6 109.889C344.401 108.5 345.598 107.509 346.995 107.509ZM377.53 107.508C378.927 107.507 379.925 108.697 379.925 109.887C379.925 111.276 378.727 112.267 377.53 112.267C376.133 112.267 375.135 111.077 375.135 109.887C374.935 108.499 376.133 107.508 377.53 107.508ZM408.064 107.506C409.461 107.506 410.459 108.696 410.459 109.886C410.459 111.274 409.262 112.266 408.064 112.266C406.667 112.266 405.669 111.076 405.669 109.886C405.47 108.498 406.667 107.506 408.064 107.506Z" fill="white" fill-opacity="0.8"/>
<path d="M252.998 109.889C252.998 109.294 253.198 108.699 253.796 108.104C253.996 107.906 254.196 107.707 254.595 107.509C254.994 107.311 255.193 107.311 255.593 107.311C255.792 107.311 255.992 107.311 255.992 107.311C256.191 107.311 256.391 107.311 256.391 107.509C256.59 107.509 256.59 107.707 256.79 107.707C256.99 107.707 256.99 107.906 257.189 108.104C258.187 109.095 258.187 110.682 257.189 111.674C257.189 111.674 256.99 111.872 256.79 112.07C256.591 112.07 256.591 112.269 256.391 112.269C256.191 112.269 255.992 112.269 255.992 112.467C255.792 112.467 255.593 112.467 255.593 112.467C255.194 112.467 254.994 112.467 254.595 112.269C254.395 112.07 253.996 111.872 253.797 111.674C253.198 111.277 252.998 110.484 252.998 109.889Z" fill="white" fill-opacity="0.8"/>
<path d="M285.926 75.7745C287.323 75.7744 288.321 76.9643 288.321 78.1543C288.321 79.5425 287.124 80.5342 285.927 80.5342C284.53 80.5343 283.532 79.3444 283.532 78.1545C283.332 76.9645 284.529 75.7745 285.926 75.7745ZM316.461 75.7734C317.858 75.7733 318.856 76.9632 318.856 78.1532C318.856 79.5415 317.658 80.5331 316.461 80.5332C315.064 80.5332 314.066 79.3433 314.066 78.1534C313.866 76.9634 315.064 75.7734 316.461 75.7734ZM346.995 75.7723C348.392 75.7722 349.39 76.9622 349.39 78.1521C349.39 79.5404 348.193 80.532 346.995 80.5321C345.598 80.5321 344.601 79.3422 344.6 78.1523C344.401 76.9623 345.598 75.7723 346.995 75.7723ZM377.53 75.7712C378.927 75.7712 379.925 76.9611 379.925 78.151C379.925 79.5393 378.727 80.5309 377.53 80.531C376.133 80.531 375.135 79.3411 375.135 78.1512C374.935 76.9612 376.133 75.7713 377.53 75.7712ZM408.064 75.7701C409.461 75.7701 410.459 76.96 410.459 78.1499C410.459 79.5382 409.262 80.5298 408.064 80.5299C406.667 80.5299 405.669 79.34 405.669 78.1501C405.47 76.9601 406.667 75.7702 408.064 75.7701Z" fill="white" fill-opacity="0.8"/>
<path d="M252.999 78.3538C252.999 77.9571 252.999 77.7588 253.199 77.3622C253.399 76.9655 253.598 76.7672 253.798 76.5688C254.197 76.1722 254.796 75.7755 255.594 75.7755C255.793 75.7755 255.993 75.7755 255.993 75.7755C256.193 75.7755 256.392 75.7755 256.392 75.9738C256.592 75.9738 256.592 76.1721 256.791 76.1721C256.991 76.1721 256.991 76.3704 257.19 76.3704C257.39 76.5687 257.39 76.5687 257.59 76.767C257.59 76.9653 257.789 76.9653 257.789 77.1637C257.789 77.362 257.989 77.5603 257.989 77.5603C258.188 78.3536 257.989 79.1469 257.39 79.7419C256.991 80.1385 256.392 80.5352 255.594 80.5352C254.995 80.5353 254.197 80.337 253.798 79.742C253.598 79.5437 253.399 79.3454 253.199 78.9487C252.999 78.9487 252.999 78.5521 252.999 78.3538Z" fill="white" fill-opacity="0.8"/>
<path d="M285.927 44.2423C287.324 44.2422 288.322 45.4321 288.322 46.6221C288.322 48.0103 287.125 49.002 285.928 49.002C284.531 49.0021 283.533 47.8122 283.533 46.6222C283.333 45.4323 284.53 44.2423 285.927 44.2423ZM316.462 44.2412C317.859 44.2411 318.857 45.431 318.857 46.621C318.857 48.0092 317.659 49.0009 316.462 49.0009C315.065 49.001 314.067 47.8111 314.067 46.6211C313.867 45.4312 315.065 44.2412 316.462 44.2412ZM346.996 44.2401C348.393 44.24 349.391 45.4299 349.391 46.6199C349.391 48.0081 348.194 48.9998 346.996 48.9998C345.599 48.9999 344.602 47.81 344.601 46.62C344.402 45.4301 345.599 44.2401 346.996 44.2401ZM377.531 44.239C378.928 44.2389 379.926 45.4288 379.926 46.6188C379.926 48.007 378.728 48.9987 377.531 48.9987C376.134 48.9988 375.136 47.8089 375.136 46.6189C374.936 45.429 376.134 44.239 377.531 44.239ZM408.065 44.2379C409.462 44.2378 410.46 45.4277 410.46 46.6177C410.46 48.0059 409.263 48.9976 408.065 48.9976C406.668 48.9977 405.67 47.8078 405.67 46.6178C405.471 45.4279 406.668 44.2379 408.065 44.2379Z" fill="white" fill-opacity="0.8"/>
<path d="M252.999 46.6232C252.999 46.0282 253.199 45.4333 253.798 44.8383C254.197 44.4416 254.796 44.2433 255.394 44.2432C255.594 44.2432 255.793 44.2432 255.793 44.2432C255.993 44.2432 256.193 44.2432 256.193 44.4415C256.392 44.4415 256.592 44.6399 256.592 44.6399C256.791 44.8382 256.791 44.8382 256.991 45.0365C257.989 46.0281 257.989 47.6146 256.991 48.6063C256.592 49.003 255.993 49.3996 255.195 49.3997C254.397 49.3997 253.798 49.2014 253.399 48.6064C253.399 48.2098 253.199 48.0115 252.999 47.6148C252.999 47.4165 252.999 47.0199 252.999 46.6232Z" fill="white" fill-opacity="0.8"/>
</g>
<g clip-path="url(#clip3)">
<path d="M285.932 44.8053C287.329 44.8052 288.327 45.9951 288.327 47.1851C288.327 48.5734 287.13 49.565 285.932 49.5651C284.535 49.5651 283.537 48.3752 283.537 47.1853C283.338 45.797 284.535 44.8053 285.932 44.8053ZM316.467 44.8042C317.864 44.8041 318.862 45.994 318.862 47.184C318.862 48.5722 317.664 49.5639 316.467 49.564C315.07 49.564 314.072 48.3741 314.072 47.1842C313.872 45.7959 315.07 44.8042 316.467 44.8042ZM347.001 44.8031C348.398 44.803 349.396 45.9929 349.396 47.1829C349.396 48.5711 348.199 49.5628 347.001 49.5628C345.604 49.5629 344.606 48.373 344.606 47.1831C344.407 45.7948 345.604 44.8031 347.001 44.8031ZM377.536 44.802C378.933 44.8019 379.93 45.9918 379.93 47.1818C379.931 48.57 378.733 49.5617 377.536 49.5617C376.139 49.5618 375.141 48.3719 375.141 47.1819C374.941 45.7937 376.139 44.802 377.536 44.802ZM408.07 44.8009C409.467 44.8008 410.465 45.9907 410.465 47.1807C410.465 48.5689 409.268 49.5606 408.07 49.5606C406.673 49.5607 405.675 48.3708 405.675 47.1808C405.476 45.7926 406.673 44.8009 408.07 44.8009Z" fill="white" fill-opacity="0.8"/>
<path d="M253.003 47.1843C253.003 46.5894 253.203 45.7961 253.802 45.3994C254.001 45.2011 254.4 45.0027 254.6 44.8044C254.999 44.6061 255.199 44.6061 255.598 44.606C256.196 44.606 256.795 44.8043 257.394 45.3993C257.993 45.9942 258.192 46.7875 257.993 47.5808C257.993 47.7791 257.993 47.9775 257.793 47.9775C257.793 48.1758 257.594 48.1758 257.594 48.3741C257.594 48.5724 257.394 48.5725 257.194 48.7708C256.795 49.1674 256.197 49.5641 255.398 49.5641C254.999 49.5642 254.8 49.5642 254.4 49.3659C254.201 49.1675 253.802 48.9692 253.602 48.7709C253.203 48.5726 253.003 47.9776 253.003 47.1843Z" fill="white" fill-opacity="0.8"/>
<path d="M285.927 13.274C287.324 13.274 288.322 14.4639 288.322 15.6538C288.322 17.0421 287.125 18.0338 285.927 18.0338C284.53 18.0339 283.533 16.844 283.533 15.654C283.333 14.2658 284.53 13.2741 285.927 13.274ZM316.462 13.2729C317.859 13.2729 318.857 14.4628 318.857 15.6527C318.857 17.041 317.659 18.0327 316.462 18.0327C315.065 18.0328 314.067 16.8429 314.067 15.6529C313.867 14.2646 315.065 13.273 316.462 13.2729ZM346.996 13.2718C348.393 13.2718 349.391 14.4617 349.391 15.6516C349.391 17.0399 348.194 18.0316 346.996 18.0316C345.599 18.0317 344.601 16.8417 344.601 15.6518C344.402 14.2635 345.599 13.2719 346.996 13.2718ZM377.531 13.2707C378.928 13.2707 379.926 14.4606 379.926 15.6505C379.926 17.0388 378.728 18.0305 377.531 18.0305C376.134 18.0305 375.136 16.8406 375.136 15.6507C374.936 14.2624 376.134 13.2708 377.531 13.2707ZM408.065 13.2696C409.462 13.2696 410.46 14.4595 410.46 15.6494C410.46 17.0377 409.263 18.0293 408.065 18.0294C406.668 18.0294 405.67 16.8395 405.67 15.6496C405.471 14.2613 406.668 13.2697 408.065 13.2696Z" fill="white" fill-opacity="0.8"/>
<path d="M252.999 15.6521C252.999 15.0571 253.199 14.4622 253.797 13.8672C253.997 13.6688 254.197 13.4705 254.596 13.2722C254.995 13.0738 255.194 13.0738 255.594 13.0738C255.793 13.0738 255.993 13.0738 255.993 13.0738C256.192 13.0738 256.392 13.0738 256.392 13.2721C256.591 13.2721 256.591 13.4704 256.791 13.4704C256.991 13.4704 256.991 13.6687 257.19 13.8671C258.188 14.8586 258.188 16.4452 257.19 17.4369C257.19 17.4369 256.991 17.6352 256.791 17.8336C256.592 17.8336 256.592 18.0319 256.392 18.0319C256.192 18.0319 255.993 18.0319 255.993 18.2302C255.793 18.2302 255.594 18.2302 255.594 18.2302C255.195 18.2303 254.995 18.2303 254.596 18.032C254.396 17.8336 253.997 17.6353 253.798 17.437C253.199 17.0404 252.999 16.2471 252.999 15.6521Z" fill="white" fill-opacity="0.8"/>
</g>
</g>
<defs>
<clipPath id="clip0">
<rect width="99.7565" height="187.996" fill="white" transform="translate(121.995 252.237) rotate(89.9979)"/>
</clipPath>
<clipPath id="clip1">
<rect width="99.7565" height="187.996" fill="white" transform="translate(121.996 158) rotate(89.9979)"/>
</clipPath>
<clipPath id="clip2">
<rect width="99.7565" height="187.996" fill="white" transform="translate(440.996 44.2368) rotate(89.9979)"/>
</clipPath>
<clipPath id="clip3">
<rect width="99.7565" height="187.996" fill="white" transform="translate(440.997 -50) rotate(89.9979)"/>
</clipPath>
</defs>
</svg>
