<svg width="44" height="44" viewBox="0 0 44 44" fill="none" xmlns="http://www.w3.org/2000/svg">
<path d="M43.0833 12.2877H40.15V7.89688C40.15 7.39065 39.7396 6.98021 39.2333 6.98021C28.9942 6.69604 23.65 9.73021 21.9725 10.9035C20.2767 9.71188 14.96 6.69604 4.71167 6.98021C4.20544 6.98021 3.795 7.39065 3.795 7.89688V12.2877H0.916667C0.410437 12.2877 0 12.6981 0 13.2044V36.121C0 36.6273 0.410437 37.0377 0.916667 37.0377H43.0833C43.5896 37.0377 44 36.6273 44 36.121V13.2044C44 12.6981 43.5896 12.2877 43.0833 12.2877ZM1.83333 35.1585V14.0752H3.85V31.6752C3.84851 31.9234 3.94774 32.1615 4.125 32.3352C4.30169 32.5057 4.53945 32.5982 4.785 32.5919C11.9167 32.4269 16.5733 33.9485 19.0667 35.1585H1.83333ZM21.0833 34.141C18.8467 32.8302 14.0708 30.786 6.05917 30.786H5.68333V8.78604C15.1342 8.71271 19.8917 11.6369 21.0833 12.4527V34.141ZM22.9167 12.5077C24.1175 11.646 28.8842 8.75854 38.3167 8.84104V30.841C30.0667 30.786 25.1808 32.8669 22.9167 34.196V12.5077ZM42.1667 35.1585H24.9333C27.4358 33.9485 32.0375 32.4085 39.215 32.6285C39.4606 32.6348 39.6983 32.5424 39.875 32.3719C40.0523 32.1982 40.1515 31.9601 40.15 31.7119V14.121H42.1667V35.1585Z" fill="#687086"/>
<path d="M36.5749 12.5269C32.3911 12.6098 28.2947 13.738 24.6582 15.8085C24.2203 16.087 24.0911 16.6677 24.3695 17.1056C24.6479 17.5435 25.2286 17.6728 25.6666 17.3943C29.0015 15.5101 32.746 14.4687 36.5749 14.3602C37.0812 14.3602 37.4916 13.9497 37.4916 13.4435C37.4916 12.9373 37.0812 12.5269 36.5749 12.5269Z" fill="#687086"/>
<path d="M36.5756 16.3579C32.3918 16.4409 28.2953 17.5691 24.6589 19.6396C24.2613 19.953 24.1929 20.5293 24.5063 20.9269C24.76 21.2489 25.1967 21.3632 25.5756 21.2071C28.9394 19.315 32.7171 18.2792 36.5756 18.1912C37.0818 18.1912 37.4923 17.7808 37.4923 17.2746C37.4923 16.7683 37.0818 16.3579 36.5756 16.3579Z" fill="#687086"/>
<path d="M36.5756 20.144C32.3919 20.2275 28.2955 21.3555 24.6589 23.4257C24.2613 23.739 24.1929 24.3155 24.5063 24.7131C24.76 25.035 25.1967 25.1494 25.5756 24.9932C28.9394 23.1011 32.7171 22.0654 36.5756 21.9774C37.0818 21.9774 37.4923 21.5669 37.4923 21.0607C37.4923 20.5545 37.0818 20.144 36.5756 20.144Z" fill="#428DFF"/>
<path d="M36.5756 24.0122C32.3918 24.0952 28.2953 25.2234 24.6589 27.2939C24.2613 27.6071 24.1929 28.1836 24.5063 28.5812C24.76 28.9032 25.1967 29.0175 25.5756 28.8614C28.9394 26.9693 32.7171 25.9335 36.5756 25.8455C37.0818 25.8455 37.4923 25.4351 37.4923 24.9289C37.4923 24.4226 37.0818 24.0122 36.5756 24.0122Z" fill="#687086"/>
<path d="M19.5247 15.8266C15.8883 13.7561 11.7919 12.6279 7.60807 12.5449C7.10184 12.5449 6.69141 12.9554 6.69141 13.4616C6.69141 13.9678 7.10184 14.3783 7.60807 14.3783L7.68141 14.3599C11.5158 14.4698 15.266 15.5111 18.6081 17.3941C19.0761 17.5871 19.6119 17.364 19.8049 16.8959C19.9611 16.517 19.8467 16.0803 19.5247 15.8266Z" fill="#687086"/>
<path d="M19.5247 19.6396C15.8883 17.5691 11.7919 16.4409 7.60807 16.3579C7.10184 16.3579 6.69141 16.7683 6.69141 17.2746C6.69141 17.7808 7.10184 18.1912 7.60807 18.1912H7.68141C11.5143 18.2955 15.2643 19.3305 18.6081 21.2071C19.0761 21.4 19.6119 21.1769 19.8049 20.7089C19.9611 20.3299 19.8467 19.8933 19.5247 19.6396Z" fill="#428DFF"/>
<path d="M19.5247 23.4711C15.8882 21.4009 11.7917 20.2729 7.60807 20.1895C7.10184 20.1895 6.69141 20.5999 6.69141 21.1061C6.69141 21.6123 7.10184 22.0228 7.60807 22.0228L7.68141 21.9769C11.5182 22.0953 15.2684 23.1462 18.6081 25.0386C19.0761 25.2316 19.6119 25.0085 19.8049 24.5404C19.9611 24.1615 19.8467 23.7248 19.5247 23.4711Z" fill="#687086"/>
<path d="M19.5247 27.3032C15.8883 25.2326 11.7919 24.1044 7.60807 24.0215C7.10184 24.0215 6.69141 24.4319 6.69141 24.9382C6.69141 25.4444 7.10184 25.8548 7.60807 25.8548L7.68141 25.8457C11.5151 25.9528 15.2651 26.9909 18.6081 28.8707C19.0761 29.0636 19.6119 28.8405 19.8049 28.3724C19.9611 27.9935 19.8467 27.5568 19.5247 27.3032Z" fill="#687086"/>
</svg>
