<svg width="36" height="36" viewBox="0 0 36 36" fill="none" xmlns="http://www.w3.org/2000/svg">
<path d="M23.4001 1.3261V3.0001H12.6001V1.3261C12.6001 0.924098 12.7981 0.600098 13.0381 0.600098H22.9621C23.2021 0.600098 23.4001 0.924098 23.4001 1.3261Z" fill="white"/>
<path d="M21.6001 1.3261V3.0001H12.6001V1.3261C12.6001 0.924098 12.7981 0.600098 13.0381 0.600098H21.1621C21.4021 0.600098 21.6001 0.924098 21.6001 1.3261Z" fill="white"/>
<path d="M25.1998 3.6V6.6H10.7998V3.6C10.7998 3.26863 11.0684 3 11.3998 3H24.5998C24.9312 3 25.1998 3.26863 25.1998 3.6Z" fill="white"/>
<path d="M23.3998 3.6V6.6H10.7998V3.6C10.7998 3.26863 11.0684 3 11.3998 3H22.7998C23.1312 3 23.3998 3.26863 23.3998 3.6Z" fill="white"/>
<path d="M14.9997 6.6C15.9938 6.6 16.7997 5.79411 16.7997 4.8C16.7997 3.80589 15.9938 3 14.9997 3C14.0056 3 13.1997 3.80589 13.1997 4.8C13.1997 5.79411 14.0056 6.6 14.9997 6.6Z" fill="white"/>
<path d="M21.0002 6.6C21.9943 6.6 22.8002 5.79411 22.8002 4.8C22.8002 3.80589 21.9943 3 21.0002 3C20.0061 3 19.2002 3.80589 19.2002 4.8C19.2002 5.79411 20.0061 6.6 21.0002 6.6Z" fill="white"/>
<path d="M31.2003 7.2001V9.0001H4.80029V7.2001C4.80029 6.86873 5.06892 6.6001 5.40029 6.6001H30.6003C30.9317 6.6001 31.2003 6.86873 31.2003 7.2001Z" fill="white"/>
<path d="M29.4003 7.2001V9.0001H4.80029V7.2001C4.80029 6.86873 5.06892 6.6001 5.40029 6.6001H28.8003C29.1317 6.6001 29.4003 6.86873 29.4003 7.2001Z" fill="white"/>
<path d="M32.4001 9.6V11.4H3.6001V9.6C3.6001 9.26863 3.86873 9 4.2001 9H31.8001C32.1315 9 32.4001 9.26863 32.4001 9.6Z" fill="white"/>
<path d="M30.6001 9.6V11.4H3.6001V9.6C3.6001 9.26863 3.86873 9 4.2001 9H30.0001C30.3315 9 30.6001 9.26863 30.6001 9.6Z" fill="white"/>
<path d="M32.4001 13.8003V34.8003C32.4001 35.1317 32.1315 35.4003 31.8001 35.4003H25.2001C24.8687 35.4003 24.6001 35.1317 24.6001 34.8003V24.0003C24.6001 20.3552 21.6452 17.4003 18.0001 17.4003C17.6988 17.398 17.3978 17.42 17.1001 17.4663C13.8352 17.9157 11.4023 20.7046 11.4001 24.0003V34.8003C11.4001 35.1317 11.1315 35.4003 10.8001 35.4003H4.2001C3.86873 35.4003 3.6001 35.1317 3.6001 34.8003V13.8003H32.4001Z" fill="white"/>
<path d="M30.6001 13.8003V34.8003C30.6001 35.1317 30.3315 35.4003 30.0001 35.4003H25.2001C24.8687 35.4003 24.6001 35.1317 24.6001 34.8003V24.0003C24.6001 20.3552 21.6452 17.4003 18.0001 17.4003C17.6988 17.398 17.3978 17.42 17.1001 17.4663C16.8001 17.4003 18.3061 17.4003 18.0001 17.4003C14.355 17.4003 11.4001 20.3552 11.4001 24.0003V34.8003C11.4001 35.1317 11.1315 35.4003 10.8001 35.4003H4.2001C3.86873 35.4003 3.6001 35.1317 3.6001 34.8003V13.8003H30.6001Z" fill="white"/>
<path d="M9 22.2001V35.4001H6V22.2001C6 21.8687 6.26863 21.6001 6.6 21.6001H8.4C8.73137 21.6001 9 21.8687 9 22.2001Z" fill="white"/>
<path d="M7.5 19.2002C8.32842 19.2002 9 18.5286 9 17.7002C9 16.8718 8.32842 16.2002 7.5 16.2002C6.67157 16.2002 6 16.8718 6 17.7002C6 18.5286 6.67157 19.2002 7.5 19.2002Z" fill="white"/>
<path d="M30.0005 22.2001V35.4001H27.0005V22.2001C27.0005 21.8687 27.2691 21.6001 27.6005 21.6001H29.4005C29.7319 21.6001 30.0005 21.8687 30.0005 22.2001Z" fill="white"/>
<path d="M28.5005 19.2002C29.3289 19.2002 30.0005 18.5286 30.0005 17.7002C30.0005 16.8718 29.3289 16.2002 28.5005 16.2002C27.6721 16.2002 27.0005 16.8718 27.0005 17.7002C27.0005 18.5286 27.6721 19.2002 28.5005 19.2002Z" fill="white"/>
<path d="M18.0002 17.4003C18.4254 17.3994 18.8495 17.4416 19.2662 17.5263L19.8002 13.8003H16.2002L16.7342 17.5263C17.1509 17.4416 17.575 17.3994 18.0002 17.4003Z" fill="white"/>
<path d="M34.8181 11.3999H1.1821C0.860668 11.3999 0.600098 11.6605 0.600098 11.9819V13.2179C0.600098 13.5393 0.860668 13.7999 1.1821 13.7999H34.8181C35.1395 13.7999 35.4001 13.5393 35.4001 13.2179V11.9819C35.4001 11.6605 35.1395 11.3999 34.8181 11.3999Z" fill="white"/>
<path d="M33.0181 11.3999H1.1821C0.860668 11.3999 0.600098 11.6605 0.600098 11.9819V13.2179C0.600098 13.5393 0.860668 13.7999 1.1821 13.7999H33.0181C33.3395 13.7999 33.6001 13.5393 33.6001 13.2179V11.9819C33.6001 11.6605 33.3395 11.3999 33.0181 11.3999Z" fill="white"/>
<path d="M5.4001 9.6001C5.4001 9.26873 5.66873 9.0001 6.0001 9.0001H6.6001V7.2001C6.6001 6.86873 6.86873 6.6001 7.2001 6.6001H5.4001C5.06873 6.6001 4.8001 6.86873 4.8001 7.2001V9.0001H4.2001C3.86873 9.0001 3.6001 9.26873 3.6001 9.6001V11.4001H5.4001V9.6001Z" fill="white"/>
<path d="M12.5998 3.6001C12.5998 3.26873 12.8684 3.0001 13.1998 3.0001H14.3998V1.3261C14.3998 0.924098 14.5978 0.600098 14.8378 0.600098H13.0378C12.7978 0.600098 12.5998 0.924098 12.5998 1.3261V3.0001H11.3998C11.0684 3.0001 10.7998 3.26873 10.7998 3.6001V6.6001H12.5998V3.6001Z" fill="white"/>
<path d="M1.2001 13.7999H3.0001C2.66873 13.7999 2.4001 13.5313 2.4001 13.1999V11.9999C2.4001 11.6685 2.66873 11.3999 3.0001 11.3999H1.2001C0.868727 11.3999 0.600098 11.6685 0.600098 11.9999V13.1999C0.600098 13.5313 0.868727 13.7999 1.2001 13.7999Z" fill="white"/>
<path d="M4.2001 35.4003H6.0001C5.66873 35.4003 5.4001 35.1317 5.4001 34.8003V13.8003H3.6001V34.8003C3.6001 35.1317 3.86873 35.4003 4.2001 35.4003Z" fill="white"/>
<path d="M3 13.8003H4.2V18.6003H3V13.8003Z" fill="white"/>
<path d="M3.6 16.8001C3.26863 16.8001 3 16.5315 3 16.2001C3 15.8687 3.26863 15.6001 3.6 15.6001C3.93137 15.6001 4.2 15.8687 4.2 16.2001C4.2 16.5315 3.93137 16.8001 3.6 16.8001Z" fill="#687086"/>
<path d="M1.2 14.4H15.678L16.062 17.07C13.1677 17.881 11.0817 20.4047 10.83 23.4H9.6V22.2C9.6 21.5373 9.06274 21 8.4 21H6.6C5.93726 21 5.4 21.5373 5.4 22.2V23.4H4.2V18.6C4.2 18.2686 3.93137 18 3.6 18C3.26863 18 3 18.2686 3 18.6V23.4H1.8C1.46863 23.4 1.2 23.6686 1.2 24C1.2 24.3314 1.46863 24.6 1.8 24.6H3V28.2H1.8C1.46863 28.2 1.2 28.4686 1.2 28.8C1.2 29.1314 1.46863 29.4 1.8 29.4H3V34.8C3 35.4627 3.53726 36 4.2 36H10.8C11.4627 36 12 35.4627 12 34.8V24.6H13.2C13.5314 24.6 13.8 24.3314 13.8 24C13.8 23.6686 13.5314 23.4 13.2 23.4H12.03C12.2525 20.2587 14.8658 17.824 18.015 17.824C21.1642 17.824 23.7775 20.2587 24 23.4H22.8C22.4686 23.4 22.2 23.6686 22.2 24C22.2 24.3314 22.4686 24.6 22.8 24.6H24V34.8C24 35.4627 24.5373 36 25.2 36H31.8C32.4627 36 33 35.4627 33 34.8V29.4H34.2C34.5314 29.4 34.8 29.1314 34.8 28.8C34.8 28.4686 34.5314 28.2 34.2 28.2H33V24.6H34.2C34.5314 24.6 34.8 24.3314 34.8 24C34.8 23.6686 34.5314 23.4 34.2 23.4H33V14.4H34.8C35.4627 14.4 36 13.8627 36 13.2V12C36 11.3373 35.4627 10.8 34.8 10.8H33V9.6C33 8.93726 32.4627 8.4 31.8 8.4V7.2C31.8 6.53726 31.2627 6 30.6 6H25.8V3.6C25.8 2.93726 25.2627 2.4 24.6 2.4H24V1.2C24.0265 0.902106 23.931 0.606217 23.7353 0.380028C23.5396 0.153839 23.2606 0.0167051 22.962 0H13.038C12.7394 0.0167051 12.4604 0.153839 12.2647 0.380028C12.069 0.606217 11.9735 0.902106 12 1.2V2.4H11.4C10.7373 2.4 10.2 2.93726 10.2 3.6V6H5.4C4.73726 6 4.2 6.53726 4.2 7.2V8.4C3.53726 8.4 3 8.93726 3 9.6V10.8H1.2C0.537258 10.8 0 11.3373 0 12V13.2C0 13.8627 0.537258 14.4 1.2 14.4ZM6.6 22.2H8.4V23.4H6.6V22.2ZM8.4 28.2H6.6V24.6H8.4V28.2ZM4.2 24.6H5.4V28.2H4.2V24.6ZM4.2 29.4H5.4V34.8H4.2V29.4ZM6.6 34.8V29.4H8.4V34.8H6.6ZM10.8 34.8H9.6V24.6H10.8V34.8ZM16.89 14.4H19.11L18.762 16.842C18.2556 16.785 17.7444 16.785 17.238 16.842L16.89 14.4ZM25.2 24.6H26.4V34.8H25.2V24.6ZM27.6 22.2H29.4V23.4H27.6V22.2ZM29.4 24.6V28.2H27.6V24.6H29.4ZM27.6 34.8V29.4H29.4V34.8H27.6ZM31.8 34.8H30.6V29.4H31.8V34.8ZM31.8 28.2H30.6V24.6H31.8V28.2ZM31.8 23.4H30.6V22.2C30.6 21.5373 30.0627 21 29.4 21H27.6C26.9373 21 26.4 21.5373 26.4 22.2V23.4H25.2C24.9483 20.4047 22.8623 17.881 19.968 17.07L20.322 14.4H31.8V23.4ZM24.6 6H23.064C23.5136 5.26316 23.5136 4.33684 23.064 3.6H24.6V6ZM13.8 4.8C13.8 4.13726 14.3373 3.6 15 3.6C15.6627 3.6 16.2 4.13726 16.2 4.8C16.2 5.46274 15.6627 6 15 6C14.3373 6 13.8 5.46274 13.8 4.8ZM22.2 4.8C22.2 5.46274 21.6627 6 21 6C20.3373 6 19.8 5.46274 19.8 4.8C19.8 4.13726 20.3373 3.6 21 3.6C21.6627 3.6 22.2 4.13726 22.2 4.8ZM18.936 6H17.064C17.5136 5.26316 17.5136 4.33684 17.064 3.6H18.936C18.4864 4.33684 18.4864 5.26316 18.936 6ZM13.2 1.2H22.8V2.4H13.2V1.2ZM11.4 3.6H12.954C12.5044 4.33684 12.5044 5.26316 12.954 6H11.4V3.6ZM5.4 7.2H30.6V8.4H5.4V7.2ZM4.2 9.6H31.8V10.8H4.2V9.6ZM34.8 12V13.2H1.2V12H34.8Z" fill="#687086"/>
<path d="M7.50039 19.8001C8.66019 19.8001 9.60039 18.8599 9.60039 17.7001C9.60039 16.5403 8.66019 15.6001 7.50039 15.6001C6.34059 15.6001 5.40039 16.5403 5.40039 17.7001C5.40039 18.8599 6.34059 19.8001 7.50039 19.8001ZM7.50039 16.8001C7.99745 16.8001 8.40039 17.203 8.40039 17.7001C8.40039 18.1972 7.99745 18.6001 7.50039 18.6001C7.00333 18.6001 6.60039 18.1972 6.60039 17.7001C6.60039 17.203 7.00333 16.8001 7.50039 16.8001Z" fill="#428DFF"/>
<path d="M28.4999 19.8001C29.6597 19.8001 30.5999 18.8599 30.5999 17.7001C30.5999 16.5403 29.6597 15.6001 28.4999 15.6001C27.3401 15.6001 26.3999 16.5403 26.3999 17.7001C26.3999 18.8599 27.3401 19.8001 28.4999 19.8001ZM28.4999 16.8001C28.997 16.8001 29.3999 17.203 29.3999 17.7001C29.3999 18.1972 28.997 18.6001 28.4999 18.6001C28.0028 18.6001 27.5999 18.1972 27.5999 17.7001C27.5999 17.203 28.0028 16.8001 28.4999 16.8001Z" fill="#428DFF"/>
</svg>
