<svg width="40" height="40" viewBox="0 0 40 40" fill="none" xmlns="http://www.w3.org/2000/svg">
<path d="M14.8438 15.1562C15.3615 15.1562 15.7812 14.7365 15.7812 14.2188C15.7812 13.701 15.3615 13.2812 14.8438 13.2812C14.326 13.2812 13.9062 13.701 13.9062 14.2188C13.9062 14.7365 14.326 15.1562 14.8438 15.1562Z" fill="#687086"/>
<path d="M26.3337 19.9163C26.1872 19.7698 25.9885 19.6875 25.7812 19.6875H17.1875V18.125H19.5312C19.9627 18.125 20.3125 17.7752 20.3125 17.3438V11.0938C20.3125 10.6623 19.9627 10.3125 19.5312 10.3125H17.1875V7.96875C17.1875 7.53734 16.8377 7.1875 16.4062 7.1875H13.2812C12.8497 7.1875 12.5 7.53734 12.5 7.96875V10.3125H3.90623C3.69904 10.3125 3.50029 10.3948 3.35381 10.5413L0.228809 13.6663C-0.0762695 13.9714 -0.0762695 14.4661 0.228809 14.7713L3.35381 17.8963C3.50029 18.0427 3.69904 18.125 3.90623 18.125H12.5V19.6875H10.1562C9.72475 19.6875 9.37498 20.0373 9.37498 20.4688V26.7188C9.37498 27.1502 9.72475 27.5 10.1562 27.5H12.5V38.4375H7.03123C6.59975 38.4375 6.24998 38.7873 6.24998 39.2188C6.24998 39.6502 6.59975 40 7.03123 40H22.6562C23.0876 40 23.4375 39.6502 23.4375 39.2188C23.4375 38.7873 23.0876 38.4375 22.6562 38.4375H17.1875V27.5H25.7812C25.9884 27.5 26.1871 27.4177 26.3337 27.2712L29.4587 24.1462C29.7637 23.8411 29.7637 23.3464 29.4587 23.0413L26.3337 19.9163ZM14.0625 8.75H15.625V10.3125H14.0625V8.75ZM1.88607 14.2188L4.22982 11.875H18.75V16.5625H4.22982L1.88607 14.2188ZM14.0625 18.125H15.625V19.6875H14.0625V18.125ZM15.625 38.4375H14.0625V27.5H15.625V38.4375ZM25.4576 25.9375H10.9375V21.25H25.4576L27.8013 23.5938L25.4576 25.9375Z" fill="#687086"/>
<path d="M14.8438 24.5312C15.3615 24.5312 15.7812 24.1115 15.7812 23.5938C15.7812 23.076 15.3615 22.6562 14.8438 22.6562C14.326 22.6562 13.9062 23.076 13.9062 23.5938C13.9062 24.1115 14.326 24.5312 14.8438 24.5312Z" fill="#687086"/>
<path d="M30.625 9.375L32.1875 13.2812L34.5313 5.46875L26.7188 7.8125L30.625 9.375Z" fill="#428DFF"/>
<path d="M31.4063 0C26.6677 0 22.8125 3.85516 22.8125 8.59375V17.1875C22.8125 17.4805 22.9765 17.7489 23.2371 17.8826C23.3495 17.9402 23.4719 17.9688 23.5937 17.9688C23.7543 17.9688 23.9141 17.9193 24.0494 17.8221L26.7983 15.8486C28.1741 16.7264 29.7555 17.1875 31.4063 17.1875C36.1448 17.1875 40 13.3323 40 8.59375C40 3.85516 36.1449 0 31.4063 0ZM31.4063 15.625C29.898 15.625 28.4609 15.1547 27.2502 14.265C26.9774 14.0646 26.6067 14.0626 26.3319 14.26L24.375 15.6648V8.59375C24.375 4.71672 27.5292 1.5625 31.4063 1.5625C35.2833 1.5625 38.4375 4.71672 38.4375 8.59375C38.4375 12.4708 35.2833 15.625 31.4063 15.625Z" fill="#687086"/>
</svg>
