<svg width="14" height="14" viewBox="0 0 14 14" fill="none" xmlns="http://www.w3.org/2000/svg">
<path d="M5.66667 13H8.33333M11.6667 13V2.33333C11.6667 1.97971 11.5262 1.64057 11.2761 1.39052C11.0261 1.14048 10.687 1 10.3333 1H3.66667C3.31304 1 2.97391 1.14048 2.72386 1.39052C2.47381 1.64057 2.33333 1.97971 2.33333 2.33333V13H11.6667ZM11.6667 13H13H11.6667ZM11.6667 13H8.33333H11.6667ZM2.33333 13H1H2.33333ZM2.33333 13H5.66667H2.33333ZM5 3.66667H5.66667H5ZM5 6.33333H5.66667H5ZM8.33333 3.66667H9H8.33333ZM8.33333 6.33333H9H8.33333ZM5.66667 13V9.66667C5.66667 9.48986 5.7369 9.32029 5.86193 9.19526C5.98695 9.07024 6.15652 9 6.33333 9H7.66667C7.84348 9 8.01305 9.07024 8.13807 9.19526C8.2631 9.32029 8.33333 9.48986 8.33333 9.66667V13H5.66667Z" stroke="#687086" stroke-linecap="round" stroke-linejoin="round"/>
</svg>
