<svg width="36" height="36" viewBox="0 0 36 36" fill="none" xmlns="http://www.w3.org/2000/svg">
<path d="M13.1997 17.3999H22.7997V19.7999H13.1997V17.3999Z" fill="white"/>
<path d="M7.80029 17.3999H11.4003V35.3999H7.80029V17.3999Z" fill="white"/>
<path d="M0.600098 19.8003H6.0001V26.4003H0.600098V19.8003Z" fill="white"/>
<path d="M0.600098 26.3999H7.8001V28.7999H0.600098V26.3999Z" fill="white"/>
<path d="M7.8001 17.3999V19.7999H0.600098V17.9999C0.600098 17.6685 0.868727 17.3999 1.2001 17.3999H7.8001Z" fill="white"/>
<path d="M0.600098 26.3999H6.0001V28.7999H0.600098V26.3999Z" fill="white"/>
<path d="M6.0001 17.3999V19.7999H0.600098V17.9999C0.600098 17.6685 0.868727 17.3999 1.2001 17.3999H6.0001Z" fill="white"/>
<path d="M20.4001 29.154V35.4H15.6001V29.154C15.6001 27.954 15.9601 27.15 17.1001 26.052C17.2501 25.908 17.4181 25.752 17.5981 25.596C17.8265 25.3899 18.1737 25.3899 18.4021 25.596C19.9381 26.94 20.4001 27.804 20.4001 29.154Z" fill="white"/>
<path d="M18.6001 29.1543V35.4003H15.6001V29.1543C15.6001 27.9543 15.9601 27.1502 17.1001 26.0522C18.2401 27.1502 18.6001 27.9603 18.6001 29.1543Z" fill="white"/>
<path d="M6.6001 15H29.4001V17.4H6.6001V15Z" fill="white"/>
<path d="M6.6001 15H27.6001V17.4H6.6001V15Z" fill="white"/>
<path d="M28.2002 19.8003H33.6002V26.4003H28.2002V19.8003Z" fill="white"/>
<path d="M28.2002 26.3999H35.4002V28.7999H28.2002V26.3999Z" fill="white"/>
<path d="M28.2002 26.3999H33.6002V28.7999H28.2002V26.3999Z" fill="white"/>
<path d="M35.4002 9.6V10.8C35.4002 11.1314 35.1316 11.4 34.8002 11.4H28.8002C28.4688 11.4 28.2002 11.1314 28.2002 10.8V9.6C28.2002 9.26863 28.4688 9 28.8002 9H34.8002C35.1316 9 35.4002 9.26863 35.4002 9.6Z" fill="white"/>
<path d="M33.6002 9.6V10.8C33.6002 11.1314 33.3316 11.4 33.0002 11.4H28.8002C28.4688 11.4 28.2002 11.1314 28.2002 10.8V9.6C28.2002 9.26863 28.4688 9 28.8002 9H33.0002C33.3316 9 33.6002 9.26863 33.6002 9.6Z" fill="white"/>
<path d="M35.4002 6.28204C35.3969 7.78178 34.1819 8.99674 32.6822 9.00004H30.8822C29.3952 8.98034 28.2001 7.7692 28.2002 6.28204C28.2002 4.24204 29.7362 3.58804 30.6002 2.20804C30.7082 2.03404 30.8102 1.86604 30.9002 1.69804C31.0442 1.44004 31.1642 1.19404 31.2722 0.960035C31.3769 0.765981 31.5797 0.64502 31.8002 0.64502C32.0207 0.64502 32.2234 0.765981 32.3282 0.960035C32.5237 1.39271 32.7482 1.81166 33.0002 2.21404C33.8642 3.60004 35.4002 4.24204 35.4002 6.28204Z" fill="white"/>
<path d="M33.6002 6.28224C33.5971 7.76808 32.4039 8.97734 30.9182 9.00024H30.8822C29.3952 8.98055 28.2001 7.76941 28.2002 6.28224C28.2002 4.24224 29.7362 3.58824 30.6002 2.20824C30.7082 2.03424 30.8102 1.86624 30.9002 1.69824C30.9902 1.86624 31.0922 2.03424 31.2002 2.21424C32.0642 3.60024 33.6002 4.24224 33.6002 6.28224Z" fill="white"/>
<path d="M7.8001 9.6V10.8C7.8001 11.1314 7.53147 11.4 7.2001 11.4H1.2001C0.868727 11.4 0.600098 11.1314 0.600098 10.8V9.6C0.600098 9.26863 0.868727 9 1.2001 9H7.2001C7.53147 9 7.8001 9.26863 7.8001 9.6Z" fill="white"/>
<path d="M6.0001 9.6V10.8C6.0001 11.1314 5.73147 11.4 5.4001 11.4H1.2001C0.868727 11.4 0.600098 11.1314 0.600098 10.8V9.6C0.600098 9.26863 0.868727 9 1.2001 9H5.4001C5.73147 9 6.0001 9.26863 6.0001 9.6Z" fill="white"/>
<path d="M7.8001 6.28204C7.7968 7.78178 6.58184 8.99674 5.0821 9.00004H3.2821C1.79507 8.98034 0.599967 7.7692 0.600098 6.28204C0.600098 4.24204 2.1361 3.60004 3.0001 2.20804C3.1081 2.03404 3.2101 1.86604 3.3001 1.69804C3.4441 1.44004 3.5641 1.19404 3.6721 0.960035C3.77684 0.765981 3.97958 0.64502 4.2001 0.64502C4.42061 0.64502 4.62336 0.765981 4.7281 0.960035C4.92357 1.39271 5.14808 1.81166 5.4001 2.21404C6.2641 3.60004 7.8001 4.24204 7.8001 6.28204Z" fill="white"/>
<path d="M6.0001 6.28224C5.997 7.76808 4.80376 8.97734 3.3181 9.00024H3.2821C1.79507 8.98055 0.599967 7.76941 0.600098 6.28224C0.600098 4.24224 2.1361 3.60024 3.0001 2.20824C3.1081 2.03424 3.2101 1.86624 3.3001 1.69824C3.3901 1.86624 3.4921 2.03424 3.6001 2.21424C4.4641 3.60024 6.0001 4.24224 6.0001 6.28224Z" fill="white"/>
<path d="M3.2821 8.9999H5.08209C3.59506 8.9802 2.39997 7.76906 2.4001 6.2819C2.4001 4.1999 3.8461 3.84589 5.09409 1.68589C4.95609 1.43389 4.83009 1.18789 4.72809 0.965895C4.62336 0.771841 4.42061 0.650879 4.20009 0.650879C3.97958 0.650879 3.77683 0.771841 3.6721 0.965895C2.3581 3.80389 0.600098 3.9539 0.600098 6.2819C0.599967 7.76906 1.79506 8.9802 3.2821 8.9999Z" fill="white"/>
<path d="M2.4001 18C2.4001 17.6686 2.66873 17.4 3.0001 17.4H3.6001V11.4H3.0001C2.66873 11.4 2.4001 11.1314 2.4001 10.8V9.6C2.4001 9.26863 2.66873 9 3.0001 9H1.2001C0.868727 9 0.600098 9.26863 0.600098 9.6V10.8C0.600098 11.1314 0.868727 11.4 1.2001 11.4H1.8001V17.4H1.2001C0.868727 17.4 0.600098 17.6686 0.600098 18V35.4H2.4001V18Z" fill="white"/>
<path d="M0 30.6001H1.2V35.4001H0V30.6001Z" fill="white"/>
<path d="M0.6 33.5999C0.268629 33.5999 0 33.3313 0 32.9999C0 32.6685 0.268629 32.3999 0.6 32.3999C0.931371 32.3999 1.2 32.6685 1.2 32.9999C1.2 33.3313 0.931371 33.5999 0.6 33.5999Z" fill="#687086"/>
<path d="M2.9999 22.2002C2.66853 22.2002 2.3999 22.4688 2.3999 22.8002V24.0002C2.3999 24.3316 2.66853 24.6002 2.9999 24.6002C3.33127 24.6002 3.5999 24.3316 3.5999 24.0002V22.8002C3.5999 22.4688 3.33127 22.2002 2.9999 22.2002Z" fill="#428DFF"/>
<path d="M5.40029 22.2002C5.06892 22.2002 4.80029 22.4688 4.80029 22.8002V24.0002C4.80029 24.3316 5.06892 24.6002 5.40029 24.6002C5.73167 24.6002 6.00029 24.3316 6.00029 24.0002V22.8002C6.00029 22.4688 5.73167 22.2002 5.40029 22.2002Z" fill="#428DFF"/>
<path d="M10.7997 28.2002C10.4683 28.2002 10.1997 28.4688 10.1997 28.8002V33.0002C10.1997 33.3316 10.4683 33.6002 10.7997 33.6002C11.1311 33.6002 11.3997 33.3316 11.3997 33.0002V28.8002C11.3997 28.4688 11.1311 28.2002 10.7997 28.2002Z" fill="#687086"/>
<path d="M25.2001 28.2002C24.8687 28.2002 24.6001 28.4688 24.6001 28.8002V33.0002C24.6001 33.3316 24.8687 33.6002 25.2001 33.6002C25.5315 33.6002 25.8001 33.3316 25.8001 33.0002V28.8002C25.8001 28.4688 25.5315 28.2002 25.2001 28.2002Z" fill="#687086"/>
<path d="M10.7997 21.6001C10.4683 21.6001 10.1997 21.8687 10.1997 22.2001V24.0001C10.1997 24.3315 10.4683 24.6001 10.7997 24.6001C11.1311 24.6001 11.3997 24.3315 11.3997 24.0001V22.2001C11.3997 21.8687 11.1311 21.6001 10.7997 21.6001Z" fill="#428DFF"/>
<path d="M25.2001 21.6001C24.8687 21.6001 24.6001 21.8687 24.6001 22.2001V24.0001C24.6001 24.3315 24.8687 24.6001 25.2001 24.6001C25.5315 24.6001 25.8001 24.3315 25.8001 24.0001V22.2001C25.8001 21.8687 25.5315 21.6001 25.2001 21.6001Z" fill="#428DFF"/>
<path d="M30.6 24.6002C30.9314 24.6002 31.2 24.3316 31.2 24.0002V22.8002C31.2 22.4688 30.9314 22.2002 30.6 22.2002C30.2686 22.2002 30 22.4688 30 22.8002V24.0002C30 24.3316 30.2686 24.6002 30.6 24.6002Z" fill="#428DFF"/>
<path d="M32.9999 24.6002C33.3313 24.6002 33.5999 24.3316 33.5999 24.0002V22.8002C33.5999 22.4688 33.3313 22.2002 32.9999 22.2002C32.6685 22.2002 32.3999 22.4688 32.3999 22.8002V24.0002C32.3999 24.3316 32.6685 24.6002 32.9999 24.6002Z" fill="#428DFF"/>
<path d="M34.41 3.00004C33.7485 2.35455 33.2258 1.58073 32.874 0.726037C32.671 0.31874 32.2551 0.0613164 31.8 0.0613164C31.3449 0.0613164 30.929 0.31874 30.726 0.726037C30.5411 1.13982 30.3286 1.54073 30.09 1.92604C29.304 3.15004 27.6 3.98404 27.6 6.28204C27.5983 7.08704 27.8931 7.8645 28.428 8.46604C27.9366 8.62626 27.603 9.08316 27.6 9.60004V10.8C27.6 11.4628 28.1373 12 28.8 12V14.4H7.20001V12C7.86275 12 8.40001 11.4628 8.40001 10.8V9.60004C8.40223 9.07874 8.06763 8.61564 7.57201 8.45404C8.10422 7.85559 8.39878 7.08291 8.40001 6.28204C8.40001 4.66804 7.55401 3.77404 6.81001 3.00004C6.14714 2.35104 5.62437 1.57302 5.27401 0.714037C5.07101 0.30674 4.65509 0.0493164 4.20001 0.0493164C3.74493 0.0493164 3.329 0.30674 3.12601 0.714037C2.94111 1.12782 2.72863 1.52873 2.49001 1.91404C1.70401 3.15004 7.39882e-06 3.98404 7.39882e-06 6.28204C-0.00170259 7.08704 0.293046 7.8645 0.828007 8.46604C0.336584 8.62626 0.00297531 9.08316 7.39882e-06 9.60004V10.8C7.39882e-06 11.4628 0.537266 12 1.20001 12V16.8H0.600007C0.268637 16.8 7.39882e-06 17.0687 7.39882e-06 17.4V30.6C7.39882e-06 30.9314 0.268637 31.2 0.600007 31.2C0.931378 31.2 1.20001 30.9314 1.20001 30.6V29.4H7.20001V34.8H0.600007C0.268637 34.8 7.39882e-06 35.0687 7.39882e-06 35.4C7.39882e-06 35.7314 0.268637 36 0.600007 36H35.4C35.7314 36 36 35.7314 36 35.4V17.4C36 17.0687 35.7314 16.8 35.4 16.8H34.8V12C35.4628 12 36 11.4628 36 10.8V9.60004C36.0022 9.07874 35.6676 8.61564 35.172 8.45404C35.7042 7.85559 35.9988 7.08291 36 6.28204C36 4.66804 35.154 3.77404 34.41 3.00004ZM31.8 1.20004C32.2011 2.17689 32.7926 3.06413 33.54 3.81004C34.242 4.55404 34.8 5.14204 34.8 6.28204C34.8 7.45178 33.8518 8.40004 32.682 8.40004H30.918C29.7483 8.40004 28.8 7.45178 28.8 6.28204C28.8 4.20004 30.762 3.90604 31.8 1.20004ZM34.8 18V19.2H28.8V18H34.8ZM34.8 28.2H28.8V27H34.8V28.2ZM7.20001 18V19.2H1.20001V18H7.20001ZM12.6 18V19.2H8.40001V18H12.6ZM22.2 18V19.2H13.8V18H22.2ZM27.6 18V19.2H23.4V18H27.6ZM34.8 25.8H28.8V20.4H34.8V25.8ZM1.20001 20.4H7.20001V25.8H1.20001V20.4ZM8.40001 20.4H12.6V25.8H8.40001V20.4ZM13.8 20.4H22.2V22.2H13.8V20.4ZM23.4 20.4H27.6V25.8H23.4V20.4ZM28.8 15.6V16.8H7.20001V15.6H28.8ZM1.20001 10.8V9.60004H7.20001V10.8H1.20001ZM4.20001 1.20004C4.60105 2.17689 5.19255 3.06413 5.94001 3.81004C6.64201 4.55404 7.20001 5.14204 7.20001 6.28204C7.20001 7.45178 6.25175 8.40004 5.08201 8.40004H3.31801C2.14827 8.40004 1.20001 7.45178 1.20001 6.28204C1.20001 4.20004 3.16201 3.90604 4.20001 1.20004ZM2.40001 12H6.00001V16.8H2.40001V12ZM1.20001 28.2V27H7.20001V28.2H1.20001ZM8.40001 27H12.6V34.8H8.40001V27ZM13.8 23.4H22.2V34.8H21V29.154C21 27.6 20.442 26.586 18.798 25.146C18.3431 24.741 17.6569 24.741 17.202 25.146C15.558 26.586 15 27.6 15 29.154V34.8H13.8V23.4ZM16.2 34.8V29.154C16.2 28.11 16.47 27.354 18 26.046C19.524 27.384 19.8 28.11 19.8 29.154V34.8H16.2ZM23.4 27H27.6V34.8H23.4V27ZM28.8 34.8V29.4H34.8V34.8H28.8ZM33.6 16.8H30V12H33.6V16.8ZM28.8 10.8V9.60004H34.8V10.8H28.8Z" fill="#687086"/>
</svg>
