<svg width="44" height="36" viewBox="0 0 44 36" fill="none" xmlns="http://www.w3.org/2000/svg">
<path d="M15.6008 20.507C15.7273 20.5732 15.8657 20.6059 16.0036 20.6059C16.1791 20.6059 16.3541 20.5529 16.503 20.4484C16.7689 20.2619 16.9074 19.943 16.8618 19.6225L16.1917 14.9142C17.2077 13.4967 17.7939 11.7752 17.8499 10.0255C17.912 8.0863 17.3497 6.22123 16.2241 4.63202C14.8506 2.69204 12.8001 1.40024 10.4504 0.994744C8.10063 0.589254 5.73287 1.11856 3.78337 2.48536C-0.241183 5.30695 -1.20893 10.8604 1.62607 14.8651C2.75152 16.4552 4.32761 17.6099 6.18378 18.2041C7.85777 18.74 9.68412 18.7702 11.3681 18.2959L15.6008 20.507ZM3.04336 13.8718C0.758704 10.6446 1.53859 6.16924 4.78188 3.89535C6.35291 2.79397 8.26099 2.36753 10.1542 2.69427C12.0478 3.02109 13.7001 4.06201 14.807 5.62557C16.6185 8.1831 16.5335 11.6895 14.6003 14.1527C14.4555 14.3373 14.3922 14.5725 14.4252 14.8044L14.9081 18.1971L11.8583 16.6037C11.7328 16.5382 11.5944 16.5049 11.4555 16.5049C11.3639 16.5049 11.2722 16.5193 11.1836 16.5485C8.15296 17.5449 4.88174 16.4692 3.04336 13.8718Z" fill="#687086"/>
<path d="M8.749 4.28809C7.29562 4.28809 6.11328 5.46471 6.11328 6.91095V7.25248C6.11328 7.72877 6.50129 8.11494 6.97997 8.11494C7.45864 8.11494 7.84665 7.72877 7.84665 7.25248V6.91095C7.84665 6.42422 8.25984 6.013 8.74891 6.013C9.23798 6.013 9.65117 6.42422 9.65117 6.91095V7.25248C9.65117 7.38468 9.37179 7.7168 9.18685 7.93665C8.77676 8.42414 8.26646 9.03084 8.26646 9.86183V10.9392C8.26646 11.4155 8.65447 11.8016 9.13314 11.8016C9.61181 11.8016 9.99982 11.4156 9.99982 10.9392V9.86183C9.99982 9.65746 10.2741 9.33141 10.5161 9.04375C10.903 8.58379 11.3845 8.0113 11.3845 7.25256V6.91103C11.3847 5.46471 10.2023 4.28809 8.749 4.28809Z" fill="#428DFF"/>
<path d="M9.13621 13.3716C8.65754 13.3716 8.26953 13.7577 8.26953 14.234V14.2364C8.26953 14.7127 8.65754 15.0977 9.13621 15.0977C9.61489 15.0977 10.0029 14.7104 10.0029 14.234C10.003 13.7577 9.61489 13.3716 9.13621 13.3716Z" fill="#428DFF"/>
<path d="M43.8128 32.0123C42.8411 27.6433 40.7325 22.5033 33.0669 21.0991V17.8734C34.7724 16.1476 35.7445 14.2183 35.7445 12.5384V10.4659C36.4266 10.0871 37.2728 9.48856 37.9315 8.25498C38.8193 6.59214 39.1621 4.15868 38.9792 0.815562C38.9639 0.534745 38.8118 0.278983 38.5719 0.130366C38.332 -0.0183373 38.0344 -0.0412543 37.7742 0.0689688C34.6806 1.37976 31.7055 0.998383 29.0808 0.661985C27.4731 0.455904 26.0845 0.278042 24.8416 0.496436C23.4242 0.745614 22.4153 1.49221 21.7655 2.77529C19.3563 4.26916 19.3562 7.15352 19.3562 9.94587V12.5384C19.3562 14.2231 20.3339 16.1586 22.0484 17.8881V21.0991C14.3826 22.5033 12.2741 27.6432 11.3025 32.0117C11.0853 32.9848 10.924 34.2109 11.6098 35.0613C12.2806 35.8933 13.4512 36 14.3962 36H19.6863C20.165 36 20.553 35.6138 20.553 35.1375C20.553 34.6612 20.165 34.2751 19.6863 34.2751H14.3962C13.3539 34.2751 13.0502 34.0914 12.9619 33.9819C12.8674 33.8646 12.7458 33.5013 12.9949 32.385C13.7386 29.0412 15.1063 25.55 19.2321 23.7312L22.9744 29.4446C23.1206 29.6679 23.3624 29.8114 23.6295 29.8332C23.6533 29.8352 23.677 29.8361 23.7005 29.8361C23.9425 29.8361 24.1748 29.7352 24.3397 29.5561L27.5575 26.0591L30.7754 29.5561C30.9402 29.7353 31.1726 29.8361 31.4146 29.8361C31.4381 29.8361 31.4618 29.8352 31.4855 29.8332C31.7526 29.8114 31.9945 29.6679 32.1407 29.4446L35.883 23.7312C40.0088 25.55 41.3766 29.0413 42.1203 32.3856C42.3693 33.5013 42.2478 33.8646 42.1532 33.9819C42.0649 34.0913 41.7612 34.275 40.7189 34.275H27.9999C27.5212 34.275 27.1332 34.6611 27.1332 35.1375C27.1332 35.6137 27.5213 35.9999 27.9999 35.9999H40.719C41.664 35.9999 42.8347 35.8932 43.5055 35.0613C44.1913 34.2108 44.0299 32.9847 43.8128 32.0123ZM22.8492 4.14235C23.0168 4.05145 23.1494 3.90805 23.2267 3.73446C24.0669 1.8469 25.6479 1.96106 28.8594 2.37271C31.2635 2.68089 34.1907 3.05594 37.2899 2.08368C37.3253 4.47191 37.0271 6.27225 36.4006 7.44554C35.8932 8.39573 35.2573 8.77796 34.6744 9.0799C30.0531 8.99542 27.2274 8.32621 24.9548 6.78488C24.8063 6.68415 24.6361 6.63507 24.467 6.63507C24.2339 6.63507 24.0027 6.72845 23.8336 6.90853C22.9471 7.85197 22.1955 8.3251 21.099 8.74034C21.1453 6.4266 21.4108 4.92306 22.8492 4.14235ZM21.0897 12.5384V10.5752C22.3535 10.1572 23.4315 9.67394 24.5869 8.59839C26.9311 10.0017 29.7633 10.658 34.0111 10.7891V12.5384C34.0111 13.8148 33.1142 15.438 31.6118 16.8806C30.2294 18.2081 28.5973 19.0999 27.5504 19.0999C26.5035 19.0999 24.8713 18.208 23.4889 16.8806C21.9867 15.438 21.0897 13.8148 21.0897 12.5384ZM23.8163 27.5707L20.9089 23.1321C21.4722 22.9725 22.076 22.8385 22.7244 22.733L26.2219 24.9562L23.8163 27.5707ZM23.7819 21.3585V19.3572C25.1044 20.2848 26.4593 20.8249 27.5505 20.8249C28.6456 20.8249 30.0064 20.2808 31.3334 19.3469V21.3585L27.5577 23.7585L23.7819 21.3585ZM31.2991 27.5708L28.8933 24.9562L32.391 22.733C33.0393 22.8385 33.6432 22.9725 34.2064 23.1321L31.2991 27.5708Z" fill="#687086"/>
<path d="M23.8432 34.2749C23.3646 34.2749 22.9766 34.661 22.9766 35.1374C22.9766 35.6137 23.3646 35.9998 23.8432 35.9998H23.8481C24.3268 35.9998 24.7124 35.6137 24.7124 35.1374C24.7124 34.661 24.3219 34.2749 23.8432 34.2749Z" fill="#687086"/>
</svg>
