<svg width="14" height="14" viewBox="0 0 14 14" fill="none" xmlns="http://www.w3.org/2000/svg">
<path d="M5.8335 7.58348C6.34039 8.26113 7.11661 8.68522 7.96071 8.74567C8.8048 8.80612 9.63354 8.49698 10.2318 7.89848L11.9818 6.14848C13.0872 5.00404 13.0714 3.1849 11.9463 2.05984C10.8212 0.934782 9.0021 0.918974 7.85766 2.02431L6.85433 3.02181" stroke="#1E2432" stroke-width="1.5" stroke-linecap="round" stroke-linejoin="round"/>
<path d="M8.16678 6.41673C7.65989 5.73907 6.88367 5.31498 6.03957 5.25453C5.19547 5.19408 4.36674 5.50322 3.76845 6.10173L2.01845 7.85173C0.913115 8.99616 0.928923 10.8153 2.05398 11.9404C3.17904 13.0654 4.99818 13.0812 6.14262 11.9759L7.14012 10.9784" stroke="#1E2432" stroke-width="1.5" stroke-linecap="round" stroke-linejoin="round"/>
</svg>
