<svg width="269" height="216" viewBox="0 0 269 216" fill="none" xmlns="http://www.w3.org/2000/svg">
<g clip-path="url(#clip0)">
<path d="M220.268 212.664C220.268 212.003 220.488 211.122 221.148 210.681C221.589 210.241 222.469 209.8 223.13 209.8C223.79 209.8 224.671 210.02 225.111 210.681C226.212 211.783 226.212 213.546 225.111 214.647C224.671 215.088 223.79 215.529 223.13 215.529C222.469 215.529 221.809 215.308 221.149 214.647C220.488 214.207 220.268 213.546 220.268 212.664Z" fill="white" fill-opacity="0.8"/>
<path d="M54.7172 210.027C56.2583 210.027 57.359 211.349 57.3591 212.671C57.3591 214.213 56.0383 215.315 54.7174 215.315C53.1764 215.315 52.0756 213.993 52.0756 212.671C51.8553 211.129 53.1762 210.027 54.7172 210.027ZM88.3997 210.026C89.9407 210.026 91.0415 211.348 91.0415 212.67C91.0416 214.212 89.7208 215.314 88.3999 215.314C86.8588 215.314 85.7581 213.992 85.758 212.67C85.5378 211.128 86.8587 210.026 88.3997 210.026ZM122.082 210.025C123.623 210.024 124.724 211.346 124.724 212.668C124.724 214.211 123.403 215.313 122.082 215.313C120.541 215.313 119.441 213.991 119.44 212.669C119.22 211.126 120.541 210.025 122.082 210.025ZM155.765 210.023C157.306 210.023 158.406 211.345 158.406 212.667C158.407 214.21 157.086 215.311 155.765 215.311C154.224 215.311 153.123 213.989 153.123 212.667C152.903 211.125 154.224 210.023 155.765 210.023ZM189.447 210.022C190.988 210.022 192.089 211.344 192.089 212.666C192.089 214.208 190.768 215.31 189.447 215.31C187.906 215.31 186.805 213.988 186.805 212.666C186.585 211.124 187.906 210.022 189.447 210.022Z" fill="white" fill-opacity="0.8"/>
<path d="M18.3934 212.671C18.3933 212.01 18.6134 211.128 19.2739 210.688C19.494 210.467 19.9343 210.247 20.1544 210.027C20.5947 209.806 20.8149 209.806 21.2552 209.806C21.9156 209.806 22.5761 210.027 23.2365 210.688C23.897 211.349 24.1172 212.23 23.8971 213.111C23.8971 213.332 23.8971 213.552 23.6769 213.552C23.6769 213.772 23.4568 213.772 23.4568 213.993C23.4568 214.213 23.2367 214.213 23.0165 214.433C22.5762 214.874 21.9158 215.315 21.0352 215.315C20.5949 215.315 20.3748 215.315 19.9345 215.094C19.7143 214.874 19.274 214.654 19.0539 214.433C18.6136 214.213 18.3934 213.552 18.3934 212.671Z" fill="white" fill-opacity="0.8"/>
<path d="M220.265 177.631C220.265 177.19 220.265 176.97 220.485 176.529C220.705 176.088 220.925 175.868 221.146 175.648C221.586 175.207 222.466 174.766 223.127 174.766C223.787 174.766 224.668 174.987 225.108 175.648C225.328 175.868 225.328 175.868 225.548 176.088C225.548 176.309 225.769 176.308 225.769 176.529C225.769 176.749 225.989 176.97 225.989 176.97C226.209 177.851 225.989 178.732 225.328 179.393C225.108 179.393 225.108 179.614 224.888 179.834C224.668 179.834 224.668 180.054 224.448 180.054C224.228 180.054 224.228 180.054 224.008 180.275C223.787 180.275 223.567 180.275 223.567 180.275C223.127 180.275 222.907 180.275 222.467 180.054C221.586 180.054 221.366 179.834 221.146 179.614C220.926 179.393 220.705 178.953 220.485 178.732C220.265 178.292 220.265 178.071 220.265 177.631Z" fill="white" fill-opacity="0.8"/>
<path d="M54.7133 174.996C56.2543 174.996 57.3551 176.318 57.3552 177.64C57.3552 179.182 56.0344 180.284 54.7135 180.284C53.1725 180.284 52.0717 178.962 52.0716 177.64C51.8514 176.097 53.1723 174.996 54.7133 174.996ZM88.3958 174.994C89.9368 174.994 91.0376 176.316 91.0376 177.638C91.0377 179.181 89.7169 180.283 88.396 180.283C86.8549 180.283 85.7542 178.961 85.7541 177.639C85.5339 176.096 86.8548 174.995 88.3958 174.994ZM122.078 174.993C123.619 174.993 124.72 176.315 124.72 177.637C124.72 179.18 123.399 180.281 122.078 180.281C120.537 180.281 119.437 178.959 119.437 177.637C119.216 176.095 120.537 174.993 122.078 174.993ZM155.761 174.992C157.302 174.992 158.403 176.314 158.403 177.636C158.403 179.178 157.082 180.28 155.761 180.28C154.22 180.28 153.119 178.958 153.119 177.636C152.899 176.094 154.22 174.992 155.761 174.992ZM189.443 174.991C190.984 174.991 192.085 176.313 192.085 177.635C192.085 179.177 190.764 180.279 189.443 180.279C187.902 180.279 186.802 178.957 186.802 177.635C186.581 176.093 187.902 174.991 189.443 174.991Z" fill="white" fill-opacity="0.8"/>
<path d="M18.3903 177.638C18.3903 176.977 18.6104 176.316 19.2708 175.655C19.491 175.435 19.7111 175.214 20.1514 174.994C20.5917 174.774 20.8118 174.774 21.2521 174.774C21.4723 174.774 21.6924 174.774 21.6924 174.774C21.9126 174.774 22.1327 174.774 22.1327 174.994C22.3529 174.994 22.3529 175.214 22.573 175.214C22.7932 175.214 22.7932 175.434 23.0133 175.655C24.1141 176.756 24.1142 178.519 23.0135 179.621C23.0135 179.621 22.7933 179.841 22.5732 180.062C22.3531 180.062 22.3531 180.282 22.1329 180.282C21.9128 180.282 21.6926 180.282 21.6926 180.502C21.4725 180.502 21.2523 180.502 21.2523 180.502C20.812 180.502 20.5919 180.502 20.1516 180.282C19.9314 180.062 19.4911 179.841 19.271 179.621C18.6105 179.18 18.3904 178.299 18.3903 177.638Z" fill="white" fill-opacity="0.8"/>
<path d="M220.264 142.596C220.264 142.155 220.264 141.935 220.485 141.494C220.705 141.053 220.925 140.833 221.145 140.612C221.585 140.172 222.466 139.731 223.126 139.731C223.346 139.731 223.567 139.731 223.567 139.731C223.787 139.731 224.007 139.731 224.007 139.951C224.227 139.951 224.447 140.172 224.447 140.172C224.667 140.172 224.667 140.392 224.887 140.392C225.108 140.612 225.108 140.612 225.328 140.833C225.328 141.053 225.548 141.053 225.548 141.273C225.548 141.494 225.768 141.714 225.768 141.714C225.988 142.595 225.768 143.477 225.108 144.138C224.888 144.358 224.888 144.358 224.667 144.578C224.447 144.578 224.447 144.799 224.227 144.799C224.007 144.799 224.007 145.019 223.787 145.019C223.567 145.019 223.347 145.019 223.347 145.019C222.686 145.019 222.026 144.799 221.365 144.138C221.145 143.918 220.925 143.697 220.705 143.257C220.264 143.257 220.264 142.816 220.264 142.596Z" fill="white" fill-opacity="0.8"/>
<path d="M54.7143 139.737C56.2553 139.737 57.3561 141.059 57.3561 142.381C57.3562 143.924 56.0354 145.025 54.7145 145.026C53.1735 145.026 52.0727 143.704 52.0726 142.382C51.8524 141.06 53.1733 139.737 54.7143 139.737ZM88.3968 139.736C89.9378 139.736 91.0386 141.058 91.0386 142.38C91.0387 143.923 89.7178 145.024 88.397 145.024C86.8559 145.024 85.7551 143.702 85.7551 142.38C85.5349 141.058 86.8557 139.736 88.3968 139.736ZM122.079 139.735C123.62 139.735 124.721 141.057 124.721 142.379C124.721 143.921 123.4 145.023 122.079 145.023C120.538 145.023 119.438 143.701 119.438 142.379C119.217 141.057 120.538 139.735 122.079 139.735ZM155.762 139.734C157.303 139.734 158.404 141.056 158.404 142.378C158.404 143.92 157.083 145.022 155.762 145.022C154.221 145.022 153.12 143.7 153.12 142.378C152.9 141.056 154.221 139.734 155.762 139.734ZM189.444 139.733C190.985 139.732 192.086 141.054 192.086 142.376C192.086 143.919 190.765 145.021 189.444 145.021C187.903 145.021 186.803 143.699 186.803 142.377C186.582 141.055 187.903 139.733 189.444 139.733Z" fill="white" fill-opacity="0.8"/>
<path d="M18.3924 142.603C18.3924 142.162 18.3923 141.942 18.6125 141.501C18.8326 141.061 19.0527 140.84 19.2729 140.62C19.7132 140.179 20.3736 139.738 21.2542 139.738C21.4743 139.738 21.6945 139.738 21.6945 139.738C21.9146 139.738 22.1348 139.738 22.1348 139.959C22.3549 139.959 22.3549 140.179 22.5751 140.179C22.7952 140.179 22.7952 140.399 23.0154 140.399C23.2355 140.62 23.2355 140.62 23.4557 140.84C23.4557 141.06 23.6758 141.06 23.6759 141.281C23.6759 141.501 23.896 141.721 23.896 141.721C24.1162 142.603 23.8961 143.484 23.2357 144.145C22.7954 144.586 22.135 145.026 21.2544 145.027C20.5939 145.027 19.7133 144.806 19.273 144.145C19.0529 143.925 18.8327 143.705 18.6125 143.264C18.3924 143.264 18.3924 142.823 18.3924 142.603Z" fill="white" fill-opacity="0.8"/>
<path d="M220.265 107.343C220.265 106.682 220.485 106.021 221.146 105.36C221.366 105.14 221.586 105.14 222.026 104.92C222.247 104.699 222.687 104.699 222.907 104.699C223.127 104.699 223.347 104.699 223.567 104.699C223.788 104.699 224.008 104.699 224.008 104.92C224.228 104.92 224.448 105.14 224.448 105.14C224.668 105.36 224.668 105.36 224.888 105.581C225.989 106.682 225.989 108.445 224.888 109.547C224.448 109.987 223.568 110.428 222.907 110.428C222.467 110.428 222.247 110.428 221.806 110.208C221.586 109.767 221.366 109.547 221.146 109.326C220.706 109.106 220.706 108.886 220.486 108.445C220.265 108.225 220.265 107.784 220.265 107.343Z" fill="white" fill-opacity="0.8"/>
<path d="M54.7143 104.705C56.2553 104.705 57.3561 106.027 57.3561 107.349C57.3562 108.891 56.0354 109.993 54.7145 109.993C53.1735 109.993 52.0727 108.671 52.0726 107.349C51.8524 106.027 53.1733 104.705 54.7143 104.705ZM88.3968 104.703C89.9378 104.703 91.0386 106.025 91.0386 107.347C91.0387 108.89 89.7178 109.992 88.397 109.992C86.8559 109.992 85.7551 108.67 85.7551 107.348C85.5349 106.026 86.8557 104.704 88.3968 104.703ZM122.079 104.702C123.62 104.702 124.721 106.024 124.721 107.346C124.721 108.889 123.4 109.99 122.079 109.99C120.538 109.99 119.438 108.668 119.438 107.346C119.217 106.024 120.538 104.702 122.079 104.702ZM155.762 104.701C157.303 104.701 158.404 106.023 158.404 107.345C158.404 108.887 157.083 109.989 155.762 109.989C154.221 109.989 153.12 108.667 153.12 107.345C152.9 106.023 154.221 104.701 155.762 104.701ZM189.444 104.7C190.985 104.7 192.086 106.022 192.086 107.344C192.086 108.886 190.765 109.988 189.444 109.988C187.903 109.988 186.803 108.666 186.803 107.344C186.582 106.022 187.903 104.7 189.444 104.7Z" fill="white" fill-opacity="0.8"/>
<path d="M18.3907 107.35C18.3907 106.689 18.6108 106.028 19.2712 105.367C19.7115 104.926 20.372 104.706 21.0324 104.706C21.2525 104.706 21.4727 104.706 21.4727 104.706C21.6928 104.706 21.913 104.706 21.913 104.926C22.1331 104.926 22.3533 105.146 22.3533 105.146C22.5735 105.367 22.5735 105.367 22.7936 105.587C23.8944 106.689 23.8945 108.451 22.7938 109.553C22.3535 109.994 21.693 110.434 20.8125 110.434C19.9319 110.435 19.2714 110.214 18.8311 109.553C18.8311 109.113 18.6109 108.892 18.3908 108.452C18.3908 108.231 18.3907 107.79 18.3907 107.35Z" fill="white" fill-opacity="0.8"/>
</g>
<g clip-path="url(#clip1)">
<path d="M220.268 107.966C220.268 107.305 220.488 106.424 221.148 105.983C221.589 105.542 222.469 105.102 223.13 105.102C223.79 105.102 224.671 105.322 225.111 105.983C226.212 107.085 226.212 108.847 225.111 109.949C224.671 110.39 223.79 110.83 223.13 110.83C222.469 110.83 221.809 110.61 221.149 109.949C220.488 109.509 220.268 108.848 220.268 107.966Z" fill="white" fill-opacity="0.8"/>
<path d="M54.7172 105.329C56.2583 105.329 57.359 106.651 57.3591 107.973C57.3591 109.515 56.0383 110.617 54.7174 110.617C53.1764 110.617 52.0756 109.295 52.0756 107.973C51.8553 106.43 53.1762 105.329 54.7172 105.329ZM88.3997 105.327C89.9407 105.327 91.0415 106.649 91.0415 107.971C91.0416 109.514 89.7208 110.616 88.3999 110.616C86.8588 110.616 85.7581 109.294 85.758 107.972C85.5378 106.429 86.8587 105.328 88.3997 105.327ZM122.082 105.326C123.623 105.326 124.724 106.648 124.724 107.97C124.724 109.513 123.403 110.614 122.082 110.614C120.541 110.614 119.441 109.292 119.44 107.97C119.22 106.428 120.541 105.326 122.082 105.326ZM155.765 105.325C157.306 105.325 158.406 106.647 158.406 107.969C158.407 109.511 157.086 110.613 155.765 110.613C154.224 110.613 153.123 109.291 153.123 107.969C152.903 106.427 154.224 105.325 155.765 105.325ZM189.447 105.324C190.988 105.324 192.089 106.646 192.089 107.968C192.089 109.51 190.768 110.612 189.447 110.612C187.906 110.612 186.805 109.29 186.805 107.968C186.585 106.426 187.906 105.324 189.447 105.324Z" fill="white" fill-opacity="0.8"/>
<path d="M18.3934 107.973C18.3933 107.311 18.6134 106.43 19.2739 105.989C19.494 105.769 19.9343 105.549 20.1544 105.328C20.5947 105.108 20.8149 105.108 21.2552 105.108C21.9156 105.108 22.5761 105.328 23.2365 105.989C23.897 106.65 24.1172 107.532 23.8971 108.413C23.8971 108.633 23.8971 108.854 23.6769 108.854C23.6769 109.074 23.4568 109.074 23.4568 109.294C23.4568 109.515 23.2367 109.515 23.0165 109.735C22.5762 110.176 21.9158 110.616 21.0352 110.616C20.5949 110.616 20.3748 110.616 19.9345 110.396C19.7143 110.176 19.274 109.956 19.0539 109.735C18.6136 109.515 18.3934 108.854 18.3934 107.973Z" fill="white" fill-opacity="0.8"/>
<path d="M220.265 72.9325C220.265 72.4918 220.265 72.2715 220.485 71.8308C220.705 71.3901 220.925 71.1698 221.146 70.9494C221.586 70.5087 222.466 70.068 223.127 70.068C223.787 70.068 224.668 70.2883 225.108 70.9493C225.328 71.1696 225.328 71.1696 225.548 71.3899C225.548 71.6103 225.769 71.6103 225.769 71.8306C225.769 72.0509 225.989 72.2713 225.989 72.2713C226.209 73.1526 225.989 74.034 225.328 74.695C225.108 74.695 225.108 74.9154 224.888 75.1357C224.668 75.1357 224.668 75.3561 224.448 75.3561C224.228 75.3561 224.228 75.3561 224.008 75.5764C223.787 75.5764 223.567 75.5764 223.567 75.5764C223.127 75.5765 222.907 75.5765 222.467 75.3561C221.586 75.3562 221.366 75.1358 221.146 74.9155C220.926 74.6952 220.705 74.2545 220.485 74.0342C220.265 73.5935 220.265 73.3732 220.265 72.9325Z" fill="white" fill-opacity="0.8"/>
<path d="M54.7133 70.2974C56.2543 70.2974 57.3551 71.6194 57.3552 72.9414C57.3552 74.4838 56.0344 75.5855 54.7135 75.5856C53.1725 75.5856 52.0717 74.2636 52.0716 72.9416C51.8514 71.3992 53.1723 70.2975 54.7133 70.2974ZM88.3958 70.2962C89.9368 70.2962 91.0376 71.6182 91.0376 72.9402C91.0377 74.4826 89.7169 75.5843 88.396 75.5844C86.8549 75.5844 85.7542 74.2624 85.7541 72.9404C85.5339 71.398 86.8548 70.2963 88.3958 70.2962ZM122.078 70.295C123.619 70.295 124.72 71.6169 124.72 72.939C124.72 74.4814 123.399 75.5831 122.078 75.5832C120.537 75.5832 119.437 74.2612 119.437 72.9392C119.216 71.3968 120.537 70.2951 122.078 70.295ZM155.761 70.2938C157.302 70.2937 158.403 71.6157 158.403 72.9378C158.403 74.4801 157.082 75.5819 155.761 75.5819C154.22 75.582 153.119 74.26 153.119 72.938C152.899 71.3956 154.22 70.2938 155.761 70.2938ZM189.443 70.2926C190.984 70.2925 192.085 71.6145 192.085 72.9365C192.085 74.4789 190.764 75.5807 189.443 75.5807C187.902 75.5808 186.802 74.2588 186.802 72.9367C186.581 71.3944 187.902 70.2926 189.443 70.2926Z" fill="white" fill-opacity="0.8"/>
<path d="M18.3903 72.9398C18.3903 72.2788 18.6104 71.6178 19.2708 70.9567C19.491 70.7364 19.7111 70.516 20.1514 70.2957C20.5917 70.0753 20.8118 70.0753 21.2521 70.0753C21.4723 70.0753 21.6924 70.0753 21.6924 70.0753C21.9126 70.0753 22.1327 70.0753 22.1327 70.2956C22.3529 70.2956 22.3529 70.5159 22.573 70.5159C22.7932 70.5159 22.7932 70.7363 23.0133 70.9566C24.1141 72.0582 24.1142 73.821 23.0135 74.9227C23.0135 74.9227 22.7933 75.143 22.5732 75.3634C22.3531 75.3634 22.3531 75.5837 22.1329 75.5837C21.9128 75.5837 21.6926 75.5838 21.6926 75.8041C21.4725 75.8041 21.2523 75.8041 21.2523 75.8041C20.812 75.8041 20.5919 75.8041 20.1516 75.5838C19.9314 75.3635 19.4911 75.1432 19.271 74.9228C18.6105 74.4822 18.3904 73.6008 18.3903 72.9398Z" fill="white" fill-opacity="0.8"/>
<path d="M220.264 37.8973C220.264 37.4566 220.264 37.2363 220.485 36.7956C220.705 36.3549 220.925 36.1346 221.145 35.9142C221.585 35.4735 222.466 35.0328 223.126 35.0328C223.346 35.0328 223.567 35.0328 223.567 35.0328C223.787 35.0328 224.007 35.0328 224.007 35.2531C224.227 35.2531 224.447 35.4734 224.447 35.4734C224.667 35.4734 224.667 35.6938 224.887 35.6938C225.108 35.9141 225.108 35.9141 225.328 36.1344C225.328 36.3548 225.548 36.3548 225.548 36.5751C225.548 36.7954 225.768 37.0158 225.768 37.0158C225.988 37.8971 225.768 38.7785 225.108 39.4395C224.888 39.6599 224.888 39.6599 224.667 39.8802C224.447 39.8802 224.447 40.1006 224.227 40.1006C224.007 40.1006 224.007 40.3209 223.787 40.3209C223.567 40.3209 223.347 40.3209 223.347 40.3209C222.686 40.3209 222.026 40.1006 221.365 39.4396C221.145 39.2193 220.925 38.999 220.705 38.5583C220.264 38.5583 220.264 38.1177 220.264 37.8973Z" fill="white" fill-opacity="0.8"/>
<path d="M54.7143 35.0391C56.2553 35.0391 57.3561 36.3611 57.3561 37.6831C57.3562 39.2255 56.0354 40.3272 54.7145 40.3273C53.1735 40.3273 52.0727 39.0053 52.0726 37.6833C51.8524 36.3613 53.1733 35.0392 54.7143 35.0391ZM88.3968 35.0379C89.9378 35.0379 91.0386 36.3599 91.0386 37.6819C91.0387 39.2243 89.7178 40.326 88.397 40.3261C86.8559 40.3261 85.7551 39.0041 85.7551 37.6821C85.5349 36.3601 86.8557 35.038 88.3968 35.0379ZM122.079 35.0367C123.62 35.0367 124.721 36.3587 124.721 37.6807C124.721 39.2231 123.4 40.3248 122.079 40.3248C120.538 40.3249 119.438 39.0029 119.438 37.6809C119.217 36.3588 120.538 35.0368 122.079 35.0367ZM155.762 35.0355C157.303 35.0354 158.404 36.3574 158.404 37.6795C158.404 39.2218 157.083 40.3236 155.762 40.3236C154.221 40.3237 153.12 39.0017 153.12 37.6797C152.9 36.3576 154.221 35.0355 155.762 35.0355ZM189.444 35.0343C190.985 35.0342 192.086 36.3562 192.086 37.6782C192.086 39.2206 190.765 40.3224 189.444 40.3224C187.903 40.3225 186.803 39.0005 186.803 37.6784C186.582 36.3564 187.903 35.0343 189.444 35.0343Z" fill="white" fill-opacity="0.8"/>
<path d="M18.3924 37.9046C18.3924 37.464 18.3923 37.2436 18.6125 36.8029C18.8326 36.3623 19.0527 36.1419 19.2729 35.9216C19.7132 35.4809 20.3736 35.0402 21.2542 35.0401C21.4743 35.0401 21.6945 35.0401 21.6945 35.0401C21.9146 35.0401 22.1348 35.0401 22.1348 35.2604C22.3549 35.2604 22.3549 35.4808 22.5751 35.4808C22.7952 35.4808 22.7952 35.7011 23.0154 35.7011C23.2355 35.9214 23.2355 35.9214 23.4557 36.1418C23.4557 36.3621 23.6758 36.3621 23.6759 36.5824C23.6759 36.8028 23.896 37.0231 23.896 37.0231C24.1162 37.9044 23.8961 38.7858 23.2357 39.4468C22.7954 39.8875 22.135 40.3282 21.2544 40.3283C20.5939 40.3283 19.7133 40.108 19.273 39.447C19.0529 39.2267 18.8327 39.0063 18.6125 38.5657C18.3924 38.5657 18.3924 38.125 18.3924 37.9046Z" fill="white" fill-opacity="0.8"/>
<path d="M220.265 2.64524C220.265 1.98422 220.485 1.3232 221.146 0.662157C221.366 0.441811 221.586 0.441803 222.026 0.221448C222.247 0.00110197 222.687 0.00108604 222.907 0.00107808C223.127 0.00107012 223.347 0.00106216 223.567 0.0010542C223.788 0.00104623 224.008 0.00103827 224.008 0.221377C224.228 0.221369 224.448 0.441699 224.448 0.441699C224.668 0.66203 224.668 0.66203 224.888 0.882361C225.989 1.98401 225.989 3.74672 224.888 4.84845C224.448 5.28915 223.568 5.72986 222.907 5.72988C222.467 5.7299 222.247 5.7299 221.806 5.50958C221.586 5.06891 221.366 4.84858 221.146 4.62825C220.706 4.40793 220.706 4.18759 220.486 3.74692C220.265 3.52659 220.265 3.08591 220.265 2.64524Z" fill="white" fill-opacity="0.8"/>
<path d="M54.7143 0.00643334C56.2553 0.0063776 57.3561 1.32837 57.3561 2.6504C57.3562 4.19277 56.0354 5.29451 54.7145 5.29456C53.1735 5.29462 52.0727 3.97262 52.0726 2.65059C51.8524 1.32857 53.1733 0.00648907 54.7143 0.00643334ZM88.3968 0.0052151C89.9378 0.00515936 91.0386 1.32715 91.0386 2.64918C91.0387 4.19155 89.7178 5.29329 88.397 5.29334C86.8559 5.2934 85.7551 3.97141 85.7551 2.64937C85.5349 1.32735 86.8557 0.00527084 88.3968 0.0052151ZM122.079 0.00399686C123.62 0.00394113 124.721 1.32593 124.721 2.64796C124.721 4.19033 123.4 5.29208 122.079 5.29212C120.538 5.29218 119.438 3.97019 119.438 2.64816C119.217 1.32613 120.538 0.0040526 122.079 0.00399686ZM155.762 0.00277863C157.303 0.00272289 158.404 1.32471 158.404 2.64675C158.404 4.18912 157.083 5.29086 155.762 5.2909C154.221 5.29096 153.12 3.96897 153.12 2.64694C152.9 1.32491 154.221 0.00283436 155.762 0.00277863ZM189.444 0.00156039C190.985 0.00150466 192.086 1.3235 192.086 2.64553C192.086 4.1879 190.765 5.28964 189.444 5.28969C187.903 5.28974 186.803 3.96775 186.803 2.64572C186.582 1.3237 187.903 0.00161613 189.444 0.00156039Z" fill="white" fill-opacity="0.8"/>
<path d="M18.3907 2.65158C18.3907 1.99056 18.6108 1.32954 19.2712 0.668497C19.7115 0.227804 20.372 0.00744166 21.0324 0.00741778C21.2525 0.00740981 21.4727 0.00740185 21.4727 0.00740185C21.6928 0.00739389 21.913 0.00738593 21.913 0.227724C22.1331 0.227717 22.3533 0.448047 22.3533 0.448047C22.5735 0.668378 22.5735 0.668378 22.7936 0.888708C23.8944 1.99036 23.8945 3.75307 22.7938 4.8548C22.3535 5.2955 21.693 5.7362 20.8125 5.73623C19.9319 5.73626 19.2714 5.51594 18.8311 4.85495C18.8311 4.41427 18.6109 4.19394 18.3908 3.75327C18.3908 3.53293 18.3907 3.09225 18.3907 2.65158Z" fill="white" fill-opacity="0.8"/>
</g>
<defs>
<clipPath id="clip0">
<rect width="110.83" height="207.378" fill="white" transform="translate(225.771 104.698) rotate(89.9979)"/>
</clipPath>
<clipPath id="clip1">
<rect width="110.83" height="207.378" fill="white" transform="translate(225.771) rotate(89.9979)"/>
</clipPath>
</defs>
</svg>
