<svg width="36" height="36" viewBox="0 0 36 36" fill="none" xmlns="http://www.w3.org/2000/svg">
<path d="M35.4004 15.606V34.8003C35.4004 35.1316 35.1318 35.4002 34.8004 35.4002H29.4004V15.606H35.4004Z" fill="white"/>
<path d="M33.6004 15.606V34.8003C33.6004 35.1316 33.3318 35.4002 33.0004 35.4002H29.4004V15.606H33.6004Z" fill="white"/>
<path d="M6.60059 15.606V35.4002H1.20059C0.869215 35.4002 0.600586 35.1316 0.600586 34.8003V15.606H6.60059Z" fill="white"/>
<path d="M4.80059 15.606V35.4002H1.20059C0.869215 35.4002 0.600586 35.1316 0.600586 34.8003V15.606H4.80059Z" fill="white"/>
<path d="M29.4004 27.6025H32.4004C32.7318 27.6025 33.0004 27.8711 33.0004 28.2024V35.4003H29.4004V27.6025Z" fill="white"/>
<path d="M3.00049 32.2512V28.2024C3.00049 27.8711 3.26912 27.6025 3.60049 27.6025H6.60049V35.4003H3.00049V32.2512Z" fill="white"/>
<path d="M29.4007 5.56494V35.4002H25.2007V5.56494C25.513 5.96389 25.9277 6.2707 26.4007 6.45268C26.6893 6.55679 26.9939 6.60957 27.3007 6.60864C27.4006 6.61478 27.5008 6.61478 27.6007 6.60864C28.3167 6.51709 28.9656 6.14083 29.4007 5.56494Z" fill="white"/>
<path d="M27.6007 6.60859V35.4002H25.2007V6.60859C25.3006 6.61474 25.4008 6.61474 25.5007 6.60859C25.8075 6.60953 26.1121 6.55674 26.4007 6.45264C26.6893 6.55674 26.9939 6.60953 27.3007 6.60859C27.4006 6.61474 27.5008 6.61474 27.6007 6.60859Z" fill="white"/>
<path d="M10.8006 5.56494V35.4002H6.60059V5.56494C6.91293 5.96389 7.32764 6.2707 7.80059 6.45268C8.08918 6.55679 8.39378 6.60957 8.70059 6.60864C8.80049 6.61478 8.90068 6.61478 9.00059 6.60864C9.71664 6.51709 10.3655 6.14083 10.8006 5.56494Z" fill="white"/>
<path d="M9.00059 6.60859V35.4002H6.60059V6.60859C6.70049 6.61474 6.80068 6.61474 6.90059 6.60859C7.20739 6.60953 7.51199 6.55674 7.80059 6.45264C8.08918 6.55674 8.39378 6.60953 8.70059 6.60859C8.80049 6.61474 8.90068 6.61474 9.00059 6.60859Z" fill="white"/>
<path d="M10.8003 20.4048H25.2003V35.4004H10.8003V20.4048Z" fill="white"/>
<path d="M10.8003 20.4048H23.4003V35.4004H10.8003V20.4048Z" fill="white"/>
<path d="M22.8005 29.156V35.4002H13.2005V29.156C13.1765 28.016 13.4873 26.8941 14.0945 25.9289C14.7955 24.9116 15.6543 24.0126 16.6385 23.2657C16.7798 23.1524 16.9351 23.0576 17.1005 22.9838C17.85 22.662 18.7149 22.7698 19.3625 23.2657C21.5645 25.0712 22.8005 26.6007 22.8005 29.156Z" fill="white"/>
<path d="M21.0005 29.1561V35.4003H13.2005V29.1561C13.1765 28.0161 13.4873 26.8942 14.0945 25.929C14.7955 24.9117 15.6543 24.0127 16.6385 23.2658C16.7798 23.1525 16.9351 23.0577 17.1005 22.9839C17.2659 23.0577 17.4212 23.1525 17.5625 23.2658C19.7645 25.0713 21.0005 26.6008 21.0005 29.1561Z" fill="white"/>
<path d="M15.6006 35.4V29.1558C15.6006 27.8062 16.0626 26.9425 17.5986 25.5989C17.827 25.3928 18.1742 25.3928 18.4026 25.5989C19.9386 26.9425 20.4006 27.8062 20.4006 29.1558V35.4H15.6006Z" fill="white"/>
<path d="M10.8003 14.4062H25.2003V18.0052H10.8003V14.4062Z" fill="white"/>
<path d="M10.8003 14.4062H23.4003V18.0052H10.8003V14.4062Z" fill="white"/>
<path d="M10.8003 9.60791H13.8003C14.1317 9.60791 14.4003 9.87654 14.4003 10.2079V12.0079H10.8003V9.60791Z" fill="white"/>
<path d="M17.4008 9.60791H18.6008C18.9322 9.60791 19.2008 9.87654 19.2008 10.2079V12.0079H16.8008V10.2079C16.8008 9.87654 17.0694 9.60791 17.4008 9.60791Z" fill="white"/>
<path d="M33.6005 13.207H34.8005C35.1319 13.207 35.4005 13.4757 35.4005 13.807V15.607H33.0005V13.807C33.0005 13.4757 33.2691 13.207 33.6005 13.207Z" fill="white"/>
<path d="M1.20059 13.207H2.40059C2.73196 13.207 3.00059 13.4757 3.00059 13.807V15.607H0.600586V13.807C0.600586 13.4757 0.869215 13.207 1.20059 13.207Z" fill="white"/>
<path d="M22.2006 9.60791H25.2006V12.0079H21.6006V10.2079C21.6006 9.87654 21.8692 9.60791 22.2006 9.60791Z" fill="white"/>
<path d="M30.6904 30.1998C30.9792 29.936 31.4216 29.936 31.7104 30.1998C32.5384 30.9736 33.0004 31.6274 33.0004 32.7251V35.4003H29.4004V32.7251C29.4004 31.6274 29.8624 30.9736 30.6904 30.1998Z" fill="white"/>
<path d="M10.8003 12.0073H25.2003V14.4073H10.8003V12.0073Z" fill="white"/>
<path d="M10.8003 18.0054H25.2003V20.4054H10.8003V18.0054Z" fill="white"/>
<path d="M10.8003 12.0073H23.4003V14.4073H10.8003V12.0073Z" fill="white"/>
<path d="M10.8003 18.0054H23.4003V20.4054H10.8003V18.0054Z" fill="white"/>
<path d="M25.2007 17.4053H29.4007V21.0042H25.2007V17.4053Z" fill="white"/>
<path d="M25.2007 11.4072H29.4007V15.0062H25.2007V11.4072Z" fill="white"/>
<path d="M5.31049 30.1998C5.0217 29.936 4.57927 29.936 4.29049 30.1998C3.46249 30.9736 3.00049 31.6274 3.00049 32.7251V35.4003H6.60049V32.7251C6.60049 31.6274 6.13849 30.9736 5.31049 30.1998Z" fill="white"/>
<path d="M6.60059 17.4053H10.8006V21.0042H6.60059V17.4053Z" fill="white"/>
<path d="M6.60059 11.4072H10.8006V15.0062H6.60059V11.4072Z" fill="white"/>
<path d="M25.2012 17.4053H27.6012V21.0042H25.2012V17.4053Z" fill="white"/>
<path d="M25.2012 11.4072H27.6012V15.0062H25.2012V11.4072Z" fill="white"/>
<path d="M6.60059 17.4053H9.00059V21.0042H6.60059V17.4053Z" fill="white"/>
<path d="M6.60059 11.4072H9.00059V15.0062H6.60059V11.4072Z" fill="white"/>
<path d="M29.4004 18.0054H35.4004V20.4054H29.4004V18.0054Z" fill="white"/>
<path d="M29.4004 18.0054H33.6004V20.4054H29.4004V18.0054Z" fill="white"/>
<path d="M0.600586 18.0054H6.60059V20.4054H0.600586V18.0054Z" fill="white"/>
<path d="M0.600586 18.0054H4.80059V20.4054H0.600586V18.0054Z" fill="white"/>
<path d="M30.0007 3.84355C30.0103 4.56842 29.731 5.26734 29.2245 5.7861C28.718 6.30486 28.0258 6.60084 27.3007 6.60874C26.9933 6.61063 26.6882 6.55572 26.4007 6.44679C25.3108 6.04637 24.5903 5.00433 24.6007 3.84355C24.6007 2.90782 25.6147 1.85213 26.4007 1.21032C26.6047 1.03037 26.7907 0.880416 26.9407 0.766449C27.154 0.606496 27.4474 0.606496 27.6607 0.766449C28.3927 1.30029 30.0007 2.66789 30.0007 3.84355Z" fill="white"/>
<path d="M11.4006 3.84355C11.4102 4.56842 11.1309 5.26734 10.6244 5.7861C10.1179 6.30486 9.42571 6.60084 8.7006 6.60874C8.39319 6.61063 8.08807 6.55572 7.8006 6.44679C6.7107 6.04637 5.99018 5.00433 6.0006 3.84355C6.0006 2.90782 7.0146 1.85213 7.8006 1.21032C8.0046 1.03037 8.1906 0.880416 8.3406 0.766449C8.55394 0.606496 8.84727 0.606496 9.0606 0.766449C9.7926 1.30029 11.4006 2.66789 11.4006 3.84355Z" fill="white"/>
<path d="M1.20059 35.4005H3.00059C2.66922 35.4005 2.40059 35.132 2.40059 34.8007V13.8069C2.40398 13.596 2.51789 13.4024 2.70059 13.297C2.61032 13.241 2.50679 13.2099 2.40059 13.207H1.20059C0.869215 13.207 0.600586 13.4756 0.600586 13.8069V34.8007C0.600586 35.132 0.869215 35.4005 1.20059 35.4005Z" fill="white"/>
<path d="M6.60049 15.6063H8.40048V6.60895V5.57125C8.0124 5.07896 7.80108 4.47055 7.80049 3.84376C7.80049 2.93802 8.76648 1.89433 9.60048 1.17454C9.39648 1.00059 9.21048 0.850631 9.06048 0.736664C8.84715 0.576711 8.55382 0.576711 8.34048 0.736664C7.46449 1.40247 6.00049 2.72808 6.00049 3.84376C6.00109 4.47055 6.2124 5.07896 6.60049 5.57125V15.6063ZM7.87249 6.47099C7.72692 6.42492 7.58624 6.36465 7.45249 6.29104C7.58607 6.365 7.72678 6.42529 7.87249 6.47099ZM8.26848 6.57296L7.98649 6.50098L8.26848 6.57296Z" fill="white"/>
<path d="M0 30.6016H1.2V35.4002H0V30.6016Z" fill="white"/>
<path d="M34.8 12.6068H33.6C32.9373 12.6068 32.4 13.1439 32.4 13.8065V15.0061H30V5.77484C30.3923 5.20725 30.6017 4.53332 30.6 3.84341C30.6 2.51779 29.202 1.16219 28.026 0.244458C27.5969 -0.081486 27.0031 -0.081486 26.574 0.244458C25.374 1.15019 24 2.5058 24 3.84341C23.9983 4.53332 24.2077 5.20725 24.6 5.77484V9.00789H22.2C21.5373 9.00789 21 9.545 21 10.2075V11.4072H19.8V10.2075C19.8 9.545 19.2627 9.00789 18.6 9.00789H17.4C16.7373 9.00789 16.2 9.545 16.2 10.2075V11.4072H15V10.2075C15 9.545 14.4627 9.00789 13.8 9.00789H11.4V5.77484C11.7923 5.20725 12.0017 4.53332 12 3.84341C12 2.51779 10.602 1.16219 9.426 0.244458C8.99691 -0.081486 8.40309 -0.081486 7.974 0.244458C6.798 1.16219 5.4 2.51779 5.4 3.84341C5.39832 4.53332 5.60768 5.20725 6 5.77484V15.0061H3.6V13.8065C3.6 13.1439 3.06274 12.6068 2.4 12.6068H1.2C0.537258 12.6068 0 13.1439 0 13.8065V30.6016C0 30.9329 0.268629 31.2014 0.6 31.2014C0.931371 31.2014 1.2 30.9329 1.2 30.6016V21.0044H3V22.204C3 22.5353 3.26863 22.8039 3.6 22.8039C3.93137 22.8039 4.2 22.5353 4.2 22.204V21.0044H6V27.0026H3.6C2.93726 27.0026 2.4 27.5397 2.4 28.2023V34.8004H0.6C0.268629 34.8004 0 35.0689 0 35.4002C0 35.7314 0.268629 36 0.6 36H35.4C35.7314 36 36 35.7314 36 35.4002V13.8065C36 13.1439 35.4627 12.6068 34.8 12.6068ZM33.6 13.8065H34.8V15.0061H33.6V13.8065ZM34.8 16.2058V17.4054H30V16.2058H34.8ZM34.8 19.8047H30V18.6051H34.8V19.8047ZM32.4 30.0377C32.31 29.9478 32.22 29.8518 32.118 29.7618C31.6025 29.2758 30.7975 29.2758 30.282 29.7618C30.216 29.8218 30.204 29.8278 30 30.0377V28.2023H32.4V30.0377ZM10.2 6.83653V10.8074H7.2V6.83653C8.13875 7.33137 9.26125 7.33137 10.2 6.83653ZM24.6 12.6068V13.8065H11.4V12.6068H24.6ZM25.8 6.83653C26.7387 7.33137 27.8613 7.33137 28.8 6.83653V10.8074H25.8V6.83653ZM18.6 17.4054V15.0061H21V17.4054H18.6ZM15 17.4054V15.0061H17.4V17.4054H15ZM11.4 17.4054V15.0061H13.8V17.4054H11.4ZM7.2 12.007H10.2V14.4063H7.2V12.007ZM22.2 15.0061H24.6V17.4054H22.2V15.0061ZM28.8 14.4063H25.8V12.007H28.8V14.4063ZM25.8 15.606H28.8V16.8056H25.8V15.606ZM10.2 15.606V16.8056H7.2V15.606H10.2ZM7.2 18.0053H10.2V20.4046H7.2V18.0053ZM11.4 18.6051H24.6V19.8047H11.4V18.6051ZM25.8 18.0053H28.8V20.4046H25.8V18.0053ZM27.294 1.21018C28.59 2.21188 29.4 3.21959 29.4 3.84341C29.4 5.00286 28.4598 5.94279 27.3 5.94279C26.1402 5.94279 25.2 5.00286 25.2 3.84341C25.2 3.21959 26.01 2.21188 27.294 1.21018ZM22.2 10.2075H24.6V11.4072H22.2V10.2075ZM17.4 10.2075H18.6V11.4072H17.4V10.2075ZM13.8 10.2075V11.4072H11.4V10.2075H13.8ZM8.694 1.21018C9.99 2.21188 10.8 3.21959 10.8 3.84341C10.8 4.59344 10.3997 5.28651 9.75 5.66153C9.10026 6.03655 8.29974 6.03655 7.65 5.66153C7.00026 5.28651 6.6 4.59344 6.6 3.84341C6.6 3.21959 7.41 2.21188 8.694 1.21018ZM6 17.4054H1.2V16.2058H6V17.4054ZM2.4 13.8065V15.0061H1.2V13.8065H2.4ZM1.2 19.8047V18.6051H6V19.8047H1.2ZM6 28.2023V30.0377C5.91067 29.9411 5.81655 29.849 5.718 29.7618C5.20253 29.2758 4.39747 29.2758 3.882 29.7618C3.78 29.8518 3.69 29.9478 3.6 30.0377V28.2023H6ZM3.6 32.725C3.6 31.8312 3.972 31.3214 4.698 30.6376C4.75746 30.5894 4.84254 30.5894 4.902 30.6376C6.234 31.8852 6 32.2391 6 34.8004H3.6V32.725ZM7.2 21.6042H10.2V34.8004H7.2V21.6042ZM11.4 21.0044H24.6V34.8004H23.4V29.156C23.4 26.3668 22.002 24.6573 19.74 22.8039C18.7191 22.0008 17.2809 22.0008 16.26 22.8039C13.998 24.6573 12.6 26.3668 12.6 29.156V34.8004H11.4V21.0044ZM16.2 34.8004V29.156C16.2 28.1123 16.47 27.3565 18 26.0489C19.524 27.3865 19.8 28.1123 19.8 29.156V34.8004H16.2ZM21 34.8004V29.156C21 27.6025 20.442 26.5888 18.798 25.1492C18.3431 24.7442 17.6569 24.7442 17.202 25.1492C15.558 26.5888 15 27.6025 15 29.156V34.8004H13.8V29.156C13.8 26.8167 14.934 25.4431 17.022 23.7276C17.6024 23.2957 18.3976 23.2957 18.978 23.7276C21.066 25.4431 22.2 26.8167 22.2 29.156V34.8004H21ZM25.8 21.6042H28.8V34.8004H25.8V21.6042ZM30 34.8004V32.725C30 31.8312 30.372 31.3214 31.098 30.6376C31.1575 30.5894 31.2425 30.5894 31.302 30.6376C32.634 31.8852 32.4 32.2391 32.4 34.8004H30ZM33.6 34.8004V28.2023C33.6 27.5397 33.0627 27.0026 32.4 27.0026H30V21.0044H31.8V22.204C31.8 22.5353 32.0686 22.8039 32.4 22.8039C32.7314 22.8039 33 22.5353 33 22.204V21.0044H34.8V34.8004H33.6Z" fill="#687086"/>
<path d="M0.6 33.6009C0.268629 33.6009 0 33.3322 0 33.0009C0 32.6695 0.268629 32.4009 0.6 32.4009C0.931371 32.4009 1.2 32.6695 1.2 33.0009C1.2 33.3322 0.931371 33.6009 0.6 33.6009Z" fill="#687086"/>
</svg>
