<svg width="214" height="200" viewBox="0 0 214 200" fill="none" xmlns="http://www.w3.org/2000/svg">
<path d="M21.4038 148.808C21.4038 148.808 43.949 177.296 82.4783 178.454C121.007 179.612 155.464 155.628 183.889 136.967C212.315 118.305 221.643 87.0394 207.45 61.252C193.257 35.4644 167.504 44.2997 136.596 26.1782C105.687 8.05674 100.147 -1.44656 64.268 0.179088C28.3889 1.80473 -1.26398 40.0407 0.0415245 82.8752C1.34703 125.709 21.4038 148.808 21.4038 148.808Z" fill="#F7F9FB"/>
<g clip-path="url(#clip0)">
<path d="M221.679 177.792H-12.0918V177.909H221.679V177.792Z" fill="#EBEBEB"/>
<path d="M98.7161 156.984H8.43843C7.7312 156.983 7.05336 156.702 6.55371 156.203C6.05406 155.703 5.77344 155.026 5.77344 154.32V27.6846C5.77959 26.9829 6.06294 26.312 6.56192 25.8176C7.0609 25.3232 7.73523 25.0451 8.43843 25.0439H98.7161C99.4241 25.0439 100.103 25.3246 100.604 25.8242C101.104 26.3238 101.386 27.0014 101.386 27.7079V154.32C101.386 155.027 101.104 155.705 100.604 156.204C100.103 156.704 99.4241 156.984 98.7161 156.984ZM8.43843 25.1373C7.7622 25.1385 7.11409 25.4074 6.63636 25.885C6.15863 26.3626 5.89032 27.0098 5.89032 27.6846V154.32C5.89032 154.995 6.15863 155.642 6.63636 156.12C7.11409 156.598 7.7622 156.867 8.43843 156.868H98.7161C99.3927 156.867 100.041 156.598 100.52 156.12C100.998 155.643 101.268 154.996 101.269 154.32V27.6846C101.268 27.0094 100.998 26.3622 100.52 25.8847C100.041 25.4073 99.3927 25.1385 98.7161 25.1373H8.43843Z" fill="#EBEBEB"/>
<path d="M199.849 156.984H109.567C108.859 156.983 108.181 156.702 107.681 156.203C107.18 155.704 106.899 155.027 106.897 154.32V27.6846C106.905 26.9825 107.189 26.3116 107.689 25.8173C108.189 25.323 108.863 25.0451 109.567 25.0439H199.849C200.552 25.0464 201.225 25.3249 201.723 25.8192C202.221 26.3135 202.504 26.9837 202.51 27.6846V154.32C202.51 155.025 202.23 155.702 201.731 156.201C201.232 156.7 200.556 156.982 199.849 156.984ZM109.567 25.1373C108.89 25.1385 108.242 25.4073 107.763 25.8847C107.285 26.3622 107.016 27.0094 107.014 27.6846V154.32C107.016 154.996 107.285 155.643 107.763 156.12C108.242 156.598 108.89 156.867 109.567 156.868H199.849C200.526 156.867 201.175 156.598 201.653 156.12C202.132 155.643 202.401 154.996 202.402 154.32V27.6846C202.401 27.0094 202.132 26.3622 201.653 25.8847C201.175 25.4073 200.526 25.1385 199.849 25.1373H109.567Z" fill="#EBEBEB"/>
<path d="M198.255 182.234H183.495V182.351H198.255V182.234Z" fill="#EBEBEB"/>
<path d="M144.694 180.97H129.073V181.086H144.694V180.97Z" fill="#EBEBEB"/>
<path d="M202.52 186.568H173.331V186.685H202.52V186.568Z" fill="#EBEBEB"/>
<path d="M21.4264 185.785H12.4355V185.901H21.4264V185.785Z" fill="#EBEBEB"/>
<path d="M39.7546 185.785H25.5928V185.901H39.7546V185.785Z" fill="#EBEBEB"/>
<path d="M102.054 183.816H76.5449V183.933H102.054V183.816Z" fill="#EBEBEB"/>
<path d="M115.201 54.4976L88.5605 81.0863V169.633H182.064V54.4976H115.201Z" fill="white"/>
<path d="M182.064 169.885H88.5552C88.4883 169.885 88.424 169.858 88.3767 169.811C88.3293 169.764 88.3027 169.7 88.3027 169.633V81.086C88.3027 81.053 88.3093 81.0203 88.3222 80.9898C88.335 80.9594 88.3538 80.9318 88.3775 80.9088L115.027 54.3154C115.075 54.2692 115.139 54.2426 115.205 54.2407H182.064C182.097 54.2407 182.13 54.2472 182.16 54.2599C182.191 54.2726 182.219 54.2911 182.242 54.3145C182.266 54.3379 182.284 54.3657 182.297 54.3962C182.31 54.4268 182.316 54.4596 182.316 54.4927V169.633C182.316 169.666 182.31 169.699 182.297 169.729C182.284 169.76 182.266 169.787 182.242 169.811C182.219 169.834 182.191 169.853 182.16 169.865C182.13 169.878 182.097 169.885 182.064 169.885ZM88.8124 169.385H181.811V54.7493H115.308L88.8124 81.1887V169.385Z" fill="#E0E0E0"/>
<path d="M88.5605 81.0863L116.515 84.6834L115.201 54.4976L88.5605 81.0863Z" fill="#E6E6E6"/>
<path d="M88.5605 81.0863H115.201V54.4976L88.5605 81.0863Z" fill="white"/>
<path d="M115.201 81.3335H88.551C88.5011 81.3337 88.4523 81.3192 88.4107 81.2918C88.3691 81.2644 88.3366 81.2254 88.3172 81.1795C88.2979 81.1341 88.2929 81.0838 88.3029 81.0355C88.3129 80.9871 88.3375 80.943 88.3733 80.9089L115.023 54.3156C115.059 54.281 115.104 54.2573 115.153 54.2474C115.202 54.2375 115.253 54.2417 115.299 54.2596C115.345 54.2794 115.383 54.312 115.411 54.3534C115.438 54.3948 115.453 54.4432 115.453 54.4929V81.0862C115.452 81.1522 115.425 81.2151 115.378 81.2614C115.331 81.3076 115.267 81.3335 115.201 81.3335ZM89.1681 80.8343H114.953V55.104L89.1681 80.8343Z" fill="#E0E0E0"/>
<path d="M140.719 119.376L156.616 103.513C156.971 103.159 157.253 102.738 157.445 102.275C157.637 101.812 157.736 101.315 157.736 100.814C157.736 100.313 157.637 99.8164 157.445 99.3533C157.253 98.8903 156.971 98.4695 156.616 98.115C156.261 97.7606 155.839 97.4794 155.375 97.2876C154.911 97.0958 154.414 96.9971 153.911 96.9971C153.409 96.9971 152.911 97.0958 152.447 97.2876C151.983 97.4794 151.562 97.7606 151.206 98.115L135.31 113.978L119.414 98.115C118.696 97.3992 117.723 96.9971 116.709 96.9971C115.694 96.9971 114.721 97.3992 114.004 98.115C113.287 98.8308 112.884 99.8017 112.884 100.814C112.884 101.826 113.287 102.797 114.004 103.513L129.901 119.376L114.004 135.238C113.287 135.954 112.884 136.925 112.884 137.937C112.884 138.95 113.287 139.921 114.004 140.636C114.721 141.352 115.694 141.754 116.709 141.754C117.723 141.754 118.696 141.352 119.414 140.636L135.31 124.774L151.206 140.636C151.924 141.352 152.897 141.754 153.911 141.754C154.926 141.754 155.899 141.352 156.616 140.636C157.333 139.921 157.736 138.95 157.736 137.937C157.736 136.925 157.333 135.954 156.616 135.238L140.719 119.376Z" fill="#F0F0F0"/>
<path d="M92.17 106.224C91.2732 107.118 90.0574 107.62 88.7897 107.62C87.522 107.62 86.3062 107.118 85.4094 106.224L70.0693 90.9114L76.83 84.165L92.17 99.4959C93.0602 100.39 93.5599 101.599 93.5599 102.86C93.5599 104.12 93.0602 105.329 92.17 106.224Z" fill="#F0F0F0"/>
<path d="M70.0664 90.9414L76.8272 84.1949L77.4521 84.8184C78.1 85.465 78.464 86.342 78.464 87.2564C78.464 88.1708 78.1 89.0478 77.4521 89.6944L75.5775 91.5649C74.9296 92.2115 74.0508 92.5748 73.1344 92.5748C72.218 92.5748 71.3392 92.2115 70.6912 91.5649L70.0664 90.9414Z" fill="#E0E0E0"/>
<path d="M27.5136 41.7042C22.8745 46.3382 19.7163 52.2406 18.4381 58.6653C17.16 65.09 17.8193 71.7486 20.3328 77.7995C22.8463 83.8504 27.1011 89.0218 32.5593 92.6602C38.0175 96.2985 44.4342 98.2404 50.9982 98.2404C57.5622 98.2404 63.9789 96.2985 69.4371 92.6602C74.8954 89.0218 79.1501 83.8504 81.6636 77.7995C84.1771 71.7486 84.8364 65.09 83.5583 58.6653C82.2802 52.2406 79.1219 46.3382 74.4828 41.7042C71.3999 38.6247 67.739 36.1817 63.7093 34.5149C59.6797 32.8482 55.3603 31.9902 50.9982 31.9902C46.6361 31.9902 42.3167 32.8482 38.2871 34.5149C34.2574 36.1817 30.5965 38.6247 27.5136 41.7042ZM72.5659 86.661C68.3007 90.9171 62.8665 93.8155 56.9506 94.9898C51.0346 96.164 44.9025 95.5613 39.3298 93.2579C33.7571 90.9544 28.9941 87.0537 25.643 82.0491C22.2918 77.0444 20.5032 71.1605 20.5032 65.1414C20.5032 59.1223 22.2918 53.2384 25.643 48.2337C28.9941 43.229 33.7571 39.3283 39.3298 37.0249C44.9025 34.7215 51.0346 34.1188 56.9506 35.293C62.8665 36.4672 68.3007 39.3656 72.5659 43.6217C75.398 46.4477 77.6444 49.8027 79.1771 53.495C80.7098 57.1874 81.4987 61.1448 81.4987 65.1414C81.4987 69.138 80.7098 73.0954 79.1771 76.7878C77.6444 80.4801 75.398 83.8351 72.5659 86.661Z" fill="#E0E0E0"/>
<path d="M68.4471 83.6658C68.2274 83.6652 68.0128 83.5998 67.8303 83.4778C67.6478 83.3557 67.5056 83.1825 67.4216 82.98C67.3376 82.7774 67.3156 82.5545 67.3583 82.3395C67.401 82.1245 67.5066 81.9269 67.6617 81.7716C72.0736 77.3567 74.5511 71.3763 74.5511 65.1414C74.5511 58.9065 72.0736 52.926 67.6617 48.5112C67.5483 48.4107 67.4567 48.2881 67.3926 48.151C67.3284 48.0139 67.293 47.8651 67.2886 47.7139C67.2841 47.5626 67.3107 47.412 67.3666 47.2714C67.4226 47.1308 67.5068 47.003 67.614 46.896C67.7212 46.789 67.8492 46.705 67.9902 46.6492C68.1311 46.5933 68.282 46.5668 68.4336 46.5713C68.5852 46.5757 68.7342 46.6111 68.8716 46.6751C69.009 46.7391 69.1319 46.8305 69.2326 46.9436C74.0611 51.7733 76.7727 58.3169 76.7727 65.1391C76.7727 71.9612 74.0611 78.5048 69.2326 83.3345C69.1299 83.4386 69.0077 83.5214 68.8729 83.5782C68.7381 83.6351 68.5934 83.6648 68.4471 83.6658Z" fill="#E0E0E0"/>
<path d="M26.9848 71.9462C26.7347 71.9464 26.4918 71.8622 26.2957 71.7071C26.0996 71.5521 25.9618 71.3354 25.9048 71.0924C25.0961 67.6749 24.9941 64.1287 25.6051 60.6706C26.216 57.2124 27.5271 53.9149 29.4581 50.9794C29.6206 50.7319 29.8749 50.5589 30.1651 50.4986C30.4553 50.4382 30.7577 50.4954 31.0057 50.6574C31.2537 50.8195 31.427 51.0733 31.4875 51.3629C31.548 51.6525 31.4907 51.9543 31.3283 52.2017C29.5603 54.8833 28.3582 57.8962 27.7955 61.0566C27.2329 64.217 27.3213 67.4587 28.0555 70.5838C28.0902 70.7254 28.0964 70.8724 28.0737 71.0164C28.0511 71.1604 28 71.2984 27.9234 71.4226C27.8469 71.5467 27.7464 71.6544 27.6278 71.7395C27.5093 71.8246 27.3749 71.8853 27.2326 71.9182C27.1512 71.9358 27.0682 71.9452 26.9848 71.9462Z" fill="#E0E0E0"/>
<path d="M33.5493 83.6658C33.2545 83.6651 32.972 83.5477 32.7639 83.3393C30.761 81.3483 29.1022 79.0404 27.8547 76.5089C27.7902 76.3784 27.7521 76.2366 27.7426 76.0914C27.7331 75.9462 27.7523 75.8005 27.7992 75.6628C27.8461 75.525 27.9197 75.3978 28.0159 75.2884C28.112 75.1791 28.2288 75.0897 28.3596 75.0253C28.4904 74.961 28.6326 74.923 28.7781 74.9135C28.9236 74.904 29.0695 74.9232 29.2076 74.97C29.3456 75.0168 29.4731 75.0902 29.5827 75.1862C29.6923 75.2821 29.7819 75.3987 29.8464 75.5292C30.9902 77.841 32.5065 79.9498 34.3348 81.7716C34.5426 81.9798 34.6594 82.2616 34.6594 82.5555C34.6594 82.8493 34.5426 83.1311 34.3348 83.3393C34.1258 83.5464 33.8439 83.6636 33.5493 83.6658Z" fill="#E0E0E0"/>
<path d="M86.5746 148.869L90.9452 153.23L80.7957 163.358C80.2766 163.876 79.5726 164.167 78.8385 164.167C78.1044 164.167 77.4004 163.876 76.8813 163.358L76.4218 162.9C75.9027 162.382 75.6111 161.679 75.6111 160.947C75.6111 160.214 75.9027 159.512 76.4218 158.994L86.5713 148.866L86.5746 148.869Z" fill="#F0F0F0"/>
<path d="M86.5818 148.878L90.9458 153.233L90.7375 153.441C90.2666 153.911 89.628 154.175 88.9622 154.175C88.2963 154.175 87.6577 153.911 87.1868 153.441L86.3669 152.623C85.8961 152.153 85.6316 151.515 85.6316 150.851C85.6316 150.187 85.8961 149.549 86.3669 149.079L86.5752 148.872L86.5818 148.878Z" fill="#E0E0E0"/>
<path d="M120.854 125.212L110.615 135.425C109.478 136.641 108.859 138.249 108.889 139.911C108.918 141.573 109.593 143.159 110.772 144.334C111.95 145.508 113.54 146.181 115.206 146.208C116.871 146.235 118.482 145.616 119.699 144.481L123.842 140.352C124.714 135.111 123.652 129.732 120.854 125.212Z" fill="#F0F0F0"/>
<path d="M124.711 135.066C124.418 130.836 122.874 126.789 120.276 123.435C117.677 120.081 114.14 117.571 110.112 116.224C106.084 114.876 101.745 114.751 97.6459 115.863C93.5463 116.976 89.8696 119.277 87.0806 122.475C84.2917 125.673 82.5158 129.625 81.9777 133.83C81.4396 138.036 82.1633 142.306 84.0574 146.101C85.9515 149.896 88.9309 153.045 92.6186 155.15C96.3064 157.255 100.537 158.221 104.775 157.927C110.456 157.532 115.748 154.902 119.487 150.615C123.225 146.328 125.104 140.735 124.711 135.066ZM83.6096 137.921C83.3388 134.038 84.2279 130.162 86.1646 126.784C88.1013 123.405 90.9986 120.675 94.49 118.94C97.9813 117.204 101.91 116.541 105.779 117.034C109.648 117.527 113.284 119.153 116.227 121.708C119.17 124.263 121.287 127.631 122.312 131.387C123.336 135.142 123.221 139.117 121.982 142.807C120.743 146.498 118.434 149.739 115.349 152.12C112.264 154.502 108.54 155.917 104.649 156.187C99.4318 156.548 94.2844 154.827 90.3388 151.401C86.3933 147.976 83.9727 143.127 83.6096 137.921Z" fill="#E0E0E0"/>
<path d="M92.3473 149.104C90.6926 147.673 89.3374 145.93 88.3594 143.975C87.3813 142.02 86.7997 139.891 86.648 137.711C86.6372 137.615 86.6461 137.517 86.6741 137.425C86.7021 137.332 86.7486 137.246 86.8109 137.171C86.8731 137.097 86.9498 137.036 87.0364 136.992C87.1229 136.948 87.2175 136.921 87.3144 136.915C87.4114 136.908 87.5086 136.921 87.6004 136.953C87.6921 136.985 87.7764 137.035 87.8483 137.1C87.9201 137.166 87.978 137.245 88.0184 137.333C88.0588 137.421 88.0809 137.516 88.0833 137.613C88.3699 141.631 90.2399 145.372 93.284 148.017C96.3281 150.662 100.298 151.996 104.326 151.726C104.515 151.713 104.703 151.776 104.846 151.901C104.989 152.026 105.077 152.202 105.09 152.391C105.103 152.581 105.04 152.767 104.915 152.91C104.79 153.053 104.614 153.141 104.424 153.154C102.243 153.305 100.053 153.025 97.9811 152.33C95.9087 151.636 93.9942 150.539 92.3473 149.104Z" fill="#E0E0E0"/>
<path d="M118.184 132.817C118.077 132.725 118.001 132.603 117.964 132.467C117.401 130.47 116.436 128.609 115.128 126.996C113.82 125.384 112.197 124.055 110.357 123.089C110.196 122.997 110.077 122.846 110.025 122.668C109.973 122.49 109.992 122.299 110.077 122.135C110.163 121.971 110.309 121.846 110.485 121.786C110.661 121.727 110.853 121.737 111.021 121.816C113.035 122.872 114.812 124.327 116.243 126.092C117.675 127.857 118.731 129.894 119.348 132.08C119.373 132.17 119.381 132.265 119.369 132.359C119.358 132.452 119.328 132.543 119.282 132.625C119.235 132.707 119.173 132.778 119.098 132.836C119.024 132.894 118.939 132.937 118.848 132.961C118.733 132.993 118.613 132.996 118.498 132.971C118.382 132.946 118.274 132.893 118.184 132.817Z" fill="#E0E0E0"/>
<path d="M101.704 121.214C101.561 121.087 101.474 120.91 101.461 120.719C101.448 120.53 101.51 120.344 101.635 120.2C101.759 120.057 101.935 119.969 102.125 119.954C103.948 119.828 105.78 120 107.548 120.463C107.64 120.487 107.727 120.529 107.802 120.587C107.878 120.644 107.942 120.716 107.99 120.798C108.038 120.88 108.069 120.971 108.082 121.065C108.095 121.159 108.089 121.255 108.065 121.347C108.04 121.439 107.998 121.525 107.941 121.601C107.883 121.676 107.811 121.74 107.729 121.788C107.646 121.836 107.555 121.867 107.461 121.88C107.367 121.893 107.271 121.887 107.179 121.863C105.565 121.437 103.892 121.279 102.227 121.396C102.036 121.405 101.848 121.34 101.704 121.214Z" fill="#E0E0E0"/>
<path d="M104.793 198.862C154.859 198.862 195.445 196.497 195.445 193.581C195.445 190.664 154.859 188.299 104.793 188.299C54.7277 188.299 14.1416 190.664 14.1416 193.581C14.1416 196.497 54.7277 198.862 104.793 198.862Z" fill="#F5F5F5"/>
<path d="M52.3453 67.4439C48.5769 71.2277 54.9822 77.1015 50.751 79.7982C54.2061 81.5291 66.3154 83.7265 69.4526 76.9196C67.1664 75.1467 68.756 70.7891 66.6474 66.6041C63.4915 60.399 48.5769 63.147 52.3453 67.4439Z" fill="#263238"/>
<path d="M52.6873 67.3457C51.5137 67.1498 47.5443 69.1186 50.4991 74.4046C52.8789 78.6782 50.8966 78.9815 50.8966 78.9815C50.8966 78.9815 53.2343 79.0468 51.8316 75.8696C50.3449 72.4778 49.6482 68.96 52.6873 67.3457Z" fill="#263238"/>
<path d="M80.4817 100.91C80.3372 100.646 80.0945 100.449 79.8059 100.362C79.5173 100.274 79.2059 100.304 78.9388 100.443L78.663 100.588C78.5741 100.634 78.4058 100.746 78.2702 100.826C78.1347 100.905 77.9757 100.994 77.8261 101.068C77.5312 101.216 77.2266 101.344 76.9144 101.451C76.3365 101.66 75.7287 101.775 75.1143 101.792C74.5499 101.798 73.9885 101.708 73.4546 101.526C73.1153 101.4 72.7883 101.244 72.4774 101.059C72.0753 100.173 71.6919 99.2768 71.3647 98.353C70.9672 97.2753 70.6166 96.1743 70.308 95.0592C69.9994 93.9441 69.7283 92.8151 69.5038 91.6814C69.387 91.1169 69.2841 90.5477 69.1906 89.9831L69.0644 89.1387C69.0223 88.8681 68.9849 88.5602 68.9615 88.3455V88.2522C68.8995 87.6335 68.5937 87.0648 68.1115 86.6711C67.6292 86.2773 67.01 86.0909 66.39 86.1528C65.77 86.2146 65.2 86.5197 64.8055 87.001C64.4109 87.4822 64.2241 88.1001 64.2861 88.7188C64.3188 89.1153 64.3469 89.4186 64.3889 89.7499C64.431 90.0811 64.4778 90.3984 64.5245 90.7203C64.6274 91.3641 64.7443 91.9986 64.8752 92.6331C65.1351 93.894 65.4629 95.1399 65.857 96.3655C66.0394 96.9814 66.2638 97.5879 66.4742 98.1991C66.6846 98.8103 66.9417 99.4074 67.2082 100C67.7184 101.197 68.2976 102.364 68.9428 103.494L68.9989 103.597C69.1667 103.901 69.4182 104.15 69.7236 104.316C70.6073 104.796 71.5622 105.133 72.5522 105.314C73.569 105.493 74.6111 105.471 75.6193 105.249C77.0423 104.919 78.3494 104.212 79.4017 103.201C79.5747 103.042 79.7383 102.879 79.8692 102.706C80.0001 102.533 80.1591 102.37 80.3368 102.127C80.4738 101.959 80.5602 101.755 80.5859 101.54C80.6115 101.324 80.5754 101.106 80.4817 100.91Z" fill="#FF8B7B"/>
<path d="M83.5909 96.5427H83.4553C83.0078 96.5331 82.5641 96.6267 82.1587 96.816C81.7532 97.0054 81.397 97.2854 81.1176 97.6344L78.8594 100.462V102.393C80.6734 103.112 82.9737 101.175 82.9737 101.175L84.1379 100.882C84.5298 100.784 84.8714 100.545 85.0968 100.211C85.3222 99.8762 85.4153 99.4703 85.3582 99.0713L85.1899 97.9376C85.135 97.5525 84.9434 97.1999 84.65 96.9439C84.3565 96.6879 83.9807 96.5455 83.5909 96.5427Z" fill="#FF8B7B"/>
<path d="M68.9012 85.6397C70.4114 87.1886 70.5049 91.8122 70.5049 91.8122L64.4642 96.6643C64.4642 96.6643 61.9816 89.806 63.3561 87.3846C64.5203 85.3318 66.9749 83.6662 68.9012 85.6397Z" fill="#1E282D"/>
<path d="M58.9043 189.582L62.2425 189.946L62.7007 180.895L59.3625 180.526L58.9043 189.582Z" fill="#FF8B7B"/>
<path d="M62.7898 187.772H58.8671C58.788 187.77 58.7111 187.798 58.6526 187.851C58.5941 187.904 58.5586 187.978 58.5538 188.057L58.292 191.756C58.2919 191.95 58.3677 192.136 58.5031 192.275C58.6385 192.413 58.8228 192.493 59.0167 192.498C60.6718 192.498 60.6905 192.498 62.757 192.498H68.3254C70.0367 192.498 70.0413 190.767 69.3026 190.609C65.9784 189.909 64.6833 188.939 63.5098 188.015C63.3035 187.856 63.0501 187.771 62.7898 187.772Z" fill="#263238"/>
<path opacity="0.2" d="M62.7009 180.9L62.4624 185.565H59.1055L59.3626 180.531L62.7009 180.9Z" fill="black"/>
<path d="M64.5013 108.682C64.5013 108.682 67.3907 132.817 67.3907 143.548C65.1138 158.477 63.1828 184.679 63.1828 184.679L58.5635 184.558C58.5635 184.558 56.4643 156.023 58.4092 143.702C55.9172 132.663 52.8408 107.189 52.8408 107.189L64.5013 108.682Z" fill="white" stroke="#263238" stroke-linecap="round" stroke-linejoin="round"/>
<path d="M22.7549 181.18L25.5087 183.097L30.2589 175.371L27.5051 173.454L22.7549 181.18Z" fill="#FF8B7B"/>
<path d="M26.2051 182.085L23.8673 178.945C23.8228 178.881 23.7548 178.836 23.6779 178.821C23.6009 178.807 23.5212 178.822 23.4559 178.866L20.3234 180.872C20.1671 180.986 20.0623 181.158 20.0317 181.349C20.0011 181.54 20.0471 181.736 20.1597 181.893C21.1369 183.223 21.1556 183.232 22.3852 184.884C23.1473 185.896 24.6668 187.935 25.7141 189.34C26.7614 190.744 28.1313 189.68 27.8134 188.99C26.4108 185.915 26.4108 184.324 26.4388 182.813C26.4436 182.551 26.3614 182.295 26.2051 182.085Z" fill="#263238"/>
<path opacity="0.2" d="M30.2538 175.371L27.8086 179.355L24.8584 177.751L27.5047 173.454L30.2538 175.371Z" fill="black"/>
<path d="M39.6461 184.417C37.257 184.417 32.2824 184.417 32.1982 180.909C32.1327 178.156 35.5458 177.013 38.4913 176.873C38.8177 176.858 39.1439 176.906 39.4514 177.016C39.7589 177.126 40.0417 177.296 40.2835 177.515C40.5254 177.734 40.7215 177.999 40.8609 178.294C41.0002 178.589 41.0799 178.908 41.0955 179.234V179.421C44.4338 179.262 46.5938 178.534 47.384 177.293C49.1653 174.494 45.7522 167.267 42.4561 160.283C38.5755 152.067 34.1806 142.759 34.0964 133.843C34.0933 133.517 34.1546 133.194 34.2768 132.892C34.3989 132.589 34.5796 132.314 34.8084 132.081C35.0372 131.849 35.3097 131.663 35.6103 131.536C35.9109 131.408 36.2337 131.341 36.5604 131.338C37.2156 131.339 37.8441 131.598 38.3096 132.058C38.7751 132.518 39.0403 133.143 39.0477 133.797C39.1225 141.625 43.2556 150.41 46.9304 158.165C51.1383 167.113 54.8085 174.844 51.5591 179.952C49.6749 182.957 45.7709 184.417 39.6461 184.417Z" fill="#0099FF"/>
<path d="M60.8034 108.206C60.8034 108.206 52.8272 135.789 48.9325 145.792C41.3864 158.883 28.8656 178.917 28.8656 178.917L24.8682 176.584C24.8682 176.584 34.219 153.443 40.5074 142.666C42.1953 131.469 48.5772 106.62 48.5772 106.62L60.8034 108.206Z" fill="white" stroke="#263238" stroke-linecap="round" stroke-linejoin="round"/>
<path d="M26.925 184.338C27.0837 184.6 27.3281 184.799 27.617 184.902C27.7016 184.923 27.7901 184.919 27.8727 184.892C27.9553 184.865 28.0287 184.815 28.0845 184.749C28.1234 184.713 28.1531 184.668 28.171 184.619C28.1889 184.569 28.1945 184.516 28.1874 184.464C28.1313 183.904 26.6819 183.176 26.392 183.036C26.3751 183.029 26.3563 183.029 26.3391 183.035C26.3219 183.041 26.3074 183.053 26.2985 183.069C26.2872 183.086 26.2812 183.107 26.2812 183.127C26.2812 183.148 26.2872 183.168 26.2985 183.186C26.4702 183.589 26.68 183.975 26.925 184.338ZM27.9209 184.338C27.962 184.389 27.9894 184.45 28.0004 184.515C28.0026 184.533 28.0004 184.552 27.9939 184.569C27.9873 184.586 27.9767 184.601 27.963 184.613C27.9252 184.656 27.8768 184.688 27.8226 184.706C27.7684 184.724 27.7103 184.728 27.6544 184.716C27.3458 184.655 26.939 184.156 26.5463 183.368C27.0555 183.604 27.5204 183.926 27.9209 184.319V184.338Z" fill="#407BFF"/>
<path d="M26.2749 183.205L26.3029 183.228C26.7705 183.484 27.9861 183.694 28.2526 183.307C28.2973 183.236 28.3191 183.154 28.3149 183.07C28.3107 182.987 28.2808 182.907 28.2292 182.841C27.7617 182.015 26.359 182.985 26.2983 183.027C26.2843 183.038 26.2732 183.053 26.2659 183.069C26.2586 183.085 26.2553 183.103 26.2562 183.121C26.2543 183.15 26.2608 183.179 26.2749 183.205ZM28.0515 182.934C28.0652 182.95 28.0777 182.967 28.0889 182.985C28.1404 183.074 28.1497 183.139 28.1217 183.177C27.9674 183.4 27.0697 183.321 26.5461 183.116C26.8967 182.906 27.7149 182.481 28.0515 182.934Z" fill="#407BFF"/>
<path d="M65.0526 188.542C65.359 188.57 65.6658 188.492 65.9222 188.323C65.9872 188.266 66.0352 188.192 66.0608 188.11C66.0864 188.027 66.0886 187.94 66.0672 187.856C66.0605 187.803 66.0418 187.753 66.0127 187.708C65.9835 187.664 65.9446 187.627 65.8988 187.599C65.4313 187.315 63.9679 188.038 63.6827 188.187C63.6666 188.196 63.6541 188.21 63.6473 188.227C63.6405 188.244 63.6398 188.263 63.6453 188.281C63.6524 188.3 63.6642 188.317 63.6797 188.331C63.6952 188.345 63.7139 188.355 63.7341 188.36C64.1662 188.465 64.608 188.526 65.0526 188.542ZM65.6323 187.735C65.6989 187.73 65.7654 187.745 65.824 187.777C65.8474 187.777 65.8708 187.809 65.8801 187.865C65.8924 187.921 65.8893 187.979 65.8712 188.033C65.8531 188.088 65.8206 188.136 65.7773 188.173C65.5482 188.383 64.903 188.411 64.0333 188.257C64.5247 187.994 65.0577 187.818 65.609 187.735H65.6323Z" fill="#407BFF"/>
<path d="M63.735 188.383H63.7678C64.2353 188.168 65.147 187.315 64.9974 186.871C64.9662 186.798 64.9141 186.736 64.8476 186.692C64.7811 186.648 64.7032 186.624 64.6234 186.624C63.6883 186.517 63.6228 188.206 63.6182 188.276C63.6183 188.294 63.6231 188.312 63.6321 188.329C63.641 188.345 63.6539 188.359 63.6696 188.369C63.6895 188.38 63.7123 188.385 63.735 188.383ZM64.5766 186.797H64.6421C64.7403 186.797 64.801 186.839 64.8151 186.885C64.9039 187.142 64.3054 187.818 63.8239 188.112C63.866 187.706 64.0156 186.797 64.586 186.797H64.5766Z" fill="#407BFF"/>
<path d="M48.5771 106.643L64.5016 108.678C68.0923 96.6126 69.2752 90.7853 69.5932 87.9814C69.6773 87.2766 69.5122 86.5646 69.1264 85.9684C68.7405 85.3721 68.1582 84.929 67.4799 84.7155C66.5448 84.4169 65.3385 84.0623 64.1416 83.7824C63.7349 83.6751 63.3187 83.5771 62.912 83.4838C60.528 83.0012 58.1124 82.6893 55.6838 82.5507C55.3238 82.5181 54.9684 82.4994 54.6084 82.4807C53.9025 82.4434 53.2058 82.4341 52.57 82.4341C52.0927 82.4335 51.6206 82.5321 51.1836 82.7237C50.7467 82.9152 50.3545 83.1955 50.0321 83.5466C49.7097 83.8978 49.4642 84.3121 49.311 84.7631C49.1579 85.2142 49.1007 85.6921 49.1429 86.1665C49.2691 87.5661 49.3673 88.8678 49.4421 90.0622C49.6198 92.8615 49.6759 95.1009 49.6338 97.0604C49.5382 100.278 49.1849 103.482 48.5771 106.643Z" fill="#263238"/>
<path opacity="0.3" d="M49.6243 97.0416C51.7282 94.3263 52.4903 91.2191 51.8077 89.5068L49.4326 90.0387C49.6243 92.8287 49.6757 95.0775 49.6243 97.0416Z" fill="#1E282D"/>
<path d="M64.1413 83.7547C63.7299 83.6474 63.3185 83.5494 62.9117 83.4561C60.5257 82.9757 58.1088 82.6639 55.6788 82.523C55.3188 82.495 54.9635 82.4763 54.6082 82.4577L53.9863 82.4297L54.4539 83.2462C54.5193 83.3581 56.109 85.9521 60.0644 88.7421L60.9106 89.33L61.7241 88.7095C62.5076 88.1486 63.1477 87.4117 63.5928 86.5582C64.0379 85.7048 64.2755 84.7587 64.2863 83.7967L64.1413 83.7547Z" fill="white"/>
<path d="M57.4367 77.7265C57.2871 79.6907 56.8242 81.6922 55.6787 82.532C55.6787 82.532 57.1374 84.9534 60.9152 87.5987C63.281 85.7932 62.9116 83.4558 62.9116 83.4558C60.3962 82.5227 60.5739 80.7824 61.6352 78.0064L59.6715 76.952C59.5021 76.7657 59.2815 76.6333 59.0373 76.5711C58.793 76.5089 58.5358 76.5197 58.2976 76.6023C58.0594 76.6848 57.8509 76.8354 57.6978 77.0353C57.5447 77.2351 57.4539 77.4755 57.4367 77.7265Z" fill="#FF8B7B"/>
<path opacity="0.2" d="M59.6714 76.9523C59.5123 76.7769 59.3077 76.6488 59.0802 76.5822C58.8527 76.5156 58.6112 76.513 58.3824 76.5748C58.1535 76.6366 57.9462 76.7604 57.7835 76.9324C57.6207 77.1044 57.5087 77.3179 57.46 77.5494C58.2059 79.0502 59.4089 80.2768 60.8964 81.0533C60.9497 80.0011 61.1986 78.968 61.6304 78.0067L59.6714 76.9523Z" fill="black"/>
<path d="M54.379 71.5681C55.3561 75.3611 55.6881 76.9847 58.0118 78.5663C61.5043 80.9644 65.96 78.9396 66.133 74.9366C66.2966 71.3301 64.6742 65.7315 60.616 64.929C59.7201 64.7463 58.7922 64.7956 57.9208 65.0722C57.0495 65.3488 56.2636 65.8436 55.6382 66.5093C55.0128 67.175 54.5688 67.9894 54.3483 68.875C54.1279 69.7606 54.1384 70.6877 54.379 71.5681Z" fill="#FF8B7B"/>
<path d="M64.0526 65.7131C61.7633 67.7439 59.0475 69.2376 56.1044 70.0847C56.1044 70.0847 59.0079 76.2478 53.575 74.6942C51.9994 69.4455 53.575 66.7209 54.9777 65.4378C59.2977 64.0382 62.3368 63.5716 64.0526 65.7131Z" fill="#263238"/>
<path d="M54.1966 75.305C54.5151 75.9922 55.0934 76.5257 55.8049 76.7887C56.74 77.1246 57.2964 76.3221 57.0954 75.389C56.913 74.5539 56.2023 73.3688 55.2252 73.4295C55.0138 73.4475 54.8102 73.5174 54.6325 73.633C54.4548 73.7486 54.3085 73.9062 54.2067 74.0919C54.1049 74.2776 54.0506 74.4855 54.0489 74.6972C54.0471 74.9089 54.0979 75.1177 54.1966 75.305Z" fill="#FF8B7B"/>
<path d="M48.4601 105.682L47.5577 107.012C47.4876 107.114 47.6045 107.245 47.7868 107.268L64.4874 109.405C64.6324 109.405 64.7586 109.368 64.782 109.279L65.1092 107.88C65.1092 107.782 65.0157 107.684 64.8614 107.66L48.7312 105.598C48.6826 105.587 48.6319 105.589 48.5842 105.603C48.5366 105.618 48.4937 105.645 48.4601 105.682Z" fill="#1E282D"/>
<path d="M50.3912 107.758L49.9611 107.702C49.8769 107.702 49.8161 107.637 49.8301 107.586L50.2696 105.762C50.2864 105.731 50.3131 105.707 50.3453 105.693C50.3776 105.68 50.4136 105.677 50.4473 105.687L50.8821 105.743C50.9663 105.743 51.0271 105.804 51.013 105.86L50.5735 107.679C50.5595 107.735 50.48 107.768 50.3912 107.758Z" fill="#263238"/>
<path d="M63.2525 109.401L62.8224 109.35C62.7382 109.35 62.6774 109.284 62.6915 109.228L63.131 107.409C63.131 107.358 63.2245 107.32 63.3086 107.33L63.7434 107.386C63.8276 107.386 63.8884 107.451 63.8744 107.502L63.4349 109.326C63.4208 109.378 63.3414 109.415 63.2525 109.401Z" fill="#263238"/>
<path d="M56.8246 108.579L56.3944 108.523C56.3056 108.523 56.2448 108.463 56.2588 108.407L56.6983 106.587C56.6983 106.531 56.7918 106.499 56.8807 106.508L57.3108 106.564C57.395 106.564 57.4558 106.629 57.4464 106.681L57.0022 108.505C56.9929 108.556 56.9087 108.589 56.8246 108.579Z" fill="#263238"/>
<path d="M60.8921 71.4047C60.9482 71.7173 61.1633 71.9412 61.3597 71.8993C61.556 71.8573 61.6823 71.5773 61.6215 71.2648C61.5607 70.9522 61.3456 70.7282 61.154 70.7702C60.9623 70.8122 60.8454 71.0921 60.8921 71.4047Z" fill="#263238"/>
<path d="M64.4265 70.7283C64.4873 71.0409 64.7023 71.2601 64.894 71.2228C65.0857 71.1855 65.2166 70.8962 65.1559 70.5836C65.0951 70.2711 64.88 70.0518 64.6883 70.0891C64.4966 70.1264 64.3704 70.4157 64.4265 70.7283Z" fill="#263238"/>
<path d="M64.5859 70.1266L65.2966 69.7627C65.2966 69.7627 65.0535 70.4252 64.5859 70.1266Z" fill="#263238"/>
<path d="M63.4912 71.4282C63.909 72.0855 64.4138 72.6834 64.992 73.2058C64.855 73.351 64.6877 73.4644 64.5018 73.5377C64.3159 73.6111 64.1162 73.6427 63.9167 73.6303L63.4912 71.4282Z" fill="#FF5652"/>
<path d="M61.2845 74.8904C61.2704 74.9067 61.2623 74.9273 61.2618 74.9489C61.2612 74.9704 61.2681 74.9915 61.2813 75.0085C61.2945 75.0255 61.3132 75.0375 61.3342 75.0423C61.3553 75.0471 61.3773 75.0445 61.3967 75.035C61.7499 74.8552 62.1409 74.7614 62.5375 74.7614C62.934 74.7614 63.325 74.8552 63.6783 75.035C63.6994 75.047 63.7245 75.0504 63.748 75.0443C63.7716 75.0382 63.7919 75.0231 63.8045 75.0024C63.8173 74.9811 63.8215 74.9558 63.8163 74.9315C63.8111 74.9073 63.7968 74.8859 63.7765 74.8717C63.3952 74.6768 62.9729 74.5752 62.5445 74.5752C62.1161 74.5752 61.6938 74.6768 61.3125 74.8717C61.3125 74.8717 61.3125 74.881 61.2845 74.8904Z" fill="#263238"/>
<path d="M59.6713 70.4438C59.7001 70.4261 59.7229 70.4 59.7367 70.3692C59.8342 70.1565 59.9807 69.97 60.1644 69.8248C60.3481 69.6796 60.5636 69.58 60.7934 69.534C60.818 69.5312 60.8418 69.5234 60.8634 69.5113C60.885 69.4991 60.904 69.4828 60.9192 69.4632C60.9345 69.4437 60.9456 69.4213 60.9521 69.3975C60.9586 69.3736 60.9603 69.3486 60.957 69.3241C60.9547 69.2997 60.9475 69.276 60.9358 69.2545C60.9241 69.2329 60.9082 69.214 60.889 69.1987C60.8698 69.1835 60.8477 69.1723 60.824 69.1657C60.8003 69.1592 60.7756 69.1575 60.7513 69.1608C60.459 69.2153 60.184 69.3385 59.949 69.5202C59.714 69.702 59.5259 69.937 59.4001 70.2059C59.3819 70.2427 59.3764 70.2844 59.3844 70.3246C59.3924 70.3649 59.4135 70.4014 59.4444 70.4284C59.4753 70.4555 59.5142 70.4717 59.5552 70.4745C59.5962 70.4773 59.637 70.4665 59.6713 70.4438Z" fill="#263238"/>
<path d="M65.4784 68.0784L65.5018 68.055C65.5161 68.0349 65.5262 68.0121 65.5315 67.988C65.5369 67.9639 65.5374 67.939 65.5331 67.9147C65.5287 67.8904 65.5196 67.8672 65.5062 67.8464C65.4928 67.8257 65.4754 67.8078 65.455 67.7938C65.2134 67.6204 64.9337 67.5071 64.6394 67.4633C64.345 67.4195 64.0444 67.4464 63.7626 67.5418C63.7175 67.5614 63.6818 67.5975 63.6626 67.6426C63.6435 67.6878 63.6424 67.7385 63.6597 67.7844C63.6784 67.8302 63.7144 67.8666 63.76 67.8859C63.8056 67.9051 63.8569 67.9055 63.9028 67.8871C64.1267 67.8139 64.3649 67.7951 64.5975 67.8325C64.8301 67.8698 65.0504 67.9621 65.24 68.1017C65.2758 68.1272 65.3197 68.1389 65.3636 68.1346C65.4074 68.1303 65.4482 68.1103 65.4784 68.0784Z" fill="#263238"/>
<path d="M61.0654 70.8031L61.7761 70.4438C61.7761 70.4438 61.5002 71.1017 61.0654 70.8031Z" fill="#263238"/>
<path d="M36.5844 136.302C35.9288 136.302 35.2996 136.044 34.8338 135.583C34.3681 135.123 34.1033 134.498 34.0971 133.843C34.0317 127.218 36.2431 121.624 40.4931 117.668C45.7249 112.797 53.8835 110.534 63.4774 111.29C70.2054 111.822 74.5208 110.189 79.5141 108.29C80.337 107.982 81.1645 107.665 82.0155 107.357C82.6355 107.132 83.3197 107.162 83.9177 107.44C84.5157 107.718 84.9784 108.222 85.2041 108.841C85.4298 109.46 85.3999 110.142 85.1211 110.739C84.8423 111.336 84.3373 111.798 83.7173 112.023C82.8898 112.321 82.0856 112.629 81.2861 112.933C76.1946 114.864 70.9347 116.856 63.0847 116.24C54.9027 115.592 48.086 117.388 43.8874 121.298C40.6146 124.321 39.0203 128.525 39.0718 133.797C39.0748 134.123 39.0136 134.446 38.8914 134.748C38.7692 135.051 38.5886 135.326 38.3598 135.559C38.131 135.791 37.8585 135.977 37.5579 136.104C37.2573 136.232 36.9345 136.299 36.6078 136.302H36.5844Z" fill="#0099FF"/>
<path d="M94.1084 115.527L84.1034 119.185C83.2686 119.49 82.3464 119.452 81.5399 119.079C80.7333 118.705 80.1084 118.028 79.8025 117.195L75.6709 105.94C75.365 105.107 75.4033 104.187 75.7774 103.382C76.1515 102.577 76.8306 101.954 77.6654 101.649L87.6704 97.991L94.1036 115.514L94.1084 115.527Z" fill="#407BFF"/>
<path opacity="0.8" d="M94.1084 115.527L84.1034 119.185C83.2686 119.49 82.3464 119.452 81.5399 119.079C80.7333 118.705 80.1084 118.028 79.8025 117.195L75.6709 105.94C75.365 105.107 75.4033 104.187 75.7774 103.382C76.1515 102.577 76.8306 101.954 77.6654 101.649L87.6704 97.991L94.1036 115.514L94.1084 115.527Z" fill="#428DFF"/>
<path opacity="0.2" d="M83.2121 99.6175L87.6771 97.9893L94.1105 115.522L89.6455 117.155C89.3483 116.868 89.1211 116.517 88.9816 116.129L83.3711 100.831C83.2243 100.444 83.1699 100.029 83.2121 99.6175Z" fill="#1B48BB"/>
<path d="M97.7028 102.356L97.2646 102.517L98.3355 105.433L98.7737 105.273L97.7028 102.356Z" fill="#0099FF"/>
<path d="M96.5892 100.7L95.0136 96.3981C94.7433 95.6687 94.2557 95.0394 93.6162 94.5948C92.9768 94.1502 92.2162 93.9117 91.4369 93.9114C90.9935 93.9101 90.5534 93.9875 90.1371 94.14L87.2945 95.1804L87.1309 94.7418L89.9782 93.7014C90.4454 93.5305 90.9393 93.4436 91.4369 93.4448C92.3126 93.4469 93.1667 93.7162 93.8845 94.2166C94.6024 94.7169 95.1498 95.4244 95.4531 96.2441L97.0287 100.546L96.5892 100.7Z" fill="#0099FF"/>
<path d="M94.186 116.784L98.3611 115.277C99.7252 114.785 100.431 113.282 99.9377 111.921L94.2706 96.2865C93.7772 94.9252 92.2714 94.2209 90.9073 94.7133L86.7322 96.2202C85.3681 96.7126 84.6622 98.2152 85.1556 99.5764L90.8227 115.211C91.3161 116.572 92.8219 117.277 94.186 116.784Z" fill="#0099FF"/>
<path d="M91.7961 101.031C91.8915 101.291 91.9073 101.574 91.8416 101.843C91.776 102.112 91.6318 102.356 91.4273 102.543C91.2228 102.73 90.9672 102.853 90.6929 102.895C90.4185 102.937 90.1378 102.898 89.8862 102.781C89.6346 102.664 89.4235 102.475 89.2795 102.238C89.1356 102.001 89.0653 101.727 89.0775 101.45C89.0898 101.173 89.1841 100.907 89.3484 100.683C89.5128 100.46 89.7398 100.291 90.0007 100.196C90.3498 100.07 90.7349 100.087 91.0714 100.243C91.408 100.4 91.6686 100.683 91.7961 101.031Z" fill="#263238"/>
<path d="M95.2888 110.543C95.3838 110.803 95.3994 111.086 95.3336 111.355C95.2678 111.623 95.1237 111.867 94.9194 112.054C94.715 112.241 94.4597 112.364 94.1857 112.406C93.9116 112.448 93.6311 112.409 93.3796 112.292C93.1282 112.175 92.917 111.987 92.7728 111.75C92.6286 111.514 92.5579 111.24 92.5696 110.964C92.5813 110.687 92.6748 110.42 92.8384 110.197C93.0021 109.974 93.2284 109.803 93.4888 109.708C93.6619 109.645 93.8459 109.617 94.0301 109.624C94.2143 109.632 94.3951 109.676 94.5623 109.754C94.7295 109.831 94.8797 109.941 95.0044 110.076C95.129 110.212 95.2257 110.371 95.2888 110.543Z" fill="#263238"/>
<path d="M54.2998 109.42L54.2624 109.378C53.5331 108.65 52.7616 107.857 52.065 107.045C51.3684 106.233 50.6858 105.421 50.0639 104.581C49.4543 103.762 48.8998 102.903 48.4042 102.011C48.0495 101.372 47.7477 100.706 47.5018 100.019C47.7823 99.0855 48.0816 98.1524 48.4369 97.2567C48.8436 96.1789 49.3018 95.1199 49.8021 94.0748C50.3024 93.0297 50.8354 92.0033 51.4104 91.0002C51.691 90.4963 51.9855 89.9971 52.2894 89.5072L52.757 88.7888C52.9019 88.5555 53.0749 88.3222 53.1965 88.1216L53.2479 88.0469C53.5802 87.5414 53.7029 86.9269 53.5901 86.3328C53.4772 85.7388 53.1376 85.2117 52.6429 84.8627C52.1482 84.5136 51.537 84.3698 50.9382 84.4616C50.3393 84.5535 49.7996 84.8738 49.4327 85.3549C49.199 85.6722 49.0213 85.9241 48.8343 86.1994C48.6473 86.4747 48.479 86.7499 48.3013 87.0252C47.96 87.5757 47.628 88.1309 47.3101 88.6954C46.6776 89.8217 46.1049 90.9803 45.5942 92.1666C45.3324 92.7544 45.1267 93.3563 44.8602 93.9581C44.5937 94.56 44.416 95.1712 44.229 95.7963C43.8322 97.0351 43.5059 98.2952 43.2519 99.5707V99.678C43.1793 100.018 43.2036 100.372 43.322 100.7C43.775 101.896 44.3766 103.031 45.1127 104.078C45.8058 105.071 46.5782 106.007 47.4223 106.877C48.2446 107.715 49.1174 108.501 50.0359 109.233C50.9539 109.963 51.9174 110.635 52.9206 111.244C53.1642 111.386 53.4514 111.435 53.7283 111.381C54.0053 111.327 54.253 111.174 54.425 110.951C54.5971 110.727 54.6816 110.449 54.6629 110.168C54.6442 109.887 54.5234 109.623 54.3232 109.424L54.2998 109.42Z" fill="#FF8B7B"/>
<path d="M59.7319 111.739L59.6711 111.617C59.477 111.213 59.1914 110.859 58.8368 110.584C58.4823 110.309 58.0684 110.119 57.6279 110.031L54.0793 109.312L52.3447 110.176C52.5317 112.116 55.3089 113.278 55.3089 113.278L56.0991 114.179C56.3655 114.481 56.7342 114.674 57.1346 114.721C57.5349 114.768 57.9387 114.667 58.2685 114.435L59.2036 113.768C59.5178 113.547 59.7434 113.221 59.8401 112.85C59.9368 112.478 59.8985 112.085 59.7319 111.739Z" fill="#FF8B7B"/>
<path d="M51.1157 82.7325C49.1473 83.633 47.0527 86.7495 47.0527 86.7495L51.2606 94.6109C51.2606 94.6109 56.0435 89.1103 55.6415 86.3576C55.3142 84.0202 53.6217 81.5848 51.1157 82.7325Z" fill="#1E282D"/>
<path d="M185.814 185.738C181.695 185.738 177.646 184.894 175.682 182.337C166.388 170.207 166.472 145.806 166.551 122.194C166.598 109.48 167.603 97.4666 166.187 88.1356C165.354 82.635 162.446 78.8606 159.51 76.9104C155.153 74.0365 149.168 75.5807 146.611 76.2386C146.292 76.3274 145.959 76.3519 145.631 76.3107C145.303 76.2695 144.986 76.1634 144.699 75.9986C144.413 75.8338 144.162 75.6136 143.962 75.3509C143.762 75.0882 143.616 74.7883 143.533 74.4687C143.45 74.1491 143.432 73.8163 143.48 73.4897C143.528 73.1631 143.64 72.8493 143.811 72.5666C143.982 72.2839 144.208 72.0381 144.475 71.8435C144.742 71.6488 145.045 71.5093 145.367 71.4331C148.56 70.6073 156.05 68.6805 162.25 72.7674C166.435 75.5248 170.053 80.4469 171.105 87.3938C172.578 97.0981 171.573 109.289 171.526 122.194C171.447 144.975 171.367 168.532 179.633 179.304C180.302 180.172 182.906 180.951 187.231 180.727C187.614 180.727 187.988 180.685 188.358 180.653C188.19 180.315 188.104 179.943 188.105 179.566C188.105 178.907 188.367 178.276 188.834 177.81C189.3 177.345 189.933 177.083 190.592 177.083C196.03 177.083 198.891 177.55 199.443 180.032C199.602 180.746 199.686 182.537 197.058 183.764C195.095 184.684 190.41 185.738 185.814 185.738Z" fill="#0099FF"/>
<path d="M131.382 187.879L126.31 185.887L128.984 177.111L134.061 179.099L131.382 187.879Z" fill="#FFC3BD"/>
<path d="M126.188 185.351L131.911 187.59C131.983 187.62 132.044 187.672 132.083 187.74C132.122 187.808 132.137 187.886 132.126 187.963L131.565 191.519C131.55 191.604 131.516 191.686 131.466 191.757C131.416 191.828 131.35 191.887 131.274 191.93C131.198 191.973 131.113 191.997 131.026 192.003C130.938 192.008 130.851 191.994 130.77 191.962C129.335 191.369 127.086 190.389 125.267 189.676C124.15 189.237 122.022 188.537 120.475 187.931C118.927 187.324 119.329 185.719 120.007 185.831C123.088 186.326 124.267 185.799 125.496 185.341C125.72 185.256 125.967 185.259 126.188 185.351Z" fill="#263238"/>
<path opacity="0.2" d="M134.062 179.103L128.985 177.111L127.605 181.637L132.683 183.629L134.062 179.103Z" fill="black"/>
<path d="M140.407 111.174C140.407 111.174 135.815 133.82 134.062 144.989C132.089 157.507 126.876 180.373 126.876 180.373L133.623 183.018C133.623 183.018 143.259 159.606 144.6 148.269C148.645 139.055 156.686 111.939 156.686 111.939L140.407 111.174Z" fill="white" stroke="#263238" stroke-linecap="round" stroke-linejoin="round"/>
<path d="M126.549 180.41L133.955 183.316L135.222 181.077L126.942 177.652L126.549 180.41Z" fill="#263238"/>
<path d="M124.734 185.448C124.476 185.368 124.252 185.204 124.098 184.982C124.055 184.9 124.033 184.808 124.033 184.716C124.033 184.623 124.055 184.532 124.098 184.45C124.117 184.399 124.15 184.355 124.193 184.322C124.236 184.289 124.287 184.269 124.341 184.263C124.832 184.212 125.744 185.406 125.833 185.546C125.843 185.562 125.848 185.579 125.848 185.598C125.848 185.616 125.843 185.634 125.833 185.649C125.823 185.664 125.809 185.676 125.792 185.684C125.776 185.691 125.757 185.694 125.739 185.691C125.396 185.647 125.059 185.565 124.734 185.448ZM124.486 184.473C124.448 184.455 124.406 184.447 124.365 184.45C124.337 184.45 124.304 184.45 124.271 184.529C124.24 184.585 124.224 184.648 124.224 184.711C124.224 184.775 124.24 184.838 124.271 184.893C124.407 185.14 124.874 185.36 125.552 185.472C125.267 185.071 124.905 184.731 124.486 184.473Z" fill="#407BFF"/>
<path d="M125.73 185.686C125.715 185.681 125.702 185.672 125.692 185.658C125.393 185.304 124.972 184.208 125.225 183.83C125.264 183.771 125.322 183.727 125.389 183.706C125.456 183.685 125.529 183.687 125.594 183.713C125.664 183.731 125.729 183.763 125.785 183.807C125.841 183.851 125.888 183.906 125.921 183.97C126.211 184.487 125.884 185.579 125.87 185.626C125.865 185.642 125.855 185.657 125.842 185.669C125.828 185.68 125.812 185.688 125.795 185.691C125.785 185.696 125.773 185.698 125.762 185.698C125.75 185.697 125.739 185.693 125.73 185.686ZM125.571 183.904H125.533C125.412 183.876 125.384 183.904 125.37 183.946C125.23 184.17 125.459 184.963 125.725 185.397C125.858 184.966 125.858 184.504 125.725 184.072C125.696 184 125.641 183.94 125.571 183.904Z" fill="#407BFF"/>
<path d="M161.914 188.724H156.462L155.737 179.58H161.189L161.914 188.724Z" fill="#FFC3BD"/>
<path d="M156.153 188.267H162.301C162.38 188.266 162.456 188.293 162.518 188.342C162.579 188.391 162.621 188.46 162.637 188.537L163.418 192.046C163.437 192.131 163.435 192.22 163.414 192.305C163.394 192.39 163.354 192.47 163.298 192.537C163.243 192.605 163.172 192.659 163.093 192.696C163.013 192.733 162.926 192.751 162.838 192.75C161.286 192.722 158.841 192.629 156.887 192.629C155.68 192.629 153.446 192.755 151.786 192.755C150.126 192.755 149.916 191.117 150.584 190.968C153.637 190.301 154.544 189.386 155.517 188.509C155.692 188.354 155.918 188.268 156.153 188.267Z" fill="#263238"/>
<path opacity="0.2" d="M161.189 179.58H155.732L156.111 184.296H161.567L161.189 179.58Z" fill="black"/>
<path d="M147.008 111.458C147.008 111.458 150.028 136.694 150.664 145.778C151.548 158.421 154.965 183.382 154.965 183.382H162.212C162.212 183.382 162.988 157.89 161.679 146.548C163.484 136.652 162.914 112.219 162.914 112.219L147.008 111.458Z" fill="white" stroke="#263238" stroke-linecap="round" stroke-linejoin="round"/>
<path d="M154.675 183.536H162.633L162.993 180.993L154.03 180.825L154.675 183.536Z" fill="#263238"/>
<path d="M154.821 188.887C154.551 188.907 154.283 188.836 154.058 188.686C153.989 188.625 153.935 188.549 153.9 188.463C153.866 188.377 153.853 188.284 153.862 188.192C153.862 188.137 153.877 188.083 153.906 188.036C153.935 187.989 153.977 187.951 154.026 187.926C154.465 187.702 155.742 188.486 155.896 188.574C155.912 188.583 155.925 188.597 155.934 188.614C155.942 188.63 155.945 188.649 155.943 188.668C155.938 188.686 155.929 188.704 155.916 188.717C155.903 188.731 155.886 188.742 155.868 188.747C155.525 188.833 155.174 188.88 154.821 188.887ZM154.231 188.07C154.19 188.068 154.148 188.076 154.11 188.094C154.087 188.094 154.058 188.131 154.054 188.201C154.044 188.264 154.05 188.328 154.073 188.388C154.095 188.447 154.132 188.5 154.18 188.542C154.395 188.724 154.914 188.747 155.583 188.612C155.176 188.347 154.722 188.163 154.245 188.07H154.231Z" fill="#407BFF"/>
<path d="M155.849 188.747H155.802C155.396 188.523 154.601 187.66 154.685 187.217C154.699 187.148 154.736 187.086 154.791 187.042C154.846 186.998 154.914 186.974 154.984 186.974C155.055 186.964 155.127 186.969 155.195 186.99C155.264 187.01 155.327 187.044 155.382 187.091C155.849 187.469 155.938 188.607 155.943 188.654C155.944 188.671 155.94 188.688 155.933 188.703C155.925 188.719 155.914 188.732 155.9 188.742C155.884 188.748 155.866 188.75 155.849 188.747ZM155.05 187.147H155.008C154.886 187.147 154.877 187.221 154.872 187.245C154.82 187.501 155.339 188.178 155.732 188.467C155.704 188.016 155.541 187.584 155.265 187.226C155.204 187.176 155.128 187.148 155.05 187.147Z" fill="#407BFF"/>
<path d="M149.51 76.6586L145.143 76.6026C143.675 76.6026 142.216 76.556 140.772 76.5327C140.332 76.5327 139.902 76.5047 139.467 76.486C139.495 76.486 139.514 76.4347 139.537 76.4114C139.846 76.0848 140.154 75.7489 140.472 75.4269C140.631 75.259 140.787 75.0957 140.94 74.9371C141.085 74.7784 141.272 74.6011 141.37 74.4705L141.767 73.9666C142.081 73.5679 142.26 73.0808 142.28 72.5746C142.301 72.0683 142.161 71.5685 141.88 71.1462C141.6 70.7238 141.193 70.4003 140.718 70.2215C140.243 70.0428 139.723 70.0178 139.233 70.1502L138.368 70.3835C138.102 70.4628 137.835 70.5515 137.569 70.6401C137.045 70.8221 136.531 71.0227 136.021 71.242C134.994 71.6945 134.002 72.2215 133.052 72.8189C132.069 73.4463 131.138 74.1531 130.271 74.9324C129.352 75.7657 128.52 76.6895 127.788 77.6897C127.603 77.9393 127.446 78.2084 127.32 78.4922C126.886 79.4852 126.865 80.6097 127.261 81.6184C127.657 82.6271 128.439 83.4375 129.434 83.8715L129.859 84.0581C130.82 84.4706 131.815 84.7984 132.833 85.0379C133.721 85.2665 134.563 85.4158 135.39 85.5558C136.218 85.6957 137.026 85.8077 137.831 85.9057C138.635 86.0036 139.43 86.0783 140.224 86.1436C141.809 86.2836 143.38 86.3536 144.947 86.4002C146.513 86.4469 148.046 86.4469 149.673 86.3722C150.942 86.3182 152.14 85.772 153.011 84.8499C153.882 83.9278 154.358 82.7028 154.337 81.4358C154.316 80.1688 153.8 78.96 152.9 78.0668C151.999 77.1736 150.784 76.6667 149.515 76.654L149.51 76.6586Z" fill="#FFC3BD"/>
<path d="M152.053 85.1727C148.28 89.465 139.2 87.8601 139.2 87.8601L139.7 77.1667C142.813 76.4832 145.986 76.1159 149.173 76.0703C154.503 76.061 155.073 81.7296 152.053 85.1727Z" fill="#263238"/>
<path d="M141.982 81.8838C141.758 83.6101 141.515 85.9335 141.37 89.0594C139.401 98.9969 138.667 106.037 140.407 111.174C141.781 112.867 159.693 112.541 162.914 112.214C164.784 107.595 164.981 94.3361 165.2 83.1902C165.228 81.6543 164.703 80.1594 163.721 78.9765C162.739 77.7936 161.364 77.001 159.847 76.7424C155.816 76.0295 151.705 75.8912 147.635 76.3319C146.206 76.494 144.874 77.1289 143.849 78.1352C142.825 79.1415 142.167 80.4612 141.982 81.8838Z" fill="#263238"/>
<path opacity="0.2" d="M159.36 88.6675C159.421 92.064 161.89 97.49 164.667 100.243C164.835 97.3733 164.943 94.2614 165.027 91.1215L159.36 88.6675Z" fill="black"/>
<path d="M174.967 95.269L174.808 94.8957C174.154 93.3395 173.39 91.8318 172.522 90.3842C171.69 88.9845 170.792 87.6642 169.861 86.3905C168.931 85.1168 167.945 83.8991 166.935 82.7141C166.42 82.1262 165.911 81.5384 165.373 80.9692L164.564 80.1201L163.704 79.2523C162.803 78.3644 161.591 77.8615 160.324 77.8503C159.058 77.8391 157.837 78.3203 156.92 79.1921C156.003 80.0639 155.463 81.2577 155.413 82.5204C155.363 83.7832 155.808 85.0156 156.653 85.9566L156.794 86.1106L159.538 89.1571C160.473 90.1929 161.366 91.2473 162.255 92.297C162.685 92.8242 163.129 93.3514 163.531 93.888C163.933 94.4245 164.358 94.9424 164.761 95.4742C165.34 96.2814 165.901 97.0838 166.402 97.8723C166.325 98.2704 166.228 98.6644 166.112 99.0527C165.776 100.183 165.381 101.295 164.929 102.384C164.461 103.536 163.966 104.717 163.451 105.878C162.937 107.04 162.385 108.253 161.895 109.419L161.848 109.522C161.632 110.038 161.6 110.611 161.755 111.148C161.911 111.684 162.245 112.152 162.703 112.473C163.16 112.795 163.714 112.951 164.273 112.916C164.832 112.88 165.362 112.656 165.775 112.279C166.806 111.325 167.785 110.316 168.707 109.256C169.642 108.208 170.519 107.104 171.339 105.944C171.755 105.36 172.152 104.754 172.545 104.124C172.953 103.484 173.326 102.822 173.663 102.141C174.041 101.399 174.369 100.632 174.644 99.8458C175.003 98.839 175.205 97.7832 175.243 96.7153C175.255 96.2191 175.161 95.726 174.967 95.269Z" fill="#FFC3BD"/>
<path d="M160.164 76.8028C166.471 77.8805 170.581 86.3997 170.581 86.3997L162.979 94.5597C162.979 94.5597 158.598 90.1088 155.966 85.9845C153.128 81.4963 155.648 76.0376 160.164 76.8028Z" fill="#263238"/>
<path d="M148.644 63.371C147.588 61.6028 147.242 59.1721 149.177 56.6947C148.8 56.7419 148.417 56.6788 148.075 56.5132C147.734 56.3476 147.447 56.0865 147.251 55.7616C149.371 54.0312 152.036 53.1056 154.774 53.1489C160.431 53.1489 160.852 55.3277 160.66 56.816C164.531 57.0633 167.355 67.1081 157.542 68.8857C151.926 62.9838 148.644 63.371 148.644 63.371Z" fill="#263238"/>
<path d="M160.305 56.9979C160.305 56.9979 161.881 55.393 159.922 53.4521C160.361 53.5723 160.762 53.8039 161.084 54.1244C161.407 54.4449 161.641 54.8434 161.764 55.281C162.04 56.4101 161.278 57.3152 160.305 56.9979Z" fill="#263238"/>
<path d="M158.136 67.6587C157.986 70.7519 157.705 74.2697 158.224 76.7378C157.42 78.0021 155.363 79.4578 151.679 79.7843C150.37 79.0425 148.64 77.2276 149.243 76.2945C150.809 75.2915 151.473 72.2542 151.024 69.9821L158.136 67.6587Z" fill="#FFC3BD"/>
<path opacity="0.2" d="M156.34 68.2417L151.015 69.9819C151.196 70.9495 151.204 71.9415 151.038 72.9119C152.628 72.8606 154.83 71.6662 155.657 70.5465C155.927 70.2317 156.127 69.8637 156.245 69.4666C156.362 69.0695 156.395 68.6522 156.34 68.2417Z" fill="black"/>
<path d="M159.688 62.76C158.702 66.5531 158.318 68.8252 155.99 70.4161C152.488 72.8096 148.084 70.1269 147.911 66.1192C147.761 62.5081 149.398 56.9095 153.465 56.1117C154.361 55.9325 155.287 55.9847 156.157 56.2635C157.027 56.5422 157.811 57.0382 158.434 57.7044C159.058 58.3706 159.5 59.1847 159.72 60.0696C159.939 60.9544 159.928 61.8806 159.688 62.76Z" fill="#FFC3BD"/>
<path d="M158.903 57.3296C157.234 58.5146 155.162 63.5347 159.37 65.5502C163.148 62.2377 162.171 57.3296 158.903 57.3296Z" fill="#263238"/>
<path d="M159.866 57.9311C160.581 54.6279 152.226 52.9204 149.58 56.7787C148.682 59.1021 159.361 61.155 159.866 57.9311Z" fill="#263238"/>
<path d="M153.633 66.786C152.764 66.3943 151.834 66.159 150.883 66.0908C150.87 66.0908 150.857 66.0935 150.845 66.0987C150.833 66.1039 150.822 66.1115 150.812 66.1211C150.803 66.1307 150.796 66.1421 150.791 66.1545C150.787 66.167 150.785 66.1802 150.785 66.1935C150.791 66.2236 150.806 66.2511 150.829 66.2715C150.852 66.2918 150.881 66.3038 150.912 66.3054C151.822 66.3711 152.715 66.5953 153.548 66.9679C153.575 66.9794 153.604 66.9805 153.631 66.9709C153.658 66.9614 153.68 66.942 153.693 66.9166C153.699 66.9041 153.701 66.8907 153.701 66.8771C153.701 66.8636 153.697 66.8503 153.692 66.838C153.686 66.8257 153.678 66.8148 153.668 66.8058C153.657 66.7969 153.646 66.7901 153.633 66.786Z" fill="#263238"/>
<path d="M160.6 66.9077C159.922 67.6253 158.988 68.0463 158 68.0787C156.691 68.1067 156.359 66.861 156.99 65.7973C157.561 64.8642 158.926 63.6698 160.114 64.1457C161.301 64.6216 161.423 66.0166 160.6 66.9077Z" fill="#FFC3BD"/>
<path d="M153.642 62.6945C153.582 63.0071 153.367 63.231 153.175 63.189C152.983 63.1471 152.857 62.8625 152.918 62.5499C152.979 62.2373 153.194 62.018 153.385 62.0833C153.577 62.1486 153.703 62.3679 153.642 62.6945Z" fill="#263238"/>
<path d="M150.103 62.0085C150.042 62.3211 149.827 62.5404 149.635 62.503C149.444 62.4657 149.313 62.1765 149.373 61.8639C149.434 61.5513 149.649 61.3273 149.841 61.3693C150.033 61.4113 150.145 61.6959 150.103 62.0085Z" fill="#263238"/>
<path d="M151.197 62.3682C150.636 63.2512 149.956 64.0533 149.177 64.7522C149.644 65.3727 150.678 65.2514 150.678 65.2514L151.197 62.3682Z" fill="#ED847E"/>
<path d="M153.133 60.8796C153.167 60.8724 153.201 60.8737 153.234 60.8835C153.267 60.8933 153.296 60.9112 153.32 60.9356C153.47 61.1167 153.661 61.2597 153.878 61.353C154.094 61.4462 154.329 61.4871 154.564 61.4722C154.613 61.4654 154.664 61.4782 154.704 61.5079C154.744 61.5375 154.771 61.5816 154.779 61.6308C154.783 61.6551 154.782 61.6799 154.776 61.7038C154.77 61.7276 154.759 61.7501 154.745 61.7697C154.73 61.7893 154.711 61.8057 154.69 61.8179C154.668 61.8301 154.645 61.8379 154.62 61.8407C154.323 61.8646 154.025 61.8173 153.75 61.7029C153.475 61.5885 153.232 61.4102 153.04 61.1829C153.022 61.1659 153.008 61.1456 152.999 61.1232C152.989 61.1008 152.984 61.0766 152.984 61.0523C152.984 61.0279 152.989 61.0038 152.999 60.9813C153.008 60.9589 153.022 60.9386 153.04 60.9216C153.068 60.901 153.099 60.8867 153.133 60.8796Z" fill="#263238"/>
<path d="M149.009 59.8441C148.97 59.836 148.935 59.8146 148.911 59.7834C148.895 59.764 148.883 59.7416 148.876 59.7175C148.869 59.6935 148.867 59.6683 148.871 59.6435C148.874 59.6187 148.882 59.5948 148.894 59.5731C148.907 59.5515 148.923 59.5326 148.943 59.5175C149.173 59.3297 149.444 59.1991 149.734 59.1367C150.025 59.0742 150.326 59.0816 150.612 59.1582C150.66 59.1742 150.699 59.2081 150.722 59.2525C150.744 59.297 150.749 59.3485 150.734 59.3962C150.715 59.4412 150.681 59.4779 150.637 59.4994C150.593 59.5208 150.543 59.5256 150.496 59.5128C150.267 59.4547 150.028 59.4514 149.798 59.5033C149.568 59.5552 149.354 59.6608 149.172 59.8114C149.151 59.831 149.124 59.8444 149.095 59.8501C149.066 59.8559 149.036 59.8538 149.009 59.8441Z" fill="#263238"/>
<path d="M164.102 109.284L160.086 109.256L162.162 113.857C162.162 113.857 165.589 113.124 165.402 111.267L164.102 109.284Z" fill="#FFC3BD"/>
<path d="M158.042 112.415L158.701 113.712C158.878 114.057 159.178 114.324 159.542 114.461C159.906 114.597 160.308 114.593 160.67 114.449L162.161 113.857L160.085 109.256L158.491 110.469C158.199 110.689 157.994 111.005 157.912 111.361C157.83 111.716 157.876 112.09 158.042 112.415Z" fill="#FFC3BD"/>
<path d="M133.529 105.897C133.044 105.892 132.57 105.746 132.167 105.477C131.764 105.207 131.449 104.826 131.26 104.38C131.071 103.934 131.016 103.443 131.103 102.967C131.189 102.49 131.413 102.049 131.747 101.698C133.533 99.8601 135.146 98.4324 136.568 97.1867C140 94.1682 141.182 92.9878 141.07 90.725C140.902 89.3289 140.605 87.9513 140.182 86.61C139.158 82.8543 137.998 78.604 139.986 75.1935C141.052 73.36 142.861 72.105 145.367 71.4611C146.001 71.3111 146.668 71.415 147.226 71.7505C147.783 72.0859 148.187 72.6263 148.35 73.2555C148.512 73.8846 148.422 74.5524 148.096 75.1154C147.771 75.6784 147.238 76.0917 146.611 76.2666C144.848 76.7331 144.423 77.447 144.273 77.6896C143.338 79.2992 144.24 82.6304 144.97 85.3037C145.498 86.9895 145.852 88.7247 146.026 90.4824C146.26 95.2645 143.431 97.7559 139.845 100.91C138.494 102.104 136.956 103.457 135.301 105.155C135.07 105.391 134.794 105.578 134.49 105.705C134.186 105.832 133.859 105.898 133.529 105.897Z" fill="#0099FF"/>
<path d="M138.985 70.2525L142.875 69.2588L141.968 74.2229C141.968 74.2229 138.466 74.3302 138.204 72.4873L138.985 70.2525Z" fill="#FFC3BD"/>
<path d="M145.606 71.8901L145.307 73.1871C145.215 73.5833 144.978 73.9309 144.642 74.1614C144.307 74.3919 143.897 74.4887 143.493 74.4328L141.969 74.2229L142.876 69.2588L144.662 70.0286C145.013 70.1794 145.3 70.4484 145.472 70.7886C145.645 71.1288 145.692 71.5186 145.606 71.8901Z" fill="#FFC3BD"/>
<path d="M132.138 97.7338L132.032 97.6282C131.559 97.1564 130.792 97.1565 130.32 97.6285L116.533 111.391C116.06 111.863 116.06 112.628 116.533 113.1L116.639 113.206C117.112 113.677 117.878 113.677 118.351 113.205L132.138 99.4427C132.611 98.9707 132.611 98.2056 132.138 97.7338Z" fill="#263238"/>
<path d="M139.324 104.895L139.219 104.79C138.746 104.318 137.979 104.318 137.506 104.79L123.717 118.55C123.244 119.022 123.244 119.787 123.717 120.259L123.822 120.364C124.295 120.836 125.062 120.836 125.535 120.364L139.324 106.604C139.797 106.132 139.797 105.367 139.324 104.895Z" fill="#263238"/>
<path d="M120.883 102.856L130.599 93.1606C130.91 92.85 131.28 92.6036 131.687 92.4355C132.093 92.2674 132.529 92.1809 132.97 92.1809C133.41 92.1809 133.846 92.2674 134.252 92.4355C134.659 92.6036 135.029 92.85 135.34 93.1606L143.833 101.636C144.144 101.946 144.391 102.315 144.56 102.721C144.728 103.127 144.815 103.562 144.815 104.001C144.815 104.44 144.728 104.875 144.56 105.281C144.391 105.687 144.144 106.056 143.833 106.367L134.117 116.062L120.883 102.856Z" fill="#407BFF"/>
<path opacity="0.8" d="M120.883 102.856L130.599 93.1606C130.91 92.85 131.28 92.6036 131.687 92.4355C132.093 92.2674 132.529 92.1809 132.97 92.1809C133.41 92.1809 133.846 92.2674 134.252 92.4355C134.659 92.6036 135.029 92.85 135.34 93.1606L143.833 101.636C144.144 101.946 144.391 102.315 144.56 102.721C144.728 103.127 144.815 103.562 144.815 104.001C144.815 104.44 144.728 104.875 144.56 105.281C144.391 105.687 144.144 106.056 143.833 106.367L134.117 116.062L120.883 102.856Z" fill="#428DFF"/>
<path opacity="0.2" d="M124.234 99.4868L120.868 102.841L134.104 116.049L137.466 112.69C137.332 112.3 137.11 111.945 136.816 111.654L125.272 100.159C124.984 99.8571 124.628 99.627 124.234 99.4868Z" fill="#1B48BB"/>
<path d="M120.3 101.15L120.059 101.391C119.033 102.415 119.033 104.075 120.059 105.099L131.845 116.86C132.871 117.884 134.535 117.884 135.561 116.86L135.802 116.619C136.829 115.595 136.829 113.935 135.802 112.911L124.016 101.15C122.99 100.126 121.327 100.126 120.3 101.15Z" fill="#0099FF"/>
</g>
<defs>
<clipPath id="clip0">
<rect width="185.848" height="167.958" fill="white" transform="translate(13.623 32.042)"/>
</clipPath>
</defs>
</svg>
