<svg width="40" height="45" viewBox="0 0 40 45" fill="none" xmlns="http://www.w3.org/2000/svg">
<path d="M11.9496 34.4853C12.482 33.5889 12.793 32.516 12.793 31.3634C12.793 28.2339 10.5044 25.688 7.69129 25.688C4.87816 25.688 2.58965 28.2339 2.58965 31.3634C2.58965 32.5161 2.90074 33.589 3.43316 34.4855C1.40949 35.4184 0.000976562 37.654 0.000976562 40.1692V43.6467C0.000976562 44.1269 0.350742 44.5161 0.782227 44.5161H14.6004C15.0319 44.5161 15.3817 44.1269 15.3817 43.6467V40.1692C15.3817 37.6537 13.9732 35.4181 11.9496 34.4853ZM7.69129 27.4269C9.64277 27.4269 11.2305 29.1928 11.2305 31.3634C11.2305 33.5353 9.64285 35.3023 7.69129 35.3023C5.7398 35.3023 4.15215 33.5353 4.15215 31.3634C4.15215 29.1928 5.7398 27.4269 7.69129 27.4269ZM13.8192 42.7772H1.56348V40.1692C1.56348 38.1329 2.85098 36.3519 4.60762 35.8826C5.4648 36.6089 6.53332 37.0412 7.69129 37.0412C8.84926 37.0412 9.91785 36.6089 10.775 35.8826C12.5317 36.3515 13.8192 38.1327 13.8192 40.1692V42.7772Z" fill="#687086"/>
<path d="M36.5658 34.4852C37.0981 33.5888 37.4091 32.516 37.4091 31.3634C37.4091 28.2339 35.1205 25.688 32.3075 25.688C29.4956 25.688 27.208 28.2339 27.208 31.3634C27.208 32.5157 27.5188 33.5885 28.0509 34.4848C26.0264 35.4173 24.6172 37.6533 24.6172 40.1692V43.6467C24.6172 44.1269 24.967 44.5161 25.3984 44.5161H39.2189C39.6504 44.5161 40.0002 44.1269 40.0002 43.6467V40.1692C40.0001 37.6537 38.5907 35.4179 36.5658 34.4852ZM32.3075 27.4269C34.259 27.4269 35.8466 29.1928 35.8466 31.3634C35.8466 33.5353 34.259 35.3023 32.3075 35.3023C30.3572 35.3023 28.7705 33.5353 28.7705 31.3634C28.7705 29.1928 30.3572 27.4269 32.3075 27.4269ZM38.4376 42.7772H26.1796V40.1692C26.1796 38.1326 27.4677 36.3512 29.2248 35.8824C30.0817 36.6087 31.1499 37.0412 32.3075 37.0412C33.4655 37.0412 34.5341 36.6088 35.3912 35.8825C37.1491 36.3516 38.4375 38.1328 38.4375 40.1692V42.7772H38.4376Z" fill="#687086"/>
<path d="M32.3291 22.9743C32.4571 23.0655 32.6035 23.1115 32.7504 23.1115C32.8768 23.1115 33.0034 23.0774 33.1188 23.0088C33.3682 22.8603 33.526 22.5734 33.5314 22.2588L33.5766 19.6351C35.6461 19.0704 37.1811 16.9646 37.1811 14.533C37.1811 11.9887 35.5468 9.86197 33.3854 9.38299C33.4965 8.83245 33.5537 8.27017 33.5537 7.70112C33.5536 3.45469 30.4495 0 26.6339 0H21.3037C20.8722 0 20.5225 0.389255 20.5225 0.869456C20.5225 1.34966 20.8722 1.73891 21.3037 1.73891H26.6339C29.5879 1.73891 31.9912 4.41362 31.9912 7.7012C31.9912 8.238 31.926 8.76724 31.7982 9.28153H21.1266C18.791 9.28153 16.8474 11.1803 16.4739 13.6635H14.3747C14.1981 13.6635 14.0267 13.7301 13.8884 13.8524L9.26129 17.948L9.20105 14.4889C9.19332 14.0445 8.88566 13.6781 8.48777 13.6395C5.74621 13.3737 3.59863 10.7653 3.59863 7.70103C3.59863 4.41362 6.00285 1.73891 8.95809 1.73891H14.2883C14.7198 1.73891 15.0696 1.34966 15.0696 0.869456C15.0696 0.389255 14.7198 0 14.2883 0H8.95809C5.14129 0 2.03613 3.45469 2.03613 7.7012C2.03613 9.63339 2.68801 11.4842 3.87176 12.9129C4.88598 14.137 6.20871 14.9549 7.65176 15.2636L7.72965 19.7401C7.73543 20.0709 7.90926 20.3693 8.17816 20.51C8.28418 20.5656 8.3977 20.5928 8.51066 20.5928C8.68418 20.5928 8.85621 20.5285 8.99707 20.4039L14.6475 15.4025H16.4739C16.8474 17.8857 18.791 19.7845 21.1266 19.7845H27.8514L32.3291 22.9743ZM17.9705 14.533C17.9705 12.5962 19.3864 11.0204 21.1266 11.0204H32.4625C34.2027 11.0204 35.6186 12.5962 35.6186 14.533C35.6186 16.3381 34.3542 17.8749 32.74 18.0315C32.3421 18.0701 32.0344 18.4365 32.0268 18.881L31.996 20.6723L28.5012 18.1826C28.3755 18.093 28.2293 18.0454 28.08 18.0454H21.1266C19.3863 18.0455 17.9705 16.4697 17.9705 14.533Z" fill="#687086"/>
<path d="M22.3623 13.6621C21.9308 13.6621 21.5811 14.0526 21.5811 14.5328C21.5811 15.013 21.9308 15.4022 22.3623 15.4022C22.7938 15.4022 23.1436 15.013 23.1436 14.5328V14.5303C23.1436 14.0501 22.7938 13.6621 22.3623 13.6621Z" fill="#428DFF"/>
<path d="M26.7949 13.6621C26.3634 13.6621 26.0137 14.0526 26.0137 14.5328C26.0137 15.013 26.3634 15.4022 26.7949 15.4022C27.2264 15.4022 27.5762 15.013 27.5762 14.5328V14.5303C27.5762 14.0501 27.2264 13.6621 26.7949 13.6621Z" fill="#428DFF"/>
<path d="M31.2266 15.4022C31.658 15.4022 32.0078 15.013 32.0078 14.5328V14.5303C32.0078 14.0501 31.658 13.6621 31.2266 13.6621C30.7951 13.6621 30.4453 14.0526 30.4453 14.5328C30.4453 15.013 30.7951 15.4022 31.2266 15.4022Z" fill="#428DFF"/>
<path d="M17.7958 1.73891H17.8003C18.2318 1.73891 18.5793 1.34966 18.5793 0.869456C18.5793 0.389255 18.2274 0 17.7959 0C17.3644 0 17.0146 0.389255 17.0146 0.869456C17.0146 1.34966 17.3643 1.73891 17.7958 1.73891Z" fill="#428DFF"/>
</svg>
